<svg width="67" height="68" viewBox="0 0 67 68" fill="none" xmlns="http://www.w3.org/2000/svg">
<g filter="url(#filter0_d_4_2477)">
<rect x="6" width="60.6097" height="60.6097" rx="17.0731" fill="white"/>
<path fill-rule="evenodd" clip-rule="evenodd" d="M37.8722 30.2872C38.3008 29.8586 38.3008 29.1637 37.8722 28.735C37.4436 28.3064 36.7486 28.3064 36.32 28.735L26.8078 38.2475C26.3792 38.6761 26.3792 39.3711 26.8078 39.7998C27.2364 40.2284 27.9314 40.2284 28.36 39.7998L37.8722 30.2872Z" fill="#175071"/>
<path fill-rule="evenodd" clip-rule="evenodd" d="M37.4987 19.8222C36.4969 19.3093 35.2826 19.8891 35.0748 21.0091C34.8467 22.2391 34.8572 23.4353 35.0987 24.6827C34.0186 25.2447 33.0784 25.9329 32.2227 26.7712C31.405 27.5723 31.5817 28.9386 32.6129 29.4807C33.691 30.0474 34.8072 30.404 36.0352 30.5706C36.2021 31.7993 36.5599 32.9165 37.1271 33.9952C37.6693 35.026 39.0354 35.2028 39.8366 34.3851C40.6749 33.5294 41.3631 32.5892 41.9252 31.5092C43.1726 31.7507 44.3688 31.7612 45.5988 31.533C46.7187 31.3252 47.2985 30.1109 46.7856 29.1091C46.2279 28.0197 45.5243 27.0684 44.656 26.1903C45.2618 25.0708 45.6465 23.9305 45.8155 22.684C45.9655 21.5788 45.0311 20.6449 43.9264 20.7941C42.6796 20.9625 41.5379 21.346 40.4176 21.9519C39.5395 21.0835 38.5882 20.3799 37.4987 19.8222Z" fill="#FF5050"/>
</g>
<defs>
<filter id="filter0_d_4_2477" x="0.0501249" y="0" width="66.5595" height="67.4049" filterUnits="userSpaceOnUse" color-interpolation-filters="sRGB">
<feFlood flood-opacity="0" result="BackgroundImageFix"/>
<feColorMatrix in="SourceAlpha" type="matrix" values="0 0 0 0 0 0 0 0 0 0 0 0 0 0 0 0 0 0 127 0" result="hardAlpha"/>
<feOffset dx="-3.39756" dy="4.24268"/>
<feGaussianBlur stdDeviation="1.27616"/>
<feComposite in2="hardAlpha" operator="out"/>
<feColorMatrix type="matrix" values="0 0 0 0 0 0 0 0 0 0 0 0 0 0 0 0 0 0 0.04 0"/>
<feBlend mode="normal" in2="BackgroundImageFix" result="effect1_dropShadow_4_2477"/>
<feBlend mode="normal" in="SourceGraphic" in2="effect1_dropShadow_4_2477" result="shape"/>
</filter>
</defs>
</svg>
