<svg width="67" height="68" viewBox="0 0 67 68" fill="none" xmlns="http://www.w3.org/2000/svg">
<g filter="url(#filter0_d_4_2468)">
<rect x="6" width="60.6097" height="60.6097" rx="17.0731" fill="white"/>
<path fill-rule="evenodd" clip-rule="evenodd" d="M36.7295 17.0732C33.8102 17.0732 31.4501 17.1594 29.0067 17.3254C27.7551 17.4091 26.577 17.9381 25.6921 18.8137C24.8072 19.6894 24.2757 20.852 24.1968 22.0849C24.0149 24.9637 23.9245 27.8474 23.9258 30.7318C23.9258 33.6946 24.0197 36.586 24.1968 39.3787C24.2757 40.6116 24.8072 41.7741 25.6921 42.6498C26.577 43.5254 27.7551 44.0544 29.0067 44.1381C31.4501 44.3041 33.8081 44.3903 36.7295 44.3903C39.6487 44.3903 42.0088 44.3041 44.4522 44.1381C45.7039 44.0544 46.8819 43.5254 47.7668 42.6498C48.6518 41.7741 49.1832 40.6116 49.2621 39.3787C49.52 35.3144 49.5955 31.2409 49.4883 27.17C49.4639 26.1354 49.1184 25.133 48.4982 24.2975C46.5691 21.7108 45.007 20.0718 42.4548 18.1323C41.5942 17.4829 40.545 17.1221 39.4609 17.1027C38.5506 17.083 37.64 17.0732 36.7295 17.0732Z" fill="#FFEB69"/>
<path fill-rule="evenodd" clip-rule="evenodd" d="M35.0565 26.1666C35.1698 26.0797 35.2644 25.9709 35.3348 25.8467C35.4053 25.7225 35.45 25.5854 35.4665 25.4436C35.483 25.3018 35.4709 25.1581 35.4308 25.021C35.3908 24.884 35.3236 24.7564 35.2333 24.6458C35.1431 24.5351 35.0315 24.4438 34.9053 24.3771C34.779 24.3103 34.6407 24.2696 34.4985 24.2574C34.3562 24.2451 34.2129 24.2615 34.0772 24.3056C33.9414 24.3497 33.8158 24.4206 33.7079 24.5141C32.9687 25.1184 32.3883 25.6818 31.8933 26.3783C31.6573 26.7129 31.4462 27.0644 31.2616 27.4299L30.7888 26.9928C30.5794 26.8142 30.3092 26.7234 30.0345 26.7393C29.7597 26.7552 29.5018 26.8767 29.3145 27.0783C29.1272 27.2799 29.0251 27.5461 29.0294 27.8212C29.0337 28.0964 29.1442 28.3592 29.3377 28.5548L30.9066 30.0161C31.0343 30.135 31.1892 30.2207 31.3578 30.2657C31.5264 30.3108 31.7034 30.3138 31.8734 30.2746C32.0434 30.2353 32.2012 30.155 32.3329 30.0406C32.4647 29.9261 32.5663 29.7812 32.629 29.6184C32.9824 28.7016 33.2828 28.1042 33.6311 27.6142C33.9759 27.1294 34.3993 26.7026 35.0565 26.1666ZM35.0565 33.0547C35.1698 32.9678 35.2644 32.859 35.3348 32.7348C35.4053 32.6106 35.45 32.4735 35.4665 32.3317C35.483 32.1899 35.4709 32.0462 35.4308 31.9092C35.3908 31.7721 35.3236 31.6445 35.2333 31.5339C35.1431 31.4233 35.0315 31.3319 34.9053 31.2652C34.779 31.1985 34.6407 31.1578 34.4985 31.1455C34.3562 31.1332 34.2129 31.1496 34.0772 31.1937C33.9414 31.2378 33.8158 31.3088 33.7079 31.4023C32.9687 32.0066 32.3883 32.5699 31.8933 33.2681C31.6574 33.6022 31.4463 33.9531 31.2616 34.318L30.7905 33.881C30.6893 33.7787 30.5684 33.6979 30.4352 33.6435C30.302 33.5892 30.1591 33.5623 30.0152 33.5646C29.8714 33.5668 29.7294 33.5982 29.598 33.6567C29.4665 33.7153 29.3483 33.7998 29.2503 33.9052C29.1524 34.0106 29.0768 34.1348 29.0281 34.2702C28.9794 34.4056 28.9585 34.5494 28.9669 34.6931C28.9752 34.8368 29.0125 34.9772 29.0765 35.1061C29.1406 35.235 29.23 35.3496 29.3394 35.443L30.9083 36.9042C31.036 37.0231 31.1909 37.1088 31.3595 37.1539C31.5281 37.1989 31.7051 37.202 31.8751 37.1627C32.0451 37.1234 32.2029 37.0431 32.3346 36.9287C32.4664 36.8143 32.568 36.6693 32.6307 36.5065C32.9841 35.5898 33.2845 34.994 33.6328 34.5041C33.9776 34.0175 34.401 33.5908 35.0582 33.053L35.0565 33.0547ZM37.4942 28.1417C37.4942 27.5528 37.9722 27.0748 38.5612 27.0748H42.8289C43.1119 27.0748 43.3833 27.1872 43.5834 27.3873C43.7835 27.5874 43.8959 27.8587 43.8959 28.1417C43.8959 28.4247 43.7835 28.6961 43.5834 28.8962C43.3833 29.0962 43.1119 29.2087 42.8289 29.2087H38.5612C38.2782 29.2087 38.0068 29.0962 37.8067 28.8962C37.6067 28.6961 37.4942 28.4247 37.4942 28.1417ZM38.5612 34.3385C38.2782 34.3385 38.0068 34.4509 37.8067 34.651C37.6067 34.8511 37.4942 35.1224 37.4942 35.4054C37.4942 35.6884 37.6067 35.9598 37.8067 36.1599C38.0068 36.3599 38.2782 36.4723 38.5612 36.4723H42.8289C43.1119 36.4723 43.3833 36.3599 43.5834 36.1599C43.7835 35.9598 43.8959 35.6884 43.8959 35.4054C43.8959 35.1224 43.7835 34.8511 43.5834 34.651C43.3833 34.4509 43.1119 34.3385 42.8289 34.3385H38.5612Z" fill="#003756"/>
</g>
<defs>
<filter id="filter0_d_4_2468" x="0.0501249" y="0" width="66.5595" height="67.4049" filterUnits="userSpaceOnUse" color-interpolation-filters="sRGB">
<feFlood flood-opacity="0" result="BackgroundImageFix"/>
<feColorMatrix in="SourceAlpha" type="matrix" values="0 0 0 0 0 0 0 0 0 0 0 0 0 0 0 0 0 0 127 0" result="hardAlpha"/>
<feOffset dx="-3.39756" dy="4.24268"/>
<feGaussianBlur stdDeviation="1.27616"/>
<feComposite in2="hardAlpha" operator="out"/>
<feColorMatrix type="matrix" values="0 0 0 0 0 0 0 0 0 0 0 0 0 0 0 0 0 0 0.04 0"/>
<feBlend mode="normal" in2="BackgroundImageFix" result="effect1_dropShadow_4_2468"/>
<feBlend mode="normal" in="SourceGraphic" in2="effect1_dropShadow_4_2468" result="shape"/>
</filter>
</defs>
</svg>
