<svg width="67" height="68" viewBox="0 0 67 68" fill="none" xmlns="http://www.w3.org/2000/svg">
<g filter="url(#filter0_d_4_2472)">
<rect x="6" width="60.6097" height="60.6097" rx="17.0731" fill="white"/>
<path fill-rule="evenodd" clip-rule="evenodd" d="M29.746 27.4346C29.819 27.5951 29.9366 27.7312 30.0849 27.8266C30.2331 27.9221 30.4057 27.9729 30.582 27.9729H42.7493C42.9257 27.9729 43.0982 27.9221 43.2465 27.8266C43.3947 27.7312 43.5124 27.5951 43.5854 27.4346C45.1472 29.2463 45.9924 31.8554 45.9924 35.2472C45.9924 37.8619 44.9083 39.9143 43.1187 41.2739C41.3768 42.6006 39.0672 43.194 36.6657 43.194C34.2642 43.194 31.9564 42.6006 30.2127 41.2739C28.4231 39.9143 27.3408 37.8619 27.3408 35.2472C27.3408 31.8554 28.1824 29.2463 29.746 27.4346Z" fill="#9EFAFF"/>
<path fill-rule="evenodd" clip-rule="evenodd" d="M29.7464 27.4346C29.8193 27.5951 29.937 27.7312 30.0852 27.8266C30.2335 27.9221 30.4061 27.9729 30.5824 27.9729H42.7497C42.926 27.9729 43.0986 27.9221 43.2469 27.8266C43.3951 27.7312 43.5127 27.5951 43.5857 27.4346C45.1475 29.2463 45.9927 31.8554 45.9927 35.2472C45.9927 35.6294 45.9689 36.0006 45.9229 36.3589L45.9156 36.3662C45.8201 36.4494 45.7084 36.5119 45.5877 36.5498C45.4669 36.5877 45.3396 36.6003 45.2137 36.5867C42.1287 36.256 39.3523 34.7199 37.5278 32.5995C37.1031 32.9751 36.649 33.3161 36.1699 33.6193C33.7051 35.1706 30.7509 35.7483 27.8832 35.2399C27.6722 35.2021 27.481 35.0916 27.343 34.9275C27.3945 31.6919 28.2323 29.1893 29.7464 27.4346Z" fill="#09364F"/>
<path fill-rule="evenodd" clip-rule="evenodd" d="M37.3159 18.1976C37.2305 18.1121 37.1292 18.0442 37.0175 17.9979C36.9059 17.9516 36.7863 17.9277 36.6654 17.9277C36.5446 17.9277 36.4249 17.9516 36.3133 17.9979C36.2017 18.0442 36.1003 18.1121 36.015 18.1976L32.7205 21.494L29.5363 19.5812C29.3818 19.4884 29.2035 19.443 29.0235 19.4508C28.8435 19.4585 28.6697 19.519 28.5238 19.6248C28.3779 19.7305 28.2664 19.8768 28.203 20.0455C28.1396 20.2142 28.1272 20.3978 28.1674 20.5734L29.6888 27.2579C29.7346 27.4611 29.8481 27.6427 30.0107 27.7729C30.1733 27.9031 30.3753 27.9742 30.5836 27.9745H42.7509C42.9595 27.9746 43.162 27.9037 43.3249 27.7735C43.4879 27.6432 43.6017 27.4614 43.6476 27.2579L45.1671 20.5734C45.2073 20.3978 45.1949 20.2142 45.1315 20.0455C45.0682 19.8768 44.9566 19.7305 44.8107 19.6248C44.6648 19.519 44.491 19.4585 44.311 19.4508C44.131 19.443 43.9527 19.4884 43.7983 19.5812L40.6122 21.4921L37.3159 18.1995V18.1976Z" fill="#9EFAFF"/>
</g>
<defs>
<filter id="filter0_d_4_2472" x="0.0501249" y="0" width="66.5595" height="67.4049" filterUnits="userSpaceOnUse" color-interpolation-filters="sRGB">
<feFlood flood-opacity="0" result="BackgroundImageFix"/>
<feColorMatrix in="SourceAlpha" type="matrix" values="0 0 0 0 0 0 0 0 0 0 0 0 0 0 0 0 0 0 127 0" result="hardAlpha"/>
<feOffset dx="-3.39756" dy="4.24268"/>
<feGaussianBlur stdDeviation="1.27616"/>
<feComposite in2="hardAlpha" operator="out"/>
<feColorMatrix type="matrix" values="0 0 0 0 0 0 0 0 0 0 0 0 0 0 0 0 0 0 0.04 0"/>
<feBlend mode="normal" in2="BackgroundImageFix" result="effect1_dropShadow_4_2472"/>
<feBlend mode="normal" in="SourceGraphic" in2="effect1_dropShadow_4_2472" result="shape"/>
</filter>
</defs>
</svg>
