<svg width="67" height="68" viewBox="0 0 67 68" fill="none" xmlns="http://www.w3.org/2000/svg">
<g filter="url(#filter0_d_4_2481)">
<rect x="6" width="60.6097" height="60.6097" rx="17.0731" fill="white"/>
<path fill-rule="evenodd" clip-rule="evenodd" d="M36.5194 22.8218C35.4551 22.8218 33.2319 22.8961 30.7686 23.1471C29.6036 23.2607 28.5153 23.7792 27.6931 24.6122C26.8708 25.4452 26.3665 26.5402 26.2681 27.7065C26.1449 29.1349 26.0762 30.5675 26.062 32.0011C26.062 32.7695 26.11 34.4489 26.2681 36.2956C26.3672 37.4614 26.8718 38.5556 27.694 39.388C28.5162 40.2204 29.6041 40.7384 30.7686 40.8519C33.2319 41.1044 35.4551 41.1788 36.5194 41.1788C37.5837 41.1788 39.8069 41.1044 42.2702 40.8534C43.435 40.7399 44.5231 40.2217 45.3453 39.3889C46.1676 38.5562 46.672 37.4617 46.7708 36.2956C46.8939 34.8672 46.9627 33.4347 46.9768 32.0011C46.9768 31.2326 46.9288 29.5517 46.7708 27.7034C46.6716 26.5376 46.1671 25.4434 45.3448 24.611C44.5226 23.7786 43.4347 23.2606 42.2702 23.1471C40.3593 22.95 38.4403 22.8414 36.5194 22.8218Z" fill="#9EFAFF"/>
<path fill-rule="evenodd" clip-rule="evenodd" d="M30.3264 23.212V21.1639C30.3264 20.8557 30.4488 20.5602 30.6667 20.3423C30.8846 20.1244 31.1802 20.002 31.4883 20.002C31.7965 20.002 32.092 20.1244 32.3099 20.3423C32.5278 20.5602 32.6503 20.8557 32.6503 21.1639V22.9843C33.9376 22.8866 35.2278 22.8323 36.5187 22.8216C37.3011 22.8216 38.7078 22.8619 40.3764 22.9827V21.1639C40.3764 20.8557 40.4988 20.5602 40.7167 20.3423C40.9346 20.1244 41.2301 20.002 41.5383 20.002C41.8464 20.002 42.142 20.1244 42.3599 20.3423C42.5778 20.5602 42.7002 20.8557 42.7002 21.1639V23.2089C43.7418 23.4019 44.6951 23.9208 45.4227 24.6907C46.1503 25.4606 46.6145 26.4418 46.7484 27.4926H26.2891C26.423 26.4438 26.8859 25.4645 27.6113 24.6954C28.3367 23.9263 29.2873 23.4069 30.3264 23.212Z" fill="#003C5E"/>
</g>
<defs>
<filter id="filter0_d_4_2481" x="0.0501249" y="0" width="66.5595" height="67.4049" filterUnits="userSpaceOnUse" color-interpolation-filters="sRGB">
<feFlood flood-opacity="0" result="BackgroundImageFix"/>
<feColorMatrix in="SourceAlpha" type="matrix" values="0 0 0 0 0 0 0 0 0 0 0 0 0 0 0 0 0 0 127 0" result="hardAlpha"/>
<feOffset dx="-3.39756" dy="4.24268"/>
<feGaussianBlur stdDeviation="1.27616"/>
<feComposite in2="hardAlpha" operator="out"/>
<feColorMatrix type="matrix" values="0 0 0 0 0 0 0 0 0 0 0 0 0 0 0 0 0 0 0.04 0"/>
<feBlend mode="normal" in2="BackgroundImageFix" result="effect1_dropShadow_4_2481"/>
<feBlend mode="normal" in="SourceGraphic" in2="effect1_dropShadow_4_2481" result="shape"/>
</filter>
</defs>
</svg>
