<svg width="83" height="85" viewBox="0 0 83 85" fill="none" xmlns="http://www.w3.org/2000/svg">
<g filter="url(#filter0_d_4_2113)">
<g clip-path="url(#clip0_4_2113)">
<rect x="8" y="0.868164" width="74.6277" height="74.6277" rx="21.5843" fill="white"/>
<path fill-rule="evenodd" clip-rule="evenodd" d="M44.4363 22.8486C38.6809 23.3783 34.8679 27.4863 34.8679 33.6412C34.8679 38.1779 35.9723 39.9267 37.374 42.146C37.4875 42.3257 37.6033 42.5091 37.7205 42.6969C38.58 44.0758 38.8262 47.3583 38.8215 48.9792L38.82 49.4445C38.8193 49.6827 38.8187 49.8052 38.8187 50.1328L48.7581 52.0011C50.07 52.2477 51.2889 51.2563 51.3149 49.9217L51.3822 46.457C51.4959 45.5438 52.3176 44.9294 53.2455 44.9294H54.2895C55.9896 44.9294 57.3678 43.5487 57.3678 41.8454V39.0144C58.1341 38.9158 59.312 38.8163 59.6477 38.066C60.2492 37.2159 59.1166 35.915 58.0291 34.3193C56.9415 32.7236 56.9028 31.8712 56.7683 30.9136C56.0334 25.6805 51.7728 23.2066 47.0015 22.8389L44.4363 22.8486Z" fill="#09364F"/>
<path d="M45.5842 42.3911C46.1071 41.8682 46.1071 41.0205 45.5842 40.4977L41.6255 36.5389C41.4288 36.3422 41.4288 36.0233 41.6255 35.8266C41.8034 35.6488 42.0851 35.6294 42.2857 35.7812L46.482 38.9576C47.0153 39.3613 47.7691 39.2883 48.2151 38.7899C48.6699 38.2817 48.6495 37.5052 48.1461 37.0451C46.1779 35.2459 43.9012 33.6063 42.0309 31.7447C41.9141 31.6285 42.025 31.4372 42.1848 31.4772C44.0794 31.9518 46.4035 32.4359 46.8933 31.2275C47.4321 29.8983 43.9354 29.1378 41.8858 28.1844C39.8363 27.231 38.2725 26.5925 35.939 28.0522C33.6055 29.512 32.6101 31.4151 32.0204 32.8157C31.2833 34.5665 32.735 36.7457 33.9329 38.128C36.034 40.5524 37.3793 42.0494 39.7513 44.7049C40.2375 45.2491 41.0822 45.2741 41.5982 44.7581C42.0358 44.3205 42.0943 43.6311 41.7365 43.126L38.9302 39.1645C38.7763 38.9472 38.8014 38.6507 38.9896 38.4625C39.203 38.2491 39.5489 38.2491 39.7622 38.4624L43.6908 42.3911C44.2137 42.9139 45.0614 42.9139 45.5842 42.3911Z" fill="#FF5050"/>
<g filter="url(#filter1_d_4_2113)">
<rect x="9.86523" y="1.43262" width="74.6277" height="74.6277" rx="21.5843" fill="white"/>
<path d="M66.4566 26.1571C69.2536 27.3495 72.1366 31.9753 71.266 36.1289" stroke="#CDD9D6" stroke-width="3.23765" stroke-linecap="round"/>
<path d="M53.2005 29.2881C53.3427 31.2346 52.4678 31.5824 51.6679 31.8894C48.2586 33.1144 45.5867 33.7717 43.3178 34.6425C40.4818 35.7309 36.8555 36.479 35.498 38.9854C34.1406 41.4918 38.0784 47.9426 43.1627 44.1107C48.3279 41.8413 50.1937 38.6535 53.9506 36.733C55.9516 35.71 58.8232 36.0896 60.0288 35.0949C61.2343 34.1002 60.5878 30.7673 58.553 25.7916C56.5182 20.8159 55.4616 20.3454 54.2783 21.175C53.0949 22.0046 52.7894 23.6615 53.2005 29.2881Z" fill="#FEDC64"/>
<path d="M59.4759 42.0108C58.3467 43.6027 57.4505 43.3141 56.6381 43.0417C53.2288 41.8168 50.7495 40.6233 48.4454 39.851C45.5651 38.8855 39.0407 34.8319 35.033 38.8396C34.1905 39.6821 25.6879 48.5066 21.9411 52.3968C21.281 53.0822 21.7693 54.2217 22.7209 54.2217L35.359 54.2217C35.808 54.2217 36.2527 54.1288 36.6216 53.8729C37.6769 53.141 39.9806 51.088 41.9552 46.182C47.079 49.5758 51.1961 47.3209 55.3161 48.2305C57.5107 48.715 59.484 50.8354 61.047 50.8354C62.6099 50.8354 64.2324 47.8533 65.8296 42.7204C67.4269 37.5875 66.4194 36.6924 65.4707 36.4389C64.5219 36.1853 62.7398 37.4091 59.4759 42.0108Z" fill="#09364F"/>
</g>
</g>
</g>
<defs>
<filter id="filter0_d_4_2113" x="0.47801" y="0.868164" width="82.1497" height="83.2183" filterUnits="userSpaceOnUse" color-interpolation-filters="sRGB">
<feFlood flood-opacity="0" result="BackgroundImageFix"/>
<feColorMatrix in="SourceAlpha" type="matrix" values="0 0 0 0 0 0 0 0 0 0 0 0 0 0 0 0 0 0 127 0" result="hardAlpha"/>
<feOffset dx="-4.29528" dy="5.3637"/>
<feGaussianBlur stdDeviation="1.61335"/>
<feComposite in2="hardAlpha" operator="out"/>
<feColorMatrix type="matrix" values="0 0 0 0 0 0 0 0 0 0 0 0 0 0 0 0 0 0 0.04 0"/>
<feBlend mode="normal" in2="BackgroundImageFix" result="effect1_dropShadow_4_2113"/>
<feBlend mode="normal" in="SourceGraphic" in2="effect1_dropShadow_4_2113" result="shape"/>
</filter>
<filter id="filter1_d_4_2113" x="2.34324" y="1.43262" width="82.1497" height="83.2183" filterUnits="userSpaceOnUse" color-interpolation-filters="sRGB">
<feFlood flood-opacity="0" result="BackgroundImageFix"/>
<feColorMatrix in="SourceAlpha" type="matrix" values="0 0 0 0 0 0 0 0 0 0 0 0 0 0 0 0 0 0 127 0" result="hardAlpha"/>
<feOffset dx="-4.29528" dy="5.3637"/>
<feGaussianBlur stdDeviation="1.61335"/>
<feComposite in2="hardAlpha" operator="out"/>
<feColorMatrix type="matrix" values="0 0 0 0 0 0 0 0 0 0 0 0 0 0 0 0 0 0 0.04 0"/>
<feBlend mode="normal" in2="BackgroundImageFix" result="effect1_dropShadow_4_2113"/>
<feBlend mode="normal" in="SourceGraphic" in2="effect1_dropShadow_4_2113" result="shape"/>
</filter>
<clipPath id="clip0_4_2113">
<rect x="8" y="0.868164" width="74.6277" height="74.6277" rx="21.5843" fill="white"/>
</clipPath>
</defs>
</svg>
