<svg width="83" height="84" viewBox="0 0 83 84" fill="none" xmlns="http://www.w3.org/2000/svg">
<g filter="url(#filter0_d_4_2122)">
<rect x="8.12451" y="0.700195" width="74.6277" height="74.6277" rx="21.5843" fill="white"/>
<path d="M30.7832 45.6276C34.922 55.1474 57.3936 56.8979 62.0896 44.8447" stroke="#CDD9D6" stroke-width="3.23765" stroke-linecap="round"/>
<path d="M50.1419 24.6953H41.5118C39.7237 24.6953 38.2742 26.1448 38.2742 27.9329L38.2741 30.381C36.244 35.3693 35.452 38.9865 35.5787 43.1042C35.737 48.2512 44.2347 49.4132 49.6193 49.1756C55.0039 48.9381 55.0425 46.6139 55.0425 43.7633C58.2147 43.481 58.9363 41.1787 58.3623 37.5279C57.8115 34.0243 55.558 31.8208 53.3796 30.2464V27.933C53.3796 26.1449 51.93 24.6953 50.1419 24.6953Z" fill="#F9CDFF"/>
</g>
<defs>
<filter id="filter0_d_4_2122" x="0.602521" y="0.700195" width="82.1497" height="83.2183" filterUnits="userSpaceOnUse" color-interpolation-filters="sRGB">
<feFlood flood-opacity="0" result="BackgroundImageFix"/>
<feColorMatrix in="SourceAlpha" type="matrix" values="0 0 0 0 0 0 0 0 0 0 0 0 0 0 0 0 0 0 127 0" result="hardAlpha"/>
<feOffset dx="-4.29528" dy="5.3637"/>
<feGaussianBlur stdDeviation="1.61335"/>
<feComposite in2="hardAlpha" operator="out"/>
<feColorMatrix type="matrix" values="0 0 0 0 0 0 0 0 0 0 0 0 0 0 0 0 0 0 0.04 0"/>
<feBlend mode="normal" in2="BackgroundImageFix" result="effect1_dropShadow_4_2122"/>
<feBlend mode="normal" in="SourceGraphic" in2="effect1_dropShadow_4_2122" result="shape"/>
</filter>
</defs>
</svg>
