<svg width="83" height="84" viewBox="0 0 83 84" fill="none" xmlns="http://www.w3.org/2000/svg">
<g filter="url(#filter0_d_4_2128)">
<rect x="8" y="0.481934" width="74.6277" height="74.6277" rx="21.5843" fill="white"/>
<path fill-rule="evenodd" clip-rule="evenodd" d="M44.4361 22.4629C38.6807 22.9926 34.8677 27.1005 34.8677 33.2554C34.8677 37.7921 35.9721 39.5409 37.3738 41.7603C37.4873 41.9399 37.603 42.1233 37.7202 42.3112C38.5797 43.69 38.8259 46.9726 38.8213 48.5934L38.8198 49.0587C38.819 49.297 38.8185 49.4195 38.8185 49.7471L48.7579 51.6154C50.0697 51.8619 51.2887 50.8706 51.3146 49.536L51.3819 46.0712C51.4956 45.1581 52.3173 44.5437 53.2453 44.5437H54.2893C55.9894 44.5437 57.3675 43.1629 57.3675 41.4596V38.6287C58.1338 38.53 59.3117 38.4305 59.6475 37.6802C60.249 36.8302 59.1164 35.5292 58.0288 33.9335C56.9413 32.3378 56.9025 31.4855 56.7681 30.5279C56.0331 25.2948 51.7725 22.8208 47.0013 22.4531L44.4361 22.4629Z" fill="#09364F"/>
<path d="M45.5842 42.0053C46.1071 41.4825 46.1071 40.6348 45.5842 40.1119L41.6255 36.1532C41.4288 35.9565 41.4288 35.6376 41.6255 35.4409C41.8034 35.263 42.0851 35.2436 42.2857 35.3954L46.482 38.5718C47.0153 38.9755 47.7691 38.9026 48.2151 38.4042C48.6699 37.8959 48.6495 37.1195 48.1461 36.6593C46.1779 34.8601 43.9012 33.2205 42.0309 31.359C41.9141 31.2428 42.025 31.0515 42.1848 31.0915C44.0794 31.5661 46.4035 32.0501 46.8933 30.8418C47.4321 29.5126 43.9354 28.752 41.8858 27.7987C39.8363 26.8453 38.2725 26.2067 35.939 27.6665C33.6055 29.1263 32.6101 31.0294 32.0204 32.43C31.2833 34.1807 32.735 36.36 33.9329 37.7422C36.034 40.1667 37.3793 41.6637 39.7513 44.3191C40.2375 44.8634 41.0822 44.8884 41.5982 44.3724C42.0358 43.9347 42.0943 43.2453 41.7365 42.7403L38.9302 38.7787C38.7763 38.5615 38.8014 38.265 38.9896 38.0767C39.203 37.8634 39.5489 37.8634 39.7622 38.0767L43.6908 42.0053C44.2137 42.5282 45.0614 42.5282 45.5842 42.0053Z" fill="#FF5050"/>
</g>
<defs>
<filter id="filter0_d_4_2128" x="0.47801" y="0.481934" width="82.1497" height="83.2183" filterUnits="userSpaceOnUse" color-interpolation-filters="sRGB">
<feFlood flood-opacity="0" result="BackgroundImageFix"/>
<feColorMatrix in="SourceAlpha" type="matrix" values="0 0 0 0 0 0 0 0 0 0 0 0 0 0 0 0 0 0 127 0" result="hardAlpha"/>
<feOffset dx="-4.29528" dy="5.3637"/>
<feGaussianBlur stdDeviation="1.61335"/>
<feComposite in2="hardAlpha" operator="out"/>
<feColorMatrix type="matrix" values="0 0 0 0 0 0 0 0 0 0 0 0 0 0 0 0 0 0 0.04 0"/>
<feBlend mode="normal" in2="BackgroundImageFix" result="effect1_dropShadow_4_2128"/>
<feBlend mode="normal" in="SourceGraphic" in2="effect1_dropShadow_4_2128" result="shape"/>
</filter>
</defs>
</svg>
