<svg width="16" height="16" viewBox="0 0 16 16" fill="none" xmlns="http://www.w3.org/2000/svg">
<rect width="16" height="16" rx="2.74809" fill="#003756"/>
<path fill-rule="evenodd" clip-rule="evenodd" d="M9.67186 9.2105C9.60273 9.81569 9.41729 10.4092 9.06647 10.9148C8.23734 12.1097 6.80924 12.5086 5.39833 12.0735C4.00587 11.644 2.65546 10.4284 1.70337 8.45857L3.00576 7.82908C3.83492 9.54458 4.91684 10.4112 5.82465 10.6912C6.71401 10.9655 7.45412 10.701 7.87801 10.0901C7.95358 9.98122 8.01853 9.85816 8.07226 9.72258C7.99066 9.72705 7.90902 9.72848 7.82743 9.72696C6.88882 9.70941 6.02957 9.30207 5.38293 8.74086C4.74066 8.18344 4.24758 7.42142 4.10379 6.61258C3.95362 5.76785 4.19514 4.87901 5.00531 4.25813C5.38444 3.96759 5.80031 3.79514 6.23773 3.76179C6.67395 3.72854 7.08136 3.83742 7.43914 4.02915C8.13493 4.40203 8.67592 5.10162 9.04529 5.85211C9.27924 6.32746 9.46071 6.85561 9.57342 7.39823C10.2233 6.70289 10.9301 6.28936 11.5283 6.05702C11.8374 5.93698 12.1219 5.86358 12.3605 5.82506C12.5697 5.7913 12.8223 5.77095 13.0327 5.81952L12.7075 7.22901C12.7326 7.23481 12.746 7.23684 12.746 7.23684C12.7459 7.2379 12.6984 7.23579 12.591 7.25311C12.4559 7.27493 12.2696 7.32096 12.052 7.40545C11.6186 7.57374 11.0784 7.88784 10.5773 8.44362C10.2917 8.76038 9.98764 9.01456 9.67186 9.2105ZM8.24004 8.24783C8.18576 7.64273 8.00849 7.02133 7.74742 6.49088C7.44988 5.88633 7.08436 5.48019 6.75586 5.30414C6.60149 5.22141 6.4673 5.19503 6.3477 5.20415C6.22929 5.21318 6.07512 5.26075 5.88521 5.40629C5.55729 5.65759 5.46008 5.9773 5.528 6.3594C5.60231 6.7774 5.88414 7.2605 6.33107 7.64839C6.77363 8.03247 7.31786 8.27064 7.85448 8.28067C7.9796 8.28301 8.10852 8.27311 8.24004 8.24783Z" fill="#FF5050"/>
<path fill-rule="evenodd" clip-rule="evenodd" d="M11.7898 6.43883C11.0967 6.22065 10.5775 5.77404 10.1455 5.28575L11.2496 4.30899C11.5955 4.69999 11.9001 4.92811 12.2324 5.0327C12.5569 5.13484 13.0058 5.14942 13.6962 4.91908L14.2966 6.25739C13.7857 6.55087 13.5031 7.02885 13.3694 7.52332C13.3026 7.77005 13.2775 8.00695 13.2787 8.19953C13.2799 8.39377 13.3071 8.4926 13.3104 8.50472C13.3107 8.50575 13.3107 8.50594 13.3107 8.50594L11.9537 9.0818C11.8465 8.82926 11.8064 8.50989 11.8046 8.20842C11.8027 7.88882 11.8434 7.51914 11.9463 7.13849C12 6.9401 12.0718 6.73493 12.1653 6.53044C12.0376 6.50797 11.9125 6.47745 11.7898 6.43883Z" fill="#FF5050"/>
</svg>
