<svg width="300" height="60" viewBox="0 0 300 60" fill="none" xmlns="http://www.w3.org/2000/svg">
<path fill-rule="evenodd" clip-rule="evenodd" d="M66.3655 36.0468C66.0413 38.8847 65.1718 41.6677 63.5267 44.0384C59.6388 49.6416 52.9422 51.5122 46.3263 49.4718C39.7968 47.458 33.4645 41.7578 29 32.5209L35.1071 29.5692C38.9952 37.6134 44.0685 41.6771 48.3253 42.99C52.4957 44.2761 55.9662 43.0361 57.9539 40.1715C58.3082 39.6609 58.6128 39.0838 58.8647 38.4481C58.4821 38.469 58.0993 38.4758 57.7167 38.4686C53.3154 38.3863 49.2862 36.4763 46.254 33.8446C43.2423 31.2308 40.9302 27.6576 40.256 23.8648C39.5518 19.9037 40.6843 15.7358 44.4833 12.8244C46.2611 11.462 48.2112 10.6534 50.2623 10.497C52.3079 10.3411 54.2183 10.8516 55.8959 11.7507C59.1586 13.4992 61.6954 16.7797 63.4274 20.2988C64.5244 22.5278 65.3754 25.0044 65.9039 27.5488C68.9511 24.2883 72.2654 22.3492 75.0708 21.2597C76.5203 20.6968 77.8542 20.3526 78.973 20.172C79.9539 20.0137 81.1383 19.9183 82.1251 20.146L80.5999 26.7554C80.7176 26.7825 80.7806 26.792 80.7806 26.792C80.7802 26.797 80.5573 26.7871 80.054 26.8684C79.4204 26.9706 78.5465 27.1865 77.5263 27.5827C75.4942 28.3718 72.9611 29.8447 70.6113 32.4508C69.2721 33.9361 67.8462 35.1281 66.3655 36.0468ZM59.6515 31.5327C59.397 28.6954 58.5657 25.7815 57.3415 23.2941C55.9463 20.4593 54.2323 18.5548 52.6919 17.7293C51.968 17.3414 51.3388 17.2177 50.778 17.2604C50.2228 17.3028 49.4998 17.5258 48.6093 18.2083C47.0716 19.3867 46.6158 20.8859 46.9343 22.6776C47.2827 24.6377 48.6043 26.903 50.7 28.7219C52.7752 30.5229 55.3272 31.6397 57.8435 31.6867C58.4302 31.6977 59.0348 31.6513 59.6515 31.5327Z" fill="#FF5050"/>
<path fill-rule="evenodd" clip-rule="evenodd" d="M76.2969 23.05C73.0466 22.027 70.6121 19.9327 68.5865 17.6431L73.7638 13.0629C75.3858 14.8964 76.8142 15.9661 78.3723 16.4565C79.894 16.9354 81.999 17.0038 85.2365 15.9237L88.0518 22.1993C85.656 23.5754 84.3307 25.8167 83.7037 28.1354C83.3908 29.2923 83.2731 30.4032 83.2786 31.3063C83.2841 32.2171 83.4116 32.6805 83.4272 32.7373C83.4285 32.7422 83.4286 32.7431 83.4286 32.7431L77.0654 35.4434C76.5629 34.2592 76.3747 32.7616 76.3662 31.348C76.3572 29.8493 76.5482 28.1158 77.0309 26.3309C77.2825 25.4006 77.6191 24.4385 78.0574 23.4796C77.4588 23.3743 76.8723 23.2312 76.2969 23.05Z" fill="#FF5050"/>
<path d="M258.576 46.1066V15.827H265.319V46.1066H258.576ZM253.727 30.4159V24.6861H270.167V30.4159H253.727Z" fill="#175071"/>
<path d="M240.067 46.5908C238.098 46.5908 236.35 46.1941 234.822 45.4007C233.324 44.578 232.148 43.4614 231.296 42.051C230.444 40.6113 230.018 38.9658 230.018 37.1146V24.6855H236.762V37.0265C236.762 37.7611 236.879 38.3928 237.114 38.9217C237.379 39.4506 237.761 39.862 238.26 40.1558C238.76 40.4497 239.362 40.5966 240.067 40.5966C241.066 40.5966 241.86 40.288 242.447 39.671C243.035 39.0246 243.329 38.1431 243.329 37.0265V24.6855H250.072V37.0706C250.072 38.9511 249.646 40.6113 248.794 42.051C247.942 43.4614 246.767 44.578 245.268 45.4007C243.769 46.1941 242.036 46.5908 240.067 46.5908Z" fill="#175071"/>
<path d="M218.272 46.591C216.068 46.591 214.07 46.1062 212.277 45.1366C210.485 44.1669 209.075 42.83 208.046 41.1257C207.018 39.4215 206.504 37.5116 206.504 35.396C206.504 33.251 207.018 31.3411 208.046 29.6662C209.104 27.962 210.529 26.6251 212.322 25.6554C214.114 24.6858 216.127 24.2009 218.36 24.2009C220.035 24.2009 221.563 24.4948 222.944 25.0824C224.354 25.6407 225.603 26.4928 226.69 27.6388L222.371 31.9581C221.871 31.3998 221.283 30.9885 220.608 30.724C219.961 30.4596 219.212 30.3274 218.36 30.3274C217.39 30.3274 216.523 30.5477 215.759 30.9885C215.025 31.3998 214.437 31.9875 213.996 32.7515C213.585 33.4861 213.379 34.3529 213.379 35.3519C213.379 36.3509 213.585 37.2324 213.996 37.9964C214.437 38.7604 215.04 39.3627 215.803 39.8035C216.567 40.2442 217.42 40.4646 218.36 40.4646C219.241 40.4646 220.02 40.3177 220.696 40.0239C221.401 39.7006 222.003 39.2599 222.503 38.7016L226.778 43.021C225.662 44.1963 224.398 45.0925 222.988 45.7095C221.577 46.2972 220.005 46.591 218.272 46.591Z" fill="#175071"/>
<path d="M192.861 46.1066V15.827H199.605V46.1066H192.861ZM188.013 30.4159V24.6861H204.453V30.4159H188.013Z" fill="#175071"/>
<path d="M168.953 46.1061V24.6856H175.696V46.1061H168.953ZM175.696 34.3381L172.875 32.1343C173.434 29.6367 174.374 27.6974 175.696 26.3164C177.018 24.9354 178.855 24.2449 181.206 24.2449C182.234 24.2449 183.13 24.4065 183.894 24.7297C184.687 25.0235 185.378 25.4937 185.966 26.1401L181.955 31.2087C181.661 30.8855 181.294 30.6358 180.853 30.4595C180.412 30.2832 179.913 30.195 179.354 30.195C178.238 30.195 177.342 30.5476 176.666 31.2528C176.019 31.9286 175.696 32.957 175.696 34.3381Z" fill="#175071"/>
<path d="M153.871 46.591C151.668 46.591 149.67 46.1062 147.877 45.1366C146.114 44.1375 144.719 42.7859 143.69 41.0817C142.662 39.3774 142.147 37.4675 142.147 35.3519C142.147 33.2363 142.662 31.3411 143.69 29.6662C144.719 27.9914 146.114 26.6691 147.877 25.6995C149.64 24.7004 151.638 24.2009 153.871 24.2009C156.105 24.2009 158.103 24.6858 159.866 25.6554C161.629 26.6251 163.024 27.962 164.053 29.6662C165.081 31.3411 165.595 33.2363 165.595 35.3519C165.595 37.4675 165.081 39.3774 164.053 41.0817C163.024 42.7859 161.629 44.1375 159.866 45.1366C158.103 46.1062 156.105 46.591 153.871 46.591ZM153.871 40.4646C154.841 40.4646 155.693 40.2589 156.428 39.8476C157.162 39.4068 157.721 38.8045 158.103 38.0405C158.514 37.2471 158.72 36.3509 158.72 35.3519C158.72 34.3529 158.514 33.4861 158.103 32.7515C157.691 31.9875 157.118 31.3998 156.384 30.9885C155.678 30.5477 154.841 30.3274 153.871 30.3274C152.931 30.3274 152.094 30.5477 151.359 30.9885C150.625 31.3998 150.052 31.9875 149.64 32.7515C149.229 33.5154 149.023 34.3969 149.023 35.396C149.023 36.3656 149.229 37.2471 149.64 38.0405C150.052 38.8045 150.625 39.4068 151.359 39.8476C152.094 40.2589 152.931 40.4646 153.871 40.4646Z" fill="#175071"/>
<path d="M132.023 46.106V33.8972C132.023 32.7807 131.671 31.8845 130.966 31.2087C130.29 30.5035 129.423 30.1509 128.365 30.1509C127.631 30.1509 126.984 30.3125 126.426 30.6357C125.868 30.9295 125.427 31.3703 125.104 31.9579C124.78 32.5162 124.619 33.1626 124.619 33.8972L122.018 32.6191C122.018 30.9442 122.371 29.475 123.076 28.2116C123.781 26.9481 124.766 25.9784 126.029 25.3026C127.293 24.5974 128.747 24.2448 130.393 24.2448C132.068 24.2448 133.537 24.5974 134.8 25.3026C136.064 25.9784 137.033 26.9334 137.709 28.1675C138.414 29.3722 138.767 30.7826 138.767 32.3987V46.106H132.023ZM117.875 46.106V14.1075H124.619V46.106H117.875Z" fill="#175071"/>
<path d="M105.182 46.6348C103.919 46.6348 102.67 46.4732 101.436 46.15C100.231 45.8268 99.1001 45.3713 98.0423 44.7837C97.0139 44.1666 96.1324 43.4614 95.3978 42.6681L99.2324 38.7895C99.9376 39.5534 100.775 40.1558 101.745 40.5966C102.714 41.0079 103.772 41.2136 104.918 41.2136C105.711 41.2136 106.314 41.0961 106.725 40.861C107.166 40.6259 107.386 40.3027 107.386 39.8914C107.386 39.3625 107.122 38.9658 106.593 38.7013C106.093 38.4075 105.447 38.1577 104.654 37.9521C103.86 37.717 103.023 37.4672 102.141 37.2028C101.26 36.9383 100.422 36.571 99.629 36.1009C98.8357 35.6308 98.1892 34.9843 97.6897 34.1616C97.1902 33.3095 96.9405 32.237 96.9405 30.9441C96.9405 29.5631 97.2931 28.3731 97.9983 27.374C98.7035 26.3456 99.7025 25.5376 100.995 24.9499C102.288 24.3623 103.801 24.0684 105.535 24.0684C107.357 24.0684 109.032 24.3916 110.56 25.0381C112.117 25.6551 113.38 26.5807 114.35 27.8148L110.516 31.6934C109.84 30.9 109.076 30.3418 108.224 30.0185C107.401 29.6953 106.593 29.5337 105.8 29.5337C105.036 29.5337 104.463 29.6513 104.081 29.8863C103.699 30.092 103.508 30.4005 103.508 30.8119C103.508 31.2526 103.757 31.6052 104.257 31.8697C104.756 32.1341 105.403 32.3692 106.196 32.5749C106.99 32.7806 107.827 33.0303 108.708 33.3242C109.59 33.618 110.427 34.0147 111.221 34.5142C112.014 35.0137 112.661 35.6895 113.16 36.5417C113.66 37.3644 113.909 38.4516 113.909 39.8032C113.909 41.8894 113.116 43.5496 111.529 44.7837C109.972 46.0178 107.856 46.6348 105.182 46.6348Z" fill="#175071"/>
</svg>
