<svg width="78" height="79" viewBox="0 0 78 79" fill="none" xmlns="http://www.w3.org/2000/svg">
<g filter="url(#filter0_d_4_2807)">
<rect x="7" width="71" height="71" rx="20" fill="white"/>
<path d="M55.1649 29.7814C58.2729 21.2498 51.6257 18.5179 43.6972 20.999C41.756 26.707 37.6256 38.7705 38.0139 39.7688C38.4992 41.0167 36.8335 43.235 41.4795 45.2833C47.2142 47.8115 51.685 47.5074 52.6238 42.9478C53.5075 38.655 52.057 38.3131 55.1649 29.7814Z" fill="#003756"/>
<path fill-rule="evenodd" clip-rule="evenodd" d="M41.1648 20.9136C35.6892 21.4176 32.0615 25.3258 32.0615 31.1815C32.0615 35.4977 33.1123 37.1615 34.4458 39.2729C34.5538 39.4438 34.6639 39.6183 34.7754 39.797C35.5931 41.1089 35.8274 44.2318 35.8229 45.7739L35.8215 46.2166C35.8208 46.4433 35.8203 46.5598 35.8203 46.8715H47.6618L47.773 43.3743C47.8812 42.5055 48.6629 41.921 49.5458 41.921H50.539C52.1565 41.921 53.4676 40.6074 53.4676 38.9869V36.2936C54.1967 36.1997 55.3173 36.105 55.6368 35.3912C56.209 34.5825 55.1315 33.3448 54.0968 31.8266C53.0621 30.3085 53.0252 29.4976 52.8973 28.5865C52.1981 23.6078 48.1446 21.2541 43.6053 20.9043L41.1648 20.9136Z" fill="#F9CDFF"/>
<path d="M45.1332 31.4352C49.7724 25.9594 50.2891 24.1447 49.8902 22.6377C43.6844 19.6914 38.2733 19.1706 33.0164 24.5558C29.6594 27.9947 29.3714 31.4576 33.0913 37.3532C34.9924 40.3663 31.5171 42.2675 31.0258 45.5426C30.628 49.6714 33.539 52.1345 37.7935 52.6943C42.048 53.2541 47.6635 49.6618 44.854 45.8217C42.0446 41.9817 40.8518 36.4886 45.1332 31.4352Z" fill="#003756"/>
</g>
<defs>
<filter id="filter0_d_4_2807" x="0.0301373" y="0" width="77.9699" height="78.9599" filterUnits="userSpaceOnUse" color-interpolation-filters="sRGB">
<feFlood flood-opacity="0" result="BackgroundImageFix"/>
<feColorMatrix in="SourceAlpha" type="matrix" values="0 0 0 0 0 0 0 0 0 0 0 0 0 0 0 0 0 0 127 0" result="hardAlpha"/>
<feOffset dx="-3.98" dy="4.97"/>
<feGaussianBlur stdDeviation="1.49493"/>
<feComposite in2="hardAlpha" operator="out"/>
<feColorMatrix type="matrix" values="0 0 0 0 0 0 0 0 0 0 0 0 0 0 0 0 0 0 0.04 0"/>
<feBlend mode="normal" in2="BackgroundImageFix" result="effect1_dropShadow_4_2807"/>
<feBlend mode="normal" in="SourceGraphic" in2="effect1_dropShadow_4_2807" result="shape"/>
</filter>
</defs>
</svg>
