<svg width="78" height="79" viewBox="0 0 78 79" fill="none" xmlns="http://www.w3.org/2000/svg">
<g filter="url(#filter0_d_4_2822)">
<rect x="7" width="71" height="71" rx="20" fill="white"/>
<path fill-rule="evenodd" clip-rule="evenodd" d="M39.0392 20.9957C32.9244 21.5585 28.8733 25.9229 28.8733 32.4621C28.8733 37.2821 30.0467 39.1401 31.5359 41.498C31.6565 41.6889 31.7794 41.8837 31.904 42.0833C32.8171 43.5483 33.0787 47.0357 33.0737 48.7578L33.0721 49.2522C33.0714 49.5053 33.0708 49.6663 33.0708 50.0144H46.2945L46.4187 46.0781C46.5394 45.1079 47.4125 44.4552 48.3983 44.4552H49.5075C51.3138 44.4552 52.778 42.9882 52.778 41.1786V38.1709L54.5022 38.1279C54.7858 38.1277 55.0653 38.0598 55.3172 37.9301C55.5687 37.8001 55.7852 37.6122 55.9481 37.3818C56.5871 36.4787 55.3984 34.8499 54.182 33.1826C53.2414 31.8936 52.284 30.5816 52.1411 29.5643C51.3603 24.0044 46.8336 21.376 41.7645 20.9854L39.0392 20.9957Z" fill="#9EFAFF"/>
<path d="M45.3139 48.0667C48.6365 48.8889 52.0371 49.5563 53.1939 47.7869C54.7375 45.4262 52.9311 43.4472 53.1679 40.9484C54.212 39.9042 53.3041 38.6784 52.9667 38.0534C48.0413 37.7522 47.6591 38.0765 47.7572 40.0247C44.5379 39.5039 42.9487 38.856 42.027 37.8904C41.3234 37.1533 41.0008 35.0012 40.8553 33.5008C40.7929 32.8574 40.2612 32.3549 39.6148 32.3547C39.0637 32.3546 38.6243 32.7322 38.6233 33.2832C38.619 35.7601 39.1141 41.9219 39.1141 41.9219C39.1141 41.9219 39.4148 46.607 45.3139 48.0667Z" fill="#003756"/>
</g>
<defs>
<filter id="filter0_d_4_2822" x="0.0301373" y="0" width="77.9699" height="78.9599" filterUnits="userSpaceOnUse" color-interpolation-filters="sRGB">
<feFlood flood-opacity="0" result="BackgroundImageFix"/>
<feColorMatrix in="SourceAlpha" type="matrix" values="0 0 0 0 0 0 0 0 0 0 0 0 0 0 0 0 0 0 127 0" result="hardAlpha"/>
<feOffset dx="-3.98" dy="4.97"/>
<feGaussianBlur stdDeviation="1.49493"/>
<feComposite in2="hardAlpha" operator="out"/>
<feColorMatrix type="matrix" values="0 0 0 0 0 0 0 0 0 0 0 0 0 0 0 0 0 0 0.04 0"/>
<feBlend mode="normal" in2="BackgroundImageFix" result="effect1_dropShadow_4_2822"/>
<feBlend mode="normal" in="SourceGraphic" in2="effect1_dropShadow_4_2822" result="shape"/>
</filter>
</defs>
</svg>
