<svg width="77" height="78" viewBox="0 0 77 78" fill="none" xmlns="http://www.w3.org/2000/svg">
<g filter="url(#filter0_d_4_2846)">
<rect x="6" width="71" height="71" rx="17.0731" fill="white"/>
<path fill-rule="evenodd" clip-rule="evenodd" d="M33.817 32.1377C33.9025 32.3257 34.0403 32.4851 34.214 32.597C34.3876 32.7088 34.5898 32.7683 34.7963 32.7683H49.0495C49.2561 32.7683 49.4582 32.7088 49.6319 32.597C49.8055 32.4851 49.9434 32.3257 50.0289 32.1377C51.8584 34.26 52.8485 37.3164 52.8485 41.2897C52.8485 44.3526 51.5786 46.7568 49.4822 48.3496C47.4417 49.9036 44.7361 50.5988 41.9229 50.5988C39.1097 50.5988 36.4063 49.9036 34.3637 48.3496C32.2673 46.7568 30.9995 44.3526 30.9995 41.2897C30.9995 37.3164 31.9853 34.26 33.817 32.1377Z" fill="#9EFAFF"/>
<path fill-rule="evenodd" clip-rule="evenodd" d="M33.8173 32.1377C33.9028 32.3257 34.0406 32.4851 34.2143 32.597C34.3879 32.7088 34.5901 32.7683 34.7966 32.7683H49.0498C49.2564 32.7683 49.4585 32.7088 49.6322 32.597C49.8058 32.4851 49.9436 32.3257 50.0292 32.1377C51.8587 34.26 52.8488 37.3164 52.8488 41.2897C52.8488 41.7374 52.8208 42.1722 52.767 42.5919L52.7584 42.6005C52.6465 42.6979 52.5158 42.7711 52.3743 42.8155C52.2328 42.86 52.0836 42.8747 51.9362 42.8588C48.3223 42.4714 45.07 40.672 42.9327 38.1881C42.4352 38.6281 41.9033 39.0275 41.3421 39.3827C38.4547 41.1999 34.994 41.8767 31.6348 41.2811C31.3875 41.2369 31.1636 41.1074 31.002 40.9152C31.0622 37.1248 32.0437 34.1932 33.8173 32.1377Z" fill="#09364F"/>
<path fill-rule="evenodd" clip-rule="evenodd" d="M42.6845 21.3172C42.5846 21.2169 42.4658 21.1374 42.3351 21.0832C42.2043 21.0289 42.0641 21.001 41.9226 21.001C41.781 21.001 41.6409 21.0289 41.5101 21.0832C41.3794 21.1374 41.2606 21.2169 41.1606 21.3172L37.3014 25.1786L33.5713 22.9379C33.3904 22.8292 33.1815 22.776 32.9706 22.7851C32.7597 22.7942 32.5562 22.8651 32.3853 22.9889C32.2144 23.1128 32.0837 23.2842 32.0094 23.4818C31.9352 23.6794 31.9207 23.8944 31.9678 24.1002L33.7499 31.9306C33.8036 32.1687 33.9366 32.3814 34.1271 32.5339C34.3175 32.6864 34.5542 32.7697 34.7982 32.7701H49.0513C49.2957 32.7702 49.5328 32.6871 49.7237 32.5346C49.9146 32.382 50.0479 32.169 50.1017 31.9306L51.8817 24.1002C51.9288 23.8944 51.9143 23.6794 51.8401 23.4818C51.7658 23.2842 51.6351 23.1128 51.4642 22.9889C51.2933 22.8651 51.0898 22.7942 50.8789 22.7851C50.668 22.776 50.4591 22.8292 50.2782 22.9379L46.5459 25.1764L42.6845 21.3193V21.3172Z" fill="#9EFAFF"/>
</g>
<defs>
<filter id="filter0_d_4_2846" x="0.0501249" y="0" width="76.9499" height="77.795" filterUnits="userSpaceOnUse" color-interpolation-filters="sRGB">
<feFlood flood-opacity="0" result="BackgroundImageFix"/>
<feColorMatrix in="SourceAlpha" type="matrix" values="0 0 0 0 0 0 0 0 0 0 0 0 0 0 0 0 0 0 127 0" result="hardAlpha"/>
<feOffset dx="-3.39756" dy="4.24268"/>
<feGaussianBlur stdDeviation="1.27616"/>
<feComposite in2="hardAlpha" operator="out"/>
<feColorMatrix type="matrix" values="0 0 0 0 0 0 0 0 0 0 0 0 0 0 0 0 0 0 0.04 0"/>
<feBlend mode="normal" in2="BackgroundImageFix" result="effect1_dropShadow_4_2846"/>
<feBlend mode="normal" in="SourceGraphic" in2="effect1_dropShadow_4_2846" result="shape"/>
</filter>
</defs>
</svg>
