<svg width="78" height="79" viewBox="0 0 78 79" fill="none" xmlns="http://www.w3.org/2000/svg">
<g filter="url(#filter0_d_4_2800)">
<rect x="7" width="71" height="71" rx="20" fill="white"/>
<rect x="50.5664" y="21.499" width="4.26382" height="23.8272" rx="2.13191" transform="rotate(29.1817 50.5664 21.499)" fill="#003756"/>
<path fill-rule="evenodd" clip-rule="evenodd" d="M44.4815 48.6234C42.6721 51.8634 39.8318 52.6681 36.5916 50.8586C33.3516 49.0492 32.5469 46.2089 34.3563 42.9689C36.1658 39.7288 39.0061 38.9241 42.2461 40.7335C45.4863 42.543 46.291 45.3833 44.4815 48.6234ZM41.8538 47.1559C40.9835 48.7142 39.6175 49.1012 38.0591 48.2309C36.5008 47.3606 36.1138 45.9946 36.9841 44.4363C37.8543 42.878 39.2204 42.491 40.7786 43.3612C42.337 44.2315 42.7241 45.5976 41.8538 47.1559Z" fill="#9EFAFF"/>
<rect x="59.5105" y="31.8682" width="4.26382" height="23.8272" rx="2.13191" transform="rotate(89.1817 59.5105 31.8682)" fill="#003756"/>
<path fill-rule="evenodd" clip-rule="evenodd" d="M32.5481 40.1846C28.8374 40.2376 26.7204 38.1802 26.6674 34.4694C26.6144 30.7587 28.6718 28.6417 32.3824 28.5887C36.0932 28.5357 38.2102 30.5931 38.2632 34.3038C38.3162 38.0146 36.2588 40.1316 32.5481 40.1846ZM32.5051 37.1752C30.7205 37.2007 29.7023 36.2112 29.6768 34.4264C29.6513 32.6418 30.6408 31.6236 32.4254 31.5981C34.2101 31.5726 35.2283 32.5621 35.2538 34.3467C35.2793 36.1315 34.2898 37.1497 32.5051 37.1752Z" fill="#9EFAFF"/>
</g>
<defs>
<filter id="filter0_d_4_2800" x="0.0301373" y="0" width="77.9699" height="78.9599" filterUnits="userSpaceOnUse" color-interpolation-filters="sRGB">
<feFlood flood-opacity="0" result="BackgroundImageFix"/>
<feColorMatrix in="SourceAlpha" type="matrix" values="0 0 0 0 0 0 0 0 0 0 0 0 0 0 0 0 0 0 127 0" result="hardAlpha"/>
<feOffset dx="-3.98" dy="4.97"/>
<feGaussianBlur stdDeviation="1.49493"/>
<feComposite in2="hardAlpha" operator="out"/>
<feColorMatrix type="matrix" values="0 0 0 0 0 0 0 0 0 0 0 0 0 0 0 0 0 0 0.04 0"/>
<feBlend mode="normal" in2="BackgroundImageFix" result="effect1_dropShadow_4_2800"/>
<feBlend mode="normal" in="SourceGraphic" in2="effect1_dropShadow_4_2800" result="shape"/>
</filter>
</defs>
</svg>
