<svg width="241" height="40" viewBox="0 0 241 40" fill="none" xmlns="http://www.w3.org/2000/svg">
<g clip-path="url(#clip0_245_155)">
<path fill-rule="evenodd" clip-rule="evenodd" d="M47.2963 12.5808C44.046 11.5578 41.6115 9.46355 39.5859 7.17395L44.7632 2.59375C46.3852 4.42725 47.8136 5.49695 49.3717 5.98735C50.8934 6.46625 52.9984 6.53465 56.2359 5.45455L59.0512 11.7302C56.6554 13.1063 55.3301 15.3476 54.7031 17.6663C54.3902 18.8232 54.2725 19.9341 54.278 20.8372C54.2835 21.748 54.411 22.2114 54.4266 22.2682C54.4279 22.2731 54.428 22.2739 54.428 22.2739L48.0648 24.9743C47.5623 23.7901 47.3741 22.2924 47.3656 20.8788C47.3566 19.3801 47.5476 17.6467 48.0303 15.8618C48.2819 14.9315 48.6185 13.9694 49.0568 13.0105C48.4582 12.9052 47.8717 12.762 47.2963 12.5808Z" fill="#FF5050"/>
<path fill-rule="evenodd" clip-rule="evenodd" d="M37.3655 25.5776C37.0413 28.4155 36.1718 31.1985 34.5267 33.5692C30.6388 39.1724 23.9422 41.043 17.3263 39.0026C10.7968 36.9888 4.4645 31.2886 0 22.0517L6.1071 19.1C9.9952 27.1442 15.0685 31.2079 19.3253 32.5208C23.4957 33.8069 26.9662 32.5669 28.9539 29.7023C29.3082 29.1917 29.6128 28.6146 29.8647 27.9789C29.4821 27.9998 29.0993 28.0066 28.7167 27.9994C24.3154 27.9171 20.2862 26.0071 17.254 23.3754C14.2423 20.7616 11.9302 17.1884 11.256 13.3956C10.5518 9.43452 11.6843 5.26662 15.4833 2.35522C17.2611 0.992816 19.2112 0.184216 21.2623 0.0278156C23.3079 -0.128084 25.2183 0.382416 26.8959 1.28152C30.1586 3.03002 32.6954 6.31052 34.4274 9.82962C35.5244 12.0586 36.3754 14.5352 36.9039 17.0796C39.9511 13.8191 43.2654 11.88 46.0708 10.7905C47.5203 10.2276 48.8542 9.88342 49.973 9.70282C50.9539 9.54452 52.1383 9.44912 53.1251 9.67682L51.5999 16.2862C51.7176 16.3133 51.7806 16.3228 51.7806 16.3228C51.7802 16.3278 51.5573 16.3179 51.054 16.3992C50.4204 16.5014 49.5465 16.7173 48.5263 17.1135C46.4942 17.9026 43.9611 19.3755 41.6113 21.9816C40.2721 23.4669 38.8462 24.6589 37.3655 25.5776ZM30.6515 21.0635C30.397 18.2262 29.5657 15.3123 28.3415 12.8249C26.9463 9.99012 25.2323 8.08562 23.6919 7.26012C22.968 6.87222 22.3388 6.74852 21.778 6.79122C21.2228 6.83362 20.4998 7.05662 19.6093 7.73912C18.0716 8.91752 17.6158 10.4167 17.9343 12.2084C18.2827 14.1685 19.6043 16.4338 21.7 18.2527C23.7752 20.0537 26.3272 21.1705 28.8435 21.2175C29.4302 21.2285 30.0348 21.1821 30.6515 21.0635Z" fill="#FF5050"/>
<path d="M229.576 35.637V5.35742H236.319V35.637H229.576ZM224.727 19.9463V14.2165H241.167V19.9463H224.727Z" fill="#175071"/>
<path d="M211.067 36.1221C209.098 36.1221 207.35 35.7254 205.822 34.932C204.324 34.1093 203.148 32.9927 202.296 31.5823C201.444 30.1426 201.018 28.4971 201.018 26.6459V14.2168H207.762V26.5578C207.762 27.2924 207.879 27.9241 208.114 28.453C208.379 28.9819 208.761 29.3933 209.26 29.6871C209.76 29.981 210.362 30.1279 211.067 30.1279C212.066 30.1279 212.86 29.8193 213.447 29.2023C214.035 28.5559 214.329 27.6744 214.329 26.5578V14.2168H221.072V26.6019C221.072 28.4824 220.646 30.1426 219.794 31.5823C218.942 32.9927 217.767 34.1093 216.268 34.932C214.769 35.7254 213.036 36.1221 211.067 36.1221Z" fill="#175071"/>
<path d="M189.272 36.1225C187.068 36.1225 185.07 35.6377 183.277 34.6681C181.485 33.6984 180.075 32.3615 179.046 30.6572C178.018 28.953 177.504 27.0431 177.504 24.9275C177.504 22.7825 178.018 20.8726 179.046 19.1977C180.104 17.4935 181.529 16.1566 183.322 15.1869C185.114 14.2173 187.127 13.7324 189.36 13.7324C191.035 13.7324 192.563 14.0263 193.944 14.6139C195.354 15.1722 196.603 16.0243 197.69 17.1703L193.371 21.4896C192.871 20.9313 192.283 20.52 191.608 20.2555C190.961 19.9911 190.212 19.8589 189.36 19.8589C188.39 19.8589 187.523 20.0792 186.759 20.52C186.025 20.9313 185.437 21.519 184.996 22.283C184.585 23.0176 184.379 23.8844 184.379 24.8834C184.379 25.8824 184.585 26.7639 184.996 27.5279C185.437 28.2919 186.04 28.8942 186.803 29.335C187.567 29.7757 188.42 29.9961 189.36 29.9961C190.241 29.9961 191.02 29.8492 191.696 29.5554C192.401 29.2321 193.003 28.7914 193.503 28.2331L197.778 32.5525C196.662 33.7278 195.398 34.624 193.988 35.241C192.577 35.8287 191.005 36.1225 189.272 36.1225Z" fill="#175071"/>
<path d="M163.862 35.637V5.35742H170.606V35.637H163.862ZM159.014 19.9463V14.2165H175.454V19.9463H159.014Z" fill="#175071"/>
<path d="M139.953 35.6366V14.2161H146.696V35.6366H139.953ZM146.696 23.8686L143.875 21.6648C144.434 19.1672 145.374 17.2279 146.696 15.8469C148.018 14.4659 149.855 13.7754 152.206 13.7754C153.234 13.7754 154.13 13.937 154.894 14.2602C155.687 14.554 156.378 15.0242 156.966 15.6706L152.955 20.7392C152.661 20.416 152.294 20.1663 151.853 19.99C151.412 19.8137 150.913 19.7255 150.354 19.7255C149.238 19.7255 148.342 20.0781 147.666 20.7833C147.019 21.4591 146.696 22.4875 146.696 23.8686Z" fill="#175071"/>
<path d="M124.87 36.1225C122.667 36.1225 120.669 35.6377 118.876 34.6681C117.113 33.669 115.718 32.3174 114.689 30.6132C113.661 28.9089 113.146 26.999 113.146 24.8834C113.146 22.7678 113.661 20.8726 114.689 19.1977C115.718 17.5229 117.113 16.2006 118.876 15.231C120.639 14.2319 122.637 13.7324 124.87 13.7324C127.104 13.7324 129.102 14.2173 130.865 15.1869C132.628 16.1566 134.023 17.4935 135.052 19.1977C136.08 20.8726 136.594 22.7678 136.594 24.8834C136.594 26.999 136.08 28.9089 135.052 30.6132C134.023 32.3174 132.628 33.669 130.865 34.6681C129.102 35.6377 127.104 36.1225 124.87 36.1225ZM124.87 29.9961C125.84 29.9961 126.692 29.7904 127.427 29.3791C128.161 28.9383 128.72 28.336 129.102 27.572C129.513 26.7786 129.719 25.8824 129.719 24.8834C129.719 23.8844 129.513 23.0176 129.102 22.283C128.69 21.519 128.117 20.9313 127.383 20.52C126.677 20.0792 125.84 19.8589 124.87 19.8589C123.93 19.8589 123.093 20.0792 122.358 20.52C121.624 20.9313 121.051 21.519 120.639 22.283C120.228 23.0469 120.022 23.9284 120.022 24.9275C120.022 25.8971 120.228 26.7786 120.639 27.572C121.051 28.336 121.624 28.9383 122.358 29.3791C123.093 29.7904 123.93 29.9961 124.87 29.9961Z" fill="#175071"/>
<path d="M103.023 35.6372V23.4284C103.023 22.3119 102.671 21.4157 101.966 20.7399C101.29 20.0347 100.423 19.6821 99.365 19.6821C98.631 19.6821 97.984 19.8437 97.426 20.1669C96.868 20.4607 96.427 20.9015 96.104 21.4891C95.78 22.0474 95.619 22.6938 95.619 23.4284L93.018 22.1503C93.018 20.4754 93.371 19.0062 94.076 17.7428C94.781 16.4793 95.766 15.5096 97.029 14.8338C98.293 14.1286 99.747 13.776 101.393 13.776C103.068 13.776 104.537 14.1286 105.8 14.8338C107.064 15.5096 108.033 16.4646 108.709 17.6987C109.414 18.9034 109.767 20.3138 109.767 21.9299V35.6372H103.023ZM88.875 35.6372V3.63867H95.619V35.6372H88.875Z" fill="#175071"/>
<path d="M76.1826 36.166C74.9196 36.166 73.6706 36.0044 72.4366 35.6812C71.2316 35.358 70.1007 34.9025 69.0429 34.3149C68.0145 33.6978 67.133 32.9926 66.3984 32.1993L70.233 28.3207C70.9382 29.0846 71.7756 29.687 72.7456 30.1278C73.7146 30.5391 74.7726 30.7448 75.9186 30.7448C76.7116 30.7448 77.3146 30.6273 77.7256 30.3922C78.1666 30.1571 78.3866 29.8339 78.3866 29.4226C78.3866 28.8937 78.1226 28.497 77.5936 28.2325C77.0936 27.9387 76.4476 27.6889 75.6546 27.4833C74.8606 27.2482 74.0236 26.9984 73.1416 26.734C72.2606 26.4695 71.4226 26.1022 70.6296 25.6321C69.8363 25.162 69.1898 24.5155 68.6903 23.6928C68.1908 22.8407 67.9411 21.7682 67.9411 20.4753C67.9411 19.0943 68.2937 17.9043 68.9989 16.9052C69.7041 15.8768 70.7031 15.0688 71.9956 14.4811C73.2886 13.8935 74.8016 13.5996 76.5356 13.5996C78.3576 13.5996 80.0326 13.9228 81.5606 14.5693C83.1176 15.1863 84.3806 16.1119 85.3506 17.346L81.5166 21.2246C80.8406 20.4312 80.0766 19.873 79.2246 19.5497C78.4016 19.2265 77.5936 19.0649 76.8006 19.0649C76.0366 19.0649 75.4636 19.1825 75.0816 19.4175C74.6996 19.6232 74.5086 19.9317 74.5086 20.3431C74.5086 20.7838 74.7576 21.1364 75.2576 21.4009C75.7566 21.6653 76.4036 21.9004 77.1966 22.1061C77.9906 22.3118 78.8276 22.5615 79.7086 22.8554C80.5906 23.1492 81.4276 23.5459 82.2216 24.0454C83.0146 24.5449 83.6616 25.2207 84.1606 26.0729C84.6606 26.8956 84.9096 27.9828 84.9096 29.3344C84.9096 31.4206 84.1166 33.0808 82.5296 34.3149C80.9726 35.549 78.8566 36.166 76.1826 36.166Z" fill="#175071"/>
</g>
<defs>
<clipPath id="clip0_245_155">
<rect width="241" height="40" fill="white"/>
</clipPath>
</defs>
</svg>
