<svg width="217" height="68" viewBox="0 0 217 68" fill="none" xmlns="http://www.w3.org/2000/svg">
<path d="M45.1715 39.6535C43.8692 40.4866 42.5246 41.0649 41.1318 41.5265C39.8389 41.9549 38.5137 42.2716 37.1885 42.5858C37.1071 42.6052 37.0282 42.6409 36.9459 42.6496C36.6765 42.6776 36.5938 42.8224 36.6334 43.0814C36.8446 44.4673 37.0885 45.8498 37.2463 47.2422C37.4208 48.7825 37.7897 50.2921 37.903 51.8427C37.9625 52.6538 38.1569 53.4549 38.2978 54.2595C38.4404 55.0749 38.0388 55.7269 37.2471 55.9148C36.9424 55.9872 36.6287 56.0286 36.3167 56.0618C35.5642 56.1419 34.9738 55.7756 34.8303 55.0464C34.6278 54.0212 34.4541 52.9895 34.3403 51.9474C34.236 50.9907 34.0171 50.0461 33.9145 49.0889C33.734 47.4021 33.3155 45.7503 33.206 44.0545C33.1992 43.9497 33.1832 43.845 33.1647 43.7416C33.1138 43.4597 33.0195 43.3714 32.6665 43.3994C30.8884 43.5403 29.1038 43.7179 27.3201 43.5429C26.4077 43.4537 25.4734 43.4593 24.5955 43.1219C24.5007 43.0857 24.39 43.0913 24.2314 43.0702C24.1788 43.8519 24.1206 44.6182 24.0771 45.3848C23.9797 47.1013 23.8159 48.8135 23.8047 50.5365C23.8013 51.0959 23.7379 51.6647 23.6957 52.2284C23.6444 52.9171 23.1622 53.47 22.4895 53.5415C22.0546 53.5876 21.6069 53.5777 21.1751 53.4864C20.4062 53.3235 20.0865 52.8279 20.1274 52.069C20.2067 50.6033 20.2688 49.1372 20.339 47.6715C20.4092 46.208 20.5653 44.7492 20.6605 43.2865C20.7368 42.1143 20.8001 40.9404 20.8294 39.7665C20.8617 38.4663 21.0014 37.1738 21.0682 35.8762C21.1436 34.4114 21.2552 32.9483 21.3388 31.4835C21.431 29.8717 21.5009 28.2591 21.597 26.6477C21.6603 25.582 21.7538 24.5175 21.8318 23.4526C21.8672 22.9678 21.859 22.9846 21.397 22.8243C20.5782 22.5403 19.7869 22.1731 19.2086 21.5146C18.5036 20.7113 18.3743 19.9502 18.8345 18.8953C19.197 18.0652 19.843 17.4748 20.5411 16.9279C21.9184 15.8484 23.5311 15.2382 25.1588 14.7038C26.9882 14.1026 28.8762 13.6712 30.7867 13.4333C32.8441 13.1773 34.9118 12.9399 36.9959 13.0304C37.8966 13.0696 38.7921 13.1584 39.6833 13.2937C40.5349 13.4234 41.3606 13.6212 42.157 13.9737C42.6935 14.2112 43.1292 14.5469 43.5085 14.9731C43.6761 15.1619 43.7998 15.3795 43.8201 15.6476C43.8963 16.653 43.8114 17.6114 43.1387 18.4384C42.7254 18.9465 42.2367 19.3706 41.7006 19.7292C41.4037 19.9278 41.3821 20.1106 41.5015 20.4045C42.0049 21.6461 42.5031 22.8894 42.9892 24.1378C43.4831 25.4061 43.9524 26.6844 44.4467 27.9527C44.9406 29.2197 45.4568 30.4781 45.9537 31.7438C46.4127 32.9121 46.8773 34.0791 47.3039 35.2595C47.5392 35.9103 47.8228 36.5399 48.0641 37.188C48.7355 38.9916 49.4682 40.7727 50.1685 42.5655C50.7162 43.9679 51.248 45.3758 51.7932 46.779C52.0862 47.5332 51.8406 48.1309 51.1463 48.5291C50.7891 48.7342 50.3818 48.8704 49.9814 48.979C49.3639 49.1471 48.7304 48.7704 48.4843 48.146C47.7461 46.2769 47.0001 44.4104 46.267 42.5392C45.8986 41.6066 45.5538 40.6659 45.1715 39.6535Z" fill="#003C5E"/>
<path d="M137.424 51.7302C137.368 51.8457 137.399 51.944 137.448 52.0397C138.18 53.4722 138.913 54.9047 139.644 56.3376C139.834 56.7095 140.018 57.0844 140.203 57.4594C140.305 57.6662 140.448 57.7679 140.696 57.7485C140.988 57.7257 141.285 57.7395 141.579 57.7442C142.038 57.7511 142.048 57.7537 142.05 58.1795C142.055 59.3159 142.044 60.4524 142.057 61.5888C142.06 61.8698 142.017 61.9934 141.686 61.9878C140.537 61.9676 139.387 61.9784 138.238 61.9939C137.968 61.9973 137.813 61.8931 137.698 61.6616C137.446 61.1553 137.165 60.6631 136.924 60.152C136.012 58.2191 135.012 56.3307 134.035 54.431C133.642 53.6683 133.244 52.9067 132.896 52.1237C132.73 51.7509 132.506 51.6195 132.124 51.6768C132 51.6953 131.872 51.6841 131.746 51.6803C131.559 51.6742 131.482 51.7669 131.484 51.9474C131.487 52.1578 131.484 52.3685 131.484 52.5788C131.484 54.1574 131.492 55.7355 131.477 57.3141C131.474 57.6348 131.553 57.7735 131.894 57.7498C132.25 57.7248 132.609 57.7554 132.966 57.7408C133.228 57.73 133.344 57.8071 133.341 58.0937C133.329 59.272 133.325 60.4511 133.342 61.6293C133.348 62.0409 133.094 61.981 132.843 61.9805C130.856 61.9775 128.869 61.9758 126.882 61.9758C126.548 61.9758 126.212 61.9879 125.877 61.9874C125.661 61.9874 125.54 61.9159 125.543 61.6539C125.556 60.4334 125.552 59.2125 125.546 57.992C125.545 57.7778 125.63 57.6818 125.838 57.683C126.131 57.6848 126.424 57.6843 126.717 57.6878C127.312 57.6947 127.312 57.6955 127.317 57.128C127.317 57.0857 127.317 57.0439 127.317 57.0017C127.317 51.6772 127.317 46.3528 127.317 41.0283C127.317 40.902 127.31 40.7753 127.318 40.6495C127.329 40.4594 127.241 40.3918 127.057 40.3952C126.679 40.4026 126.299 40.3866 125.921 40.4004C125.662 40.4099 125.541 40.3392 125.544 40.05C125.556 38.8718 125.554 37.6931 125.545 36.5145C125.543 36.2533 125.614 36.1115 125.899 36.1438C125.982 36.1533 126.067 36.1451 126.152 36.1451C130.213 36.1451 134.275 36.149 138.337 36.1387C138.698 36.1378 138.965 36.2249 139.215 36.5007C139.665 36.9976 140.149 37.4647 140.637 37.9259C140.833 38.1112 140.923 38.2956 140.922 38.574C140.912 42.0673 140.913 45.5611 140.921 49.0544C140.922 49.3289 140.845 49.5289 140.647 49.7146C140.114 50.215 139.568 50.7067 139.077 51.2463C138.76 51.5945 138.417 51.7277 137.964 51.6859C137.786 51.669 137.591 51.6272 137.424 51.7302Z" fill="#003C5E"/>
<path d="M125.646 21.5038C126.445 23.1264 127.286 24.664 128.008 26.2616C128.18 26.6421 128.449 26.9761 128.586 27.376C128.642 27.5415 128.777 27.5105 128.895 27.5122C129.274 27.5169 129.654 27.5268 130.031 27.51C130.283 27.4988 130.353 27.5971 130.351 27.8376C130.341 28.9951 130.343 30.1531 130.35 31.3106C130.352 31.5623 130.3 31.6908 130.004 31.6869C128.825 31.6722 127.647 31.6761 126.468 31.6851C126.249 31.6869 126.126 31.6166 126.028 31.4192C125.506 30.3707 124.969 29.3291 124.44 28.284C124.195 27.8001 123.953 27.314 123.711 26.8283C122.956 25.3135 122.202 23.7973 121.444 22.2843C121.34 22.0783 121.208 21.8874 121.093 21.687C121.003 21.531 120.89 21.4573 120.694 21.443C119.736 21.3737 119.737 21.3655 119.737 22.342C119.737 23.8995 119.735 25.4574 119.738 27.0149C119.739 27.5036 119.745 27.5066 120.21 27.5126C120.589 27.5178 120.968 27.5238 121.347 27.5105C121.57 27.5023 121.636 27.5902 121.635 27.8048C121.627 28.9835 121.624 30.1626 121.636 31.3412C121.639 31.633 121.515 31.686 121.258 31.6851C118.858 31.6765 116.459 31.6782 114.059 31.6752C114.021 31.6752 113.982 31.6511 113.886 31.6192C113.886 30.6371 113.872 29.6342 113.893 28.6327C113.901 28.244 113.7 27.7458 113.998 27.4932C114.252 27.2778 114.725 27.4398 115.101 27.4312C115.649 27.4187 115.653 27.4243 115.653 26.8903C115.655 21.4805 115.655 16.0712 115.653 10.6614C115.653 10.1283 115.648 10.1274 115.094 10.1236C114.799 10.1214 114.504 10.1124 114.21 10.1261C113.932 10.1395 113.87 10.0365 113.874 9.75638C113.893 8.60659 113.871 7.45636 113.874 6.30614C113.875 5.83726 113.887 5.8308 114.375 5.8308C118.5 5.82908 122.626 5.83209 126.752 5.8252C127.05 5.82477 127.24 5.91484 127.444 6.14928C127.893 6.66643 128.396 7.13875 128.888 7.61711C129.079 7.80285 129.176 7.99162 129.175 8.27217C129.165 11.8086 129.168 15.3446 129.168 18.881C129.168 19.0672 129.159 19.2197 128.989 19.3788C128.408 19.9248 127.856 20.5031 127.302 21.0793C127.04 21.3521 126.758 21.5094 126.36 21.4581C126.14 21.4301 125.903 21.4081 125.646 21.5038Z" fill="#003C5E"/>
<path d="M89.2253 18.1561C89.7606 18.6965 90.2389 19.1977 90.7397 19.6757C90.956 19.8821 91.0297 20.1019 91.0289 20.3962C91.0194 23.1311 91.0207 25.8659 91.0271 28.6008C91.028 28.9111 90.9535 29.1403 90.71 29.3687C89.9928 30.0406 89.3033 30.7431 88.6267 31.4563C88.4634 31.6282 88.3138 31.686 88.0902 31.6856C84.0931 31.6804 80.0964 31.683 76.0993 31.68C75.6683 31.6795 75.661 31.6688 75.6588 31.2154C75.6541 30.1427 75.6536 29.0697 75.6592 27.9966C75.6614 27.5669 75.6705 27.5626 76.1251 27.5574C76.588 27.5518 77.0508 27.5484 77.5132 27.5592C77.7278 27.5643 77.8265 27.4945 77.8063 27.2717C77.7946 27.1467 77.8045 27.0196 77.8045 26.8933C77.8045 21.4236 77.8045 15.9544 77.8045 10.4847C77.8045 10.3795 77.7933 10.2726 77.8067 10.1692C77.8438 9.88004 77.7015 9.8167 77.4421 9.82489C76.9586 9.8404 76.4742 9.82187 75.9906 9.83221C75.7528 9.83738 75.6524 9.75593 75.6541 9.50727C75.6618 8.39239 75.6614 7.2775 75.6541 6.16261C75.6524 5.92343 75.7338 5.80924 75.9807 5.82949C76.085 5.83811 76.191 5.83035 76.2962 5.83035C80.2511 5.83035 84.206 5.83595 88.1609 5.8213C88.5517 5.82001 88.8219 5.92731 89.0878 6.21476C89.6718 6.84611 90.2876 7.44945 90.9091 8.0446C91.0961 8.22345 91.1547 8.40359 91.1538 8.65096C91.1465 11.0492 91.1452 13.4475 91.156 15.8453C91.1573 16.0983 91.0793 16.2707 90.9056 16.4431C90.3548 16.9895 89.8183 17.5493 89.2253 18.1561Z" fill="#003C5E"/>
<path d="M176.282 54.0807C176.282 55.6382 176.278 57.1957 176.286 58.7532C176.287 59.0203 176.21 59.1983 176.006 59.3953C175.253 60.124 174.526 60.8808 173.811 61.647C173.573 61.9017 173.316 61.9884 172.98 61.9871C170.471 61.9763 167.962 61.9702 165.453 61.9823C165.128 61.984 164.887 61.8953 164.672 61.6677C164.213 61.182 163.747 60.7024 163.285 60.2201C163.256 60.19 163.232 60.1546 163.203 60.1245C162.895 59.8116 162.454 59.5491 162.314 59.1742C162.156 58.7471 162.265 58.2201 162.263 57.7361C162.26 56.8522 162.26 55.9679 162.263 55.084C162.266 54.594 162.271 54.5875 162.729 54.5862C163.865 54.5824 165.002 54.5966 166.139 54.5781C166.477 54.5725 166.569 54.6918 166.561 55.0137C166.543 55.8132 166.569 56.6135 166.549 57.4129C166.541 57.746 166.652 57.8378 166.981 57.8343C168.517 57.818 170.053 57.8206 171.59 57.8322C171.914 57.8348 172.027 57.7365 172.025 57.3991C172.011 55.321 172.006 53.2425 172.027 51.1649C172.031 50.7585 171.816 50.793 171.556 50.793C169.388 50.7951 167.22 50.7839 165.052 50.8042C164.685 50.8076 164.423 50.7081 164.172 50.4516C163.558 49.8255 162.924 49.22 162.297 48.6067C162.12 48.4339 162.181 48.2128 162.18 48.009C162.176 46.3882 162.178 44.7678 162.178 43.1469C162.178 41.842 162.204 40.5362 162.166 39.2326C162.149 38.6715 162.263 38.228 162.688 37.8432C163.261 37.326 163.811 36.7834 164.342 36.2241C164.497 36.0612 164.649 36.025 164.837 36.0254C167.701 36.0271 170.565 36.0327 173.428 36.0297C173.65 36.0297 173.815 36.0793 173.991 36.231C174.578 36.7365 175.048 37.3661 175.652 37.8415C176.239 38.3026 176.319 38.8632 176.292 39.5446C176.248 40.6793 176.283 41.8174 176.279 42.9539C176.277 43.4128 176.27 43.4223 175.844 43.4245C174.687 43.4297 173.529 43.4305 172.372 43.424C171.919 43.4215 171.91 43.4107 171.906 42.9647C171.898 42.123 171.891 41.2805 171.91 40.4392C171.916 40.1285 171.806 40.0492 171.508 40.0518C169.972 40.0648 168.435 40.0652 166.899 40.0518C166.577 40.0488 166.461 40.138 166.464 40.4755C166.478 42.3277 166.468 44.18 166.473 46.0318C166.473 46.4494 166.485 46.4567 166.953 46.4575C168.931 46.4606 170.91 46.4588 172.888 46.4588C173.818 46.4588 173.807 46.4692 174.424 47.1471C174.916 47.6871 175.42 48.2193 175.959 48.711C176.204 48.9355 176.289 49.1527 176.286 49.4708C176.275 51.0076 176.282 52.5439 176.282 54.0807Z" fill="#003C5E"/>
<path d="M82.6787 36.0344C84.0797 36.0344 85.4807 36.0409 86.8818 36.0284C87.1304 36.0262 87.3175 36.0762 87.4972 36.2581C88.0247 36.7925 88.5698 37.3092 89.1064 37.8345C89.1357 37.863 89.143 37.9216 89.1749 37.9384C89.7912 38.2551 89.7787 38.8085 89.7675 39.3928C89.7446 40.5922 89.7524 41.7924 89.7662 42.9922C89.7696 43.3051 89.6972 43.44 89.3499 43.4344C88.1716 43.415 86.9925 43.418 85.8139 43.4331C85.495 43.4369 85.3678 43.3533 85.3769 43.0116C85.3984 42.1704 85.3734 41.3274 85.3894 40.4858C85.3954 40.1716 85.3213 40.0453 84.9713 40.0501C83.435 40.0699 81.8982 40.0682 80.3618 40.0514C80.0141 40.0475 79.9438 40.1815 79.946 40.494C79.9567 42.3462 79.9598 44.1989 79.9442 46.0511C79.9412 46.4015 80.0787 46.467 80.3886 46.4653C82.4304 46.4554 84.4736 46.5011 86.5133 46.4355C87.146 46.4153 87.4683 46.7501 87.8333 47.0988C88.4224 47.6612 88.9767 48.2598 89.5679 48.8191C89.7903 49.0294 89.761 49.2661 89.761 49.5134C89.7623 51.9975 89.7619 54.4811 89.7619 56.9651C89.7619 57.0702 89.7623 57.1754 89.7619 57.281C89.758 57.8912 89.911 58.5626 89.7041 59.0936C89.5093 59.5939 88.9379 59.9499 88.5263 60.3636C88.0992 60.7928 87.6575 61.2083 87.2369 61.644C87.0046 61.8844 86.7598 61.9862 86.4099 61.984C83.9215 61.9689 81.4332 61.9771 78.9449 61.9896C78.6315 61.9913 78.3881 61.9133 78.1653 61.6827C77.4111 60.9019 76.6457 60.1322 75.8739 59.369C75.7489 59.2453 75.7446 59.1156 75.7441 58.9708C75.7433 57.6236 75.7497 56.2764 75.7385 54.9293C75.736 54.6418 75.8532 54.5793 76.1135 54.5819C77.2499 54.5922 78.3868 54.5974 79.5232 54.5793C79.8468 54.5741 79.9675 54.659 79.9585 54.9973C79.9374 55.7756 79.9473 56.5548 79.9537 57.3335C79.9576 57.8158 79.9649 57.8253 80.4506 57.8266C81.9663 57.8313 83.482 57.8309 84.9972 57.827C85.4601 57.8257 85.467 57.8179 85.4678 57.3279C85.4708 55.3283 85.4704 53.3287 85.4682 51.329C85.4678 50.8007 85.4626 50.7968 84.9041 50.7964C82.7782 50.7947 80.6519 50.7873 78.526 50.8033C78.1433 50.8063 77.8498 50.7248 77.5805 50.437C76.9969 49.8142 76.3845 49.2186 75.7812 48.6144C75.6256 48.4589 75.6597 48.2671 75.6597 48.0809C75.6584 46.7549 75.6592 45.4288 75.6592 44.1028C75.6592 42.3346 75.6644 40.5664 75.6541 38.7981C75.6524 38.4844 75.7308 38.275 75.9851 38.05C76.5927 37.5126 77.1504 36.9174 77.7115 36.3296C77.9304 36.1003 78.1605 36.0267 78.4786 36.0314C79.8787 36.0521 81.2794 36.0404 82.68 36.0404C82.6787 36.0379 82.6787 36.0361 82.6787 36.0344Z" fill="#003C5E"/>
<path d="M132.834 13.1974C132.834 11.7033 132.847 10.2091 132.824 8.71544C132.818 8.30646 132.924 8.00006 133.222 7.7208C133.833 7.15021 134.432 6.56497 134.968 5.92242C135.122 5.73883 135.31 5.79054 135.489 5.78968C136.898 5.78494 138.308 5.7871 139.718 5.7871C141.149 5.7871 142.58 5.79873 144.011 5.77847C144.358 5.77373 144.601 5.88061 144.835 6.12453C145.417 6.73218 146.013 7.32647 146.617 7.91214C146.812 8.1009 146.902 8.2931 146.9 8.5702C146.887 9.93806 146.889 11.3059 146.898 12.6733C146.9 12.9698 146.865 13.1297 146.493 13.1215C145.315 13.0952 144.136 13.0952 142.958 13.1215C142.585 13.1297 142.55 12.9672 142.555 12.672C142.567 11.8515 142.544 11.0305 142.566 10.2104C142.574 9.89194 142.455 9.82127 142.165 9.823C140.608 9.83334 139.05 9.83722 137.493 9.81999C137.166 9.81654 137.119 9.94238 137.121 10.2251C137.131 12.0769 137.135 13.9287 137.118 15.7801C137.114 16.1253 137.232 16.1942 137.548 16.1921C139.631 16.18 141.715 16.1968 143.798 16.1762C144.192 16.1723 144.465 16.2856 144.731 16.5688C145.351 17.2273 145.997 17.8612 146.646 18.4921C146.826 18.6675 146.9 18.8459 146.899 19.098C146.891 22.2544 146.893 25.4107 146.896 28.567C146.896 28.7855 146.868 28.9777 146.696 29.1376C145.873 29.9047 145.078 30.7015 144.31 31.5238C144.181 31.6613 144.029 31.6811 143.855 31.6811C141.204 31.6785 138.552 31.6772 135.901 31.6828C135.674 31.6832 135.51 31.619 135.349 31.4544C134.601 30.6886 133.843 29.9314 133.078 29.1807C132.93 29.0354 132.871 28.8881 132.872 28.6842C132.878 27.3797 132.88 26.0748 132.871 24.7703C132.87 24.5143 132.93 24.3884 133.22 24.3915C134.419 24.4035 135.619 24.404 136.818 24.391C137.103 24.388 137.175 24.4988 137.172 24.7595C137.161 25.5378 137.183 26.317 137.162 27.0949C137.152 27.4336 137.275 27.5211 137.597 27.518C139.133 27.5047 140.669 27.5051 142.205 27.518C142.501 27.5206 142.609 27.4435 142.607 27.1319C142.596 25.0487 142.594 22.9654 142.608 20.8822C142.611 20.5327 142.475 20.4719 142.165 20.4732C139.977 20.4844 137.788 20.4698 135.6 20.4879C135.211 20.4909 134.931 20.3918 134.667 20.1009C134.186 19.5721 133.672 19.073 133.158 18.5753C132.916 18.3404 132.822 18.084 132.826 17.7414C132.843 16.2274 132.834 14.7126 132.834 13.1974Z" fill="#003C5E"/>
<path d="M181.881 18.7567C181.881 21.9777 181.876 25.1987 181.888 28.4192C181.89 28.7834 181.792 29.0449 181.529 29.3014C180.85 29.9603 180.194 30.6438 179.548 31.3346C179.315 31.5837 179.075 31.6901 178.726 31.688C176.369 31.6721 174.011 31.6759 171.653 31.6845C171.34 31.6858 171.133 31.6053 170.906 31.354C170.235 30.6119 169.52 29.9094 168.796 29.2173C168.537 28.9687 168.49 28.6989 168.49 28.3709C168.496 25.2762 168.493 22.182 168.493 19.0873C168.493 15.7823 168.5 12.4773 168.484 9.17227C168.482 8.7564 168.608 8.46378 168.903 8.17935C169.61 7.49974 170.3 6.80245 170.964 6.08189C171.156 5.87331 171.33 5.78109 171.605 5.78324C173.709 5.80005 175.814 5.8065 177.918 5.81728C178.087 5.81814 178.261 5.85478 178.422 5.82375C179.039 5.70567 179.447 6.01811 179.833 6.43829C180.386 7.0412 180.957 7.62902 181.537 8.20693C181.792 8.46077 181.891 8.72882 181.889 9.0947C181.875 12.3152 181.881 15.5358 181.881 18.7567Z" fill="#003C5E"/>
<path d="M106.141 27.4291C105.83 26.603 105.615 25.8407 105.404 25.077C105.34 24.8456 105.205 24.7663 104.952 24.7684C103.184 24.7814 101.416 24.7749 99.6481 24.7766C99.4861 24.7766 99.29 24.7348 99.24 24.9662C99.0642 25.7812 98.7272 26.5487 98.4983 27.377C99.0142 27.4796 99.4964 27.4274 99.9731 27.4214C100.285 27.4175 100.422 27.4839 100.416 27.833C100.397 28.969 100.412 30.1058 100.407 31.2423C100.405 31.6715 100.396 31.6788 99.9446 31.6792C97.9661 31.6822 95.988 31.6805 94.0095 31.6805C93.6729 31.6805 93.3355 31.6702 92.9993 31.684C92.7627 31.6939 92.658 31.6198 92.6597 31.3668C92.6675 30.167 92.6705 28.9677 92.658 27.7679C92.655 27.4748 92.7808 27.4136 93.0373 27.4248C93.3945 27.4408 93.7535 27.4141 94.1103 27.4335C94.3896 27.4485 94.5146 27.352 94.5887 27.0706C94.8231 26.1811 95.0951 25.3015 95.3485 24.4168C95.7915 22.8692 96.2574 21.3277 96.6655 19.7711C97.037 18.3545 97.4589 16.953 97.8484 15.5425C98.2544 14.073 98.6742 12.6073 99.0874 11.1399C99.4611 9.81254 99.8076 8.477 100.207 7.15655C100.304 6.83635 100.314 6.49804 100.436 6.18043C100.528 5.94168 100.619 5.79861 100.919 5.80593C101.865 5.82791 102.811 5.82016 103.757 5.81025C104.013 5.80766 104.117 5.90462 104.183 6.15457C104.425 7.06432 104.7 7.96503 104.955 8.87176C105.294 10.0789 105.625 11.2881 105.962 12.4961C106.5 14.4289 107.017 16.3678 107.585 18.2916C108.094 20.0158 108.541 21.7569 109.055 23.4803C109.414 24.6796 109.728 25.8954 110.06 27.1042C110.129 27.3546 110.239 27.4429 110.491 27.4326C110.89 27.4162 111.291 27.4348 111.691 27.4266C111.905 27.4223 111.99 27.5084 111.989 27.7239C111.984 28.9444 111.984 30.1653 111.989 31.3858C111.99 31.6042 111.9 31.6857 111.688 31.681C111.352 31.6732 111.015 31.6797 110.678 31.6797C108.699 31.6797 106.721 31.6779 104.743 31.6805C104.157 31.6814 104.199 31.687 104.199 31.1246C104.201 30.0511 104.197 28.978 104.201 27.9045C104.203 27.4369 104.209 27.4335 104.695 27.4287C105.135 27.4257 105.575 27.4291 106.141 27.4291Z" fill="#003C5E"/>
<path d="M198.386 18.822C198.386 21.9986 198.38 25.1752 198.394 28.3518C198.396 28.7362 198.305 29.0167 198.02 29.2921C197.324 29.9627 196.661 30.6664 196.001 31.3723C195.781 31.6072 195.549 31.6882 195.23 31.6865C192.852 31.6736 190.475 31.6757 188.098 31.6844C187.803 31.6852 187.61 31.5977 187.401 31.3693C186.738 30.6462 186.043 29.9519 185.336 29.2719C185.086 29.0314 184.993 28.7853 184.993 28.4453C185.001 21.9659 185.001 15.4869 184.992 9.00746C184.992 8.6377 185.112 8.38688 185.38 8.13606C186.082 7.48144 186.765 6.80484 187.425 6.10755C187.631 5.88949 187.817 5.77829 188.118 5.78131C190.536 5.80501 192.955 5.81622 195.373 5.8257C195.572 5.82656 195.732 5.86492 195.877 6.01619C196.646 6.81906 197.414 7.62235 198.201 8.40583C198.418 8.62088 198.385 8.85748 198.385 9.10356C198.387 11.8802 198.387 14.6573 198.387 17.4339C198.386 17.8963 198.386 18.3592 198.386 18.822Z" fill="#003C5E"/>
<path d="M94.0975 48.8815C94.0975 46.2087 94.0984 43.5359 94.0967 40.8631C94.0963 40.3175 94.0919 40.3167 93.5558 40.3128C93.2611 40.3106 92.9659 40.2981 92.6724 40.3162C92.3845 40.3339 92.3224 40.202 92.325 39.9422C92.3354 38.7846 92.3263 37.6271 92.3311 36.47C92.3328 36.0308 92.3414 36.0222 92.787 36.0209C94.2811 36.0166 95.7753 36.0192 97.2698 36.0192C99.9004 36.0192 102.531 36.0243 105.162 36.0127C105.478 36.0114 105.722 36.0812 105.942 36.3131C106.446 36.8427 106.96 37.3625 107.483 37.8719C107.65 38.0343 107.699 38.2067 107.699 38.4295C107.694 41.944 107.695 45.4584 107.697 48.9733C107.697 49.1659 107.684 49.3357 107.532 49.4883C106.853 50.1683 106.185 50.8596 105.511 51.5444C105.357 51.7021 105.153 51.6357 104.971 51.6362C102.972 51.6405 100.973 51.6387 98.973 51.6387C98.8467 51.6387 98.72 51.6452 98.5941 51.6379C98.3627 51.6245 98.2472 51.7004 98.2601 51.9598C98.2787 52.3378 98.2649 52.717 98.2645 53.0958C98.2645 54.4637 98.2614 55.8315 98.2662 57.1998C98.2679 57.6898 98.2765 57.6937 98.7544 57.7019C99.1544 57.7083 99.5543 57.7092 99.9538 57.7019C100.169 57.698 100.247 57.7859 100.246 58.001C100.239 59.1796 100.236 60.3578 100.248 61.5365C100.251 61.8377 100.102 61.8761 99.8577 61.8731C99.1212 61.8645 98.3847 61.8701 97.6482 61.8701C96.0278 61.8701 94.4074 61.8727 92.7866 61.8684C92.3414 61.8671 92.3328 61.8585 92.3311 61.4189C92.3263 60.2613 92.3354 59.1038 92.325 57.9467C92.3229 57.6864 92.3858 57.5571 92.6728 57.5726C93.0085 57.5907 93.3481 57.5532 93.6821 57.5829C94.0299 57.6144 94.1053 57.4687 94.1031 57.152C94.0919 55.342 94.0975 53.5324 94.0975 51.7224C94.0975 50.7756 94.0975 49.8287 94.0975 48.8815Z" fill="#003C5E"/>
<path d="M123.273 49.0705C123.273 52.2704 123.269 55.4698 123.279 58.6696C123.28 59.0045 123.193 59.2389 122.938 59.4811C122.239 60.1435 121.577 60.8451 120.916 61.5463C120.699 61.7772 120.474 61.8686 120.15 61.8794C118.087 61.9496 116.025 61.8889 113.963 61.9117C113.731 61.9143 113.495 61.8927 113.27 61.9345C112.865 62.01 112.556 61.8902 112.273 61.5975C111.517 60.8175 110.748 60.0491 109.975 59.2859C109.87 59.1829 109.844 59.0829 109.844 58.9549C109.844 58.8075 109.843 58.6601 109.843 58.5128C109.843 52.2186 109.858 45.9245 109.82 39.6304C109.816 38.9741 110.093 38.5862 110.491 38.1876C111.052 37.626 111.616 37.0675 112.174 36.5038C112.492 36.1828 112.824 35.9742 113.324 36.0074C115.634 36.1591 117.948 36.0953 120.261 36.0992C120.508 36.0996 120.681 36.1655 120.858 36.359C121.565 37.13 122.287 37.8881 123.031 38.6228C123.199 38.7888 123.279 38.9293 123.276 39.1555C123.267 39.8502 123.273 40.5449 123.273 41.2396C123.273 43.8499 123.273 46.4602 123.273 49.0705Z" fill="#003C5E"/>
<path d="M155.44 61.9753C154.193 61.9753 153.001 61.9748 151.811 61.9753C150.577 61.9757 149.344 61.98 148.111 61.9765C147.621 61.9753 147.614 61.9675 147.612 61.5141C147.607 60.3984 147.62 59.2826 147.605 58.1673C147.6 57.8346 147.715 57.7127 148.043 57.7389C148.315 57.7605 148.59 57.7467 148.864 57.7424C149.287 57.7359 149.287 57.7334 149.295 57.283C149.296 57.2201 149.295 57.1567 149.295 57.0934C149.295 51.5784 149.295 46.0631 149.295 40.5481C149.295 40.4641 149.283 40.3779 149.296 40.296C149.353 39.9495 149.187 39.8728 148.872 39.884C148.283 39.9056 147.693 39.8931 147.104 39.8892C146.631 39.8862 146.637 39.887 146.639 40.393C146.644 41.7613 146.641 43.1296 146.641 44.4978C146.641 44.6452 146.637 44.7926 146.64 44.94C146.644 45.1266 146.556 45.1973 146.372 45.1968C145.256 45.193 144.141 45.1921 143.025 45.1968C142.813 45.1977 142.711 45.1188 142.726 44.9012C142.732 44.8176 142.727 44.7327 142.727 44.6487C142.727 41.9543 142.727 39.26 142.726 36.5657C142.725 35.9903 142.704 36.017 143.277 36.017C148.792 36.0179 154.307 36.0183 159.822 36.0166C160.407 36.0166 160.367 36.0071 160.367 36.5713C160.366 39.2656 160.365 41.9599 160.368 44.6543C160.368 45.2361 160.374 45.1964 159.81 45.1955C158.841 45.1942 157.873 45.1981 156.905 45.1938C156.453 45.1917 156.443 45.1852 156.442 44.7465C156.439 43.367 156.444 41.9871 156.446 40.6076C156.446 40.4813 156.428 40.3538 156.442 40.2296C156.47 39.9827 156.366 39.8862 156.123 39.8883C155.407 39.8944 154.692 39.8931 153.976 39.89C153.794 39.8892 153.703 39.9624 153.713 40.1521C153.72 40.2779 153.714 40.4046 153.714 40.5309C153.714 46.0458 153.714 51.5612 153.714 57.0761C153.714 57.1395 153.713 57.2024 153.714 57.2657C153.722 57.7342 153.722 57.7359 154.203 57.7424C154.497 57.7463 154.793 57.7575 155.086 57.7394C155.369 57.7217 155.446 57.8428 155.445 58.1087C155.435 59.3706 155.44 60.6328 155.44 61.9753Z" fill="#003C5E"/>
<path d="M159.906 18.629C159.906 21.3858 159.906 24.1426 159.906 26.8995C159.906 27.0468 159.913 27.1942 159.906 27.3412C159.895 27.5532 159.982 27.6472 160.2 27.6424C160.579 27.6342 160.957 27.6463 161.336 27.6394C161.545 27.6355 161.636 27.7105 161.635 27.9316C161.628 29.068 161.625 30.2045 161.637 31.3409C161.641 31.6352 161.506 31.6895 161.254 31.6852C160.623 31.6745 159.991 31.6818 159.36 31.6818C157.677 31.6818 155.993 31.6839 154.309 31.68C153.857 31.6792 153.848 31.6706 153.846 31.2379C153.841 30.1859 153.842 29.1335 153.846 28.0811C153.848 27.651 153.854 27.6485 154.306 27.6416C154.6 27.6368 154.897 27.623 155.19 27.6454C155.508 27.6696 155.604 27.5287 155.572 27.2386C155.561 27.1348 155.571 27.0283 155.571 26.9232C155.571 21.4095 155.571 15.8959 155.571 10.3826C155.571 10.2775 155.561 10.171 155.572 10.0672C155.607 9.73792 155.481 9.63062 155.139 9.64485C154.512 9.67027 153.883 9.64614 153.255 9.62847C152.937 9.61942 152.821 9.73361 152.825 10.0672C152.843 11.4557 152.833 12.8451 152.832 14.2337C152.832 14.381 152.825 14.5289 152.833 14.6754C152.847 14.9176 152.74 15.0124 152.499 15.0111C151.426 15.0051 150.352 15.0016 149.279 15.0128C148.941 15.0163 148.914 14.8262 148.916 14.5664C148.923 13.7036 148.919 12.8408 148.919 11.978C148.919 10.084 148.92 8.18993 148.918 6.29631C148.917 5.77701 148.887 5.78909 149.441 5.78909C154.955 5.79038 160.468 5.78994 165.982 5.78951C166.536 5.78951 166.474 5.77097 166.474 6.31484C166.475 9.02943 166.475 11.7445 166.474 14.4591C166.473 15.0046 166.469 15.0077 165.933 15.009C164.965 15.0111 163.997 14.9973 163.029 15.0167C162.715 15.0232 162.637 14.9124 162.639 14.6181C162.651 13.1662 162.645 11.7139 162.644 10.262C162.644 9.62761 162.643 9.62847 162.042 9.63407C161.457 9.63968 160.87 9.6595 160.285 9.6414C159.97 9.63149 159.897 9.74914 159.9 10.0448C159.913 11.5178 159.906 12.9908 159.906 14.4638C159.906 15.851 159.906 17.24 159.906 18.629Z" fill="#003C5E"/>
<path d="M208.799 31.6794C206.442 31.6794 204.085 31.6794 201.728 31.6794C201.602 31.6794 201.475 31.6673 201.35 31.6815C201.048 31.716 200.947 31.5928 200.952 31.2889C200.968 30.3632 200.958 29.4371 200.958 28.5114C200.958 27.6387 200.958 27.6387 201.808 27.6387C202.726 27.6387 202.726 27.6387 202.726 26.7074C202.726 21.4049 202.727 16.102 202.726 10.7996C202.726 10.0118 202.785 10.132 202.059 10.1225C201.806 10.1191 201.553 10.1079 201.302 10.1255C201.015 10.1458 200.951 10.0135 200.954 9.75277C200.964 8.57453 200.955 7.39587 200.96 6.21763C200.961 5.79659 200.969 5.78883 201.43 5.78797C203.345 5.78452 205.259 5.78668 207.174 5.78668C207.616 5.78668 208.058 5.79443 208.5 5.78365C208.75 5.77762 208.881 5.82934 208.878 6.12799C208.863 7.34846 208.867 8.56893 208.876 9.78939C208.878 10.029 208.805 10.1346 208.555 10.1251C208.219 10.1122 207.882 10.1182 207.545 10.1229C207.115 10.129 207.114 10.132 207.104 10.5836C207.102 10.6677 207.104 10.7521 207.104 10.8362C207.104 16.202 207.102 21.5679 207.105 26.9337C207.105 27.7585 207.022 27.6331 207.806 27.6374C209.027 27.6439 210.247 27.6413 211.468 27.6383C212.255 27.6361 212.155 27.7167 212.157 26.916C212.161 25.2956 212.158 23.6757 212.158 22.0553C212.158 21.9079 212.161 21.7605 212.159 21.6135C212.155 21.4231 212.255 21.364 212.434 21.3644C213.738 21.3679 215.043 21.3679 216.348 21.3644C216.529 21.364 216.623 21.4295 216.619 21.6174C216.616 21.7437 216.62 21.87 216.62 21.9962C216.62 25.0052 216.62 28.0141 216.62 31.0235C216.62 31.1497 216.613 31.2764 216.62 31.4023C216.633 31.6277 216.518 31.6979 216.311 31.682C216.186 31.6725 216.059 31.6807 215.932 31.6807C213.554 31.6794 211.177 31.6794 208.799 31.6794Z" fill="#003C5E"/>
<path d="M57.3535 10.6909C57.0772 11.3387 56.8406 11.8847 56.6122 12.4342C56.5153 12.6669 56.4635 12.8725 56.6794 13.1129C57.091 13.571 57.4517 14.0752 57.9184 14.6674C57.3371 14.6359 56.8665 14.6467 56.4084 14.5747C55.9679 14.5058 55.6214 14.4687 55.3892 14.9746C55.2008 15.3841 54.8957 15.7396 54.6432 16.1201C54.5742 16.224 54.5023 16.3231 54.348 16.3869C54.2127 15.7827 54.0485 15.2074 53.9649 14.6208C53.905 14.2007 53.68 14.0541 53.3115 14.0291C52.7465 13.9903 52.21 13.815 51.6584 13.7128C51.6209 13.4978 51.7907 13.481 51.9096 13.4103C52.4113 13.1121 52.9073 12.8048 53.4094 12.507C53.5968 12.3958 53.6287 12.2786 53.5878 12.0467C53.4774 11.4201 53.4322 10.7823 53.3533 10.0781C53.97 10.4668 54.4156 10.9396 54.9087 11.3482C55.1418 11.5412 55.2875 11.5783 55.5547 11.452C56.1123 11.1887 56.6898 10.968 57.3535 10.6909Z" fill="#003C5E"/>
<path d="M4.73331 23.0791C5.01602 23.6988 5.31769 24.2289 5.49481 24.7978C5.59996 25.1352 5.762 25.1748 6.03091 25.1529C6.6614 25.102 7.27983 25.2425 7.91032 25.2524C7.97195 25.5114 7.75474 25.5855 7.6289 25.698C7.25656 26.0299 6.87646 26.3539 6.48386 26.6616C6.26666 26.8319 6.22054 27.0086 6.32785 27.2568C6.58298 27.8494 6.71355 28.4798 6.92731 29.2077C6.37224 28.8746 5.90724 28.5867 5.43448 28.3135C4.68333 27.8791 4.77985 27.9989 4.28727 28.3587C3.86881 28.6643 3.4426 28.9591 2.95346 29.306C3.05258 28.6669 3.10731 28.0898 3.23962 27.5309C3.34003 27.1073 3.24393 26.8254 2.89528 26.5767C2.45916 26.2656 2.04673 25.9208 1.57397 25.5511C2.23377 25.3619 2.85649 25.3597 3.46414 25.2959C3.77788 25.2628 3.89036 25.1274 3.99595 24.8775C4.23944 24.3013 4.39286 23.6885 4.73331 23.0791Z" fill="#003C5E"/>
<path d="M64.8267 31.2666C65.0805 31.8936 64.9792 32.5026 65.0142 33.0969C65.0344 33.4391 65.096 33.683 65.4835 33.7907C65.883 33.9015 66.2665 34.0795 66.6445 34.2557C66.8074 34.3316 67.0168 34.354 67.1133 34.5457C66.5281 34.7591 65.9885 35.0888 65.3774 35.2297C65.09 35.296 65.034 35.4779 65.0262 35.7339C65.0068 36.3773 64.9736 37.0203 64.8513 37.7232C64.4044 37.387 64.1415 36.9531 63.8635 36.5592C63.5661 36.1381 63.2671 36.0015 62.7706 36.1399C62.2332 36.2898 61.6755 36.3674 61.0808 36.4855C61.3683 35.8425 61.7794 35.3344 62.1319 34.7966C62.3108 34.5238 62.272 34.3682 62.1207 34.1402C61.7751 33.6196 61.4471 33.0878 61.1097 32.5569C61.217 32.4078 61.3243 32.5142 61.4312 32.5414C61.9384 32.6694 62.4461 32.7956 62.9542 32.9206C63.4455 33.0417 63.4808 33.0141 63.7829 32.6034C64.1126 32.1552 64.4673 31.7247 64.8267 31.2666Z" fill="#003C5E"/>
<path d="M18.365 11.7676C18.1939 11.0544 17.9414 10.5139 17.8785 9.90887C17.8263 9.40681 17.7789 9.42146 17.2872 9.31544C16.702 9.1896 16.0952 9.15254 15.4617 8.92026C15.9758 8.57851 16.4335 8.2583 16.9075 7.96439C17.235 7.76141 17.4057 7.57007 17.3273 7.11412C17.2329 6.56551 17.2881 5.98846 17.123 5.34375C17.7337 5.70748 18.1754 6.13413 18.6417 6.52242C18.8511 6.69696 19.0037 6.72798 19.2541 6.61033C19.8367 6.33624 20.4379 6.10267 21.0835 5.83073C20.9365 6.42028 20.7353 6.95811 20.4668 7.46491C20.2966 7.78641 20.3056 8.00059 20.584 8.27856C21.0356 8.72891 21.4209 9.24606 21.9221 9.83905C21.2236 9.77225 20.6538 9.73261 20.088 9.65978C19.5376 9.5891 19.523 9.56497 19.2485 10.0528C18.9571 10.5712 18.7016 11.1099 18.365 11.7676Z" fill="#003C5E"/>
<path d="M21.0374 63.1575C20.4082 62.8506 19.8333 62.6532 19.317 62.33C19.008 62.1365 18.7559 62.2167 18.4805 62.4606C18.0789 62.8162 17.626 63.1135 17.1321 63.4828C17.0894 62.7907 17.3079 62.2007 17.3303 61.5909C17.3415 61.2832 17.2851 61.1531 17.0468 60.9941C16.5964 60.6933 16.1762 60.3481 15.744 60.0201C15.6802 59.9718 15.5936 59.9361 15.6259 59.7977C16.1805 59.7046 16.7455 59.5779 17.3178 59.5254C17.6548 59.4943 17.8186 59.3396 17.8712 59.0483C17.9798 58.4445 18.2715 57.9067 18.4573 57.2822C18.7723 57.5193 18.8882 57.855 19.0175 58.1609C19.4795 59.2564 19.4692 59.2607 20.5987 59.2607C20.9749 59.2607 21.3516 59.2607 21.8015 59.2607C21.63 59.649 21.3072 59.8563 21.0874 60.1416C20.8452 60.4554 20.397 60.6239 20.3121 61.0216C20.2259 61.4259 20.5763 61.7538 20.6948 62.1301C20.7935 62.4438 20.9025 62.7541 21.0374 63.1575Z" fill="#003C5E"/>
<path d="M44.9296 63.7393C44.2387 64.0233 43.5604 64.1707 42.9317 64.4577C42.7382 64.5461 42.6373 64.6327 42.6386 64.8646C42.6425 65.4929 42.4843 66.1027 42.3848 66.8543C42.0215 66.3673 41.7017 65.9747 41.422 65.5554C41.0488 64.996 41.0221 64.9779 40.3524 65.0861C39.8193 65.1723 39.2819 65.2322 38.6609 65.3149C39.0332 64.7814 39.3405 64.278 39.7141 63.8298C39.9335 63.567 39.8792 63.3864 39.7689 63.1123C39.5366 62.5344 39.1302 62.0366 38.9819 61.3583C39.5827 61.5251 40.1597 61.6733 40.7015 61.9207C41.0385 62.0746 41.2031 62.0353 41.4763 61.7268C41.8594 61.2941 42.2042 60.811 42.7433 60.3701C42.7912 60.8437 42.7601 61.2489 42.7709 61.6501C42.7804 62.0056 42.68 62.4258 42.8364 62.6977C42.9735 62.9356 43.4079 62.9929 43.697 63.1545C44.0806 63.3691 44.5327 63.4316 44.9296 63.7393Z" fill="#003C5E"/>
<path d="M42.6434 8.40348C42.1749 8.00442 41.7875 7.54891 41.4216 7.0783C41.2298 6.83179 41.0738 6.75507 40.7402 6.86324C40.149 7.05545 39.568 7.2817 38.8251 7.53209C39.0479 7.09079 39.2069 6.77016 39.372 6.45341C39.4103 6.38015 39.4745 6.32068 39.5181 6.24957C40.0503 5.37387 40.0326 5.3243 39.3754 4.49126C39.1203 4.16762 38.8445 3.84785 38.6462 3.40698C39.2233 3.51688 39.7516 3.61815 40.28 3.71771C41.0363 3.86035 40.8786 3.93188 41.4052 3.26692C41.7116 2.87992 42.0008 2.47914 42.3598 2.00293C42.5123 2.7334 42.5985 3.36087 42.6373 3.99222C42.6511 4.21589 42.7179 4.33397 42.9317 4.40033C43.5492 4.59254 44.1539 4.82138 44.7796 5.12003C44.4068 5.43722 43.975 5.61348 43.5453 5.77595C43.3876 5.83542 43.248 5.92549 43.0924 5.9785C42.8498 6.06081 42.8256 6.23146 42.8045 6.4603C42.7446 7.10027 42.8644 7.75705 42.6434 8.40348Z" fill="#003C5E"/>
<path d="M9.54272 14.5217C9.76596 13.9976 10.1224 13.677 10.4464 13.3857C10.9739 12.9116 11.0291 12.4427 10.7347 11.848C10.5425 11.4597 10.3904 11.052 10.2236 10.6612C10.3883 10.5465 10.4977 10.6146 10.6102 10.6676C11.0838 10.8908 11.5669 11.0956 12.028 11.3421C12.2392 11.455 12.375 11.3977 12.5284 11.2723C13.0128 10.8766 13.4972 10.481 13.9842 10.088C14.0298 10.0509 14.0902 10.0324 14.1971 9.97852C14.116 10.6318 14.0699 11.2464 13.9505 11.8467C13.9001 12.1001 13.954 12.213 14.1372 12.3643C14.6707 12.8052 15.2869 13.1232 15.8842 13.5813C15.2568 13.8123 14.6297 13.911 14.0122 13.9761C13.6312 14.0161 13.5299 14.1597 13.4519 14.4915C13.327 15.0207 13.2265 15.5534 13.1261 16.0873C13.1123 16.1597 13.1248 16.2593 12.9525 16.3019C12.6422 15.7675 12.2845 15.234 12.0164 14.6591C11.8531 14.3083 11.6622 14.2682 11.3282 14.3208C10.7623 14.41 10.1892 14.4518 9.54272 14.5217Z" fill="#003C5E"/>
<path d="M7.96856 43.5941C7.27084 43.5941 6.67139 43.6135 6.07408 43.5868C5.71639 43.5708 5.52203 43.6799 5.35223 44.0156C5.07901 44.5551 4.90231 45.1369 4.57651 45.7385C4.38085 45.1998 4.20717 44.7249 4.03565 44.2491C3.97877 44.0918 3.91499 43.9358 3.87319 43.7742C3.80682 43.5191 3.68184 43.4295 3.39224 43.4105C2.78071 43.3704 2.17522 43.245 1.44604 43.1368C1.99594 42.7434 2.44069 42.4107 2.90138 42.1008C3.2065 41.8957 3.34096 41.6707 3.26296 41.2764C3.14617 40.6864 3.10523 40.0814 3.02679 39.4414C3.50084 39.6896 3.8887 40.0004 4.26578 40.3231C4.58555 40.5972 4.86525 40.7278 5.31258 40.4791C5.83318 40.19 6.35679 39.8793 7.00839 39.6789C6.74249 40.3464 6.61579 41.0153 6.31025 41.6225C6.19389 41.8535 6.23871 42.0021 6.42876 42.1607C6.93513 42.5852 7.43719 43.0162 7.96856 43.5941Z" fill="#003C5E"/>
<path d="M46.5558 5.82264C47.1325 6.08681 47.7423 6.34281 48.3271 6.64663C48.5344 6.75437 48.6408 6.73239 48.8084 6.59793C49.2937 6.20878 49.7966 5.84117 50.3741 5.40332C50.3155 6.0532 50.3211 6.63025 50.1953 7.17757C50.1048 7.5706 50.2293 7.75936 50.5168 7.95243C51.0162 8.28814 51.5041 8.64066 52.0824 9.04619C51.4795 9.1966 50.9688 9.30649 50.4366 9.32718C49.8432 9.35045 49.8634 9.3664 49.6816 9.91414C49.4907 10.4886 49.3329 11.0769 49.0528 11.6535C48.8188 11.3906 48.6671 11.1031 48.5533 10.7916C48.5107 10.6748 48.4766 10.552 48.4154 10.4451C47.9267 9.59782 48.1711 9.50258 46.998 9.69306C46.9364 9.70297 46.8726 9.7021 46.8097 9.70253C46.4335 9.70339 46.0572 9.70296 45.656 9.70296C45.7017 9.40431 46.0159 9.33666 46.1766 9.13928C46.4524 8.80098 46.7355 8.46138 47.0601 8.17264C47.2652 7.98992 47.2773 7.83563 47.1631 7.63179C46.8739 7.11766 46.7605 6.53372 46.5089 6.00537C46.4826 5.95279 46.4477 5.88642 46.5558 5.82264Z" fill="#003C5E"/>
<path d="M9.0068 22.4489C8.51508 22.1722 8.27072 21.7357 7.90312 21.4305C7.80702 21.3508 7.73763 21.2396 7.64325 21.1569C7.40752 20.95 7.19463 20.7867 6.82573 20.9681C6.30987 21.222 5.75007 21.3866 5.10234 21.6296C5.429 20.9685 5.63456 20.3648 5.98407 19.8261C6.1362 19.5916 6.14525 19.4106 5.93753 19.165C5.53544 18.6888 5.19369 18.1617 4.77222 17.58C5.43675 17.6196 5.99657 17.7312 6.54001 17.8747C6.91968 17.9751 7.11618 17.8739 7.30925 17.561C7.53809 17.1904 7.81046 16.8447 8.0811 16.5021C8.1772 16.3802 8.2634 16.2168 8.50172 16.2061C8.56938 16.6948 8.64954 17.1817 8.70039 17.6717C8.74349 18.0846 8.91112 18.3208 9.33647 18.4699C9.90103 18.6672 10.5134 18.7569 11.078 19.1215C10.5095 19.3801 9.99066 19.6261 9.46403 19.8532C8.96973 20.0666 8.97059 20.0579 8.95766 20.5807C8.94301 21.181 9.12876 21.7762 9.0068 22.4489Z" fill="#003C5E"/>
<path d="M60.5884 39.4387C61.1206 39.749 61.5701 40.0016 62.0097 40.2701C62.688 40.6842 62.76 40.6799 63.372 40.2033C63.7508 39.9085 64.1442 39.6318 64.6032 39.2939C64.5015 39.971 64.4425 40.5769 64.3102 41.1664C64.2287 41.5306 64.3115 41.7564 64.6058 41.965C65.063 42.29 65.5009 42.6425 65.9892 43.0157C65.4216 43.2454 64.8437 43.2152 64.2908 43.2928C63.9176 43.3454 63.6879 43.4578 63.5706 43.8405C63.4181 44.3383 63.2048 44.8179 63.0169 45.3049C62.9884 45.3786 62.9819 45.4717 62.8216 45.4851C62.5799 44.9326 62.345 44.3598 62.0778 43.8039C61.961 43.5604 61.8804 43.4505 61.5973 43.4617C60.9685 43.4872 60.3376 43.4695 59.7205 43.4695C59.6192 43.2187 59.7636 43.1157 59.8851 43.0122C60.2359 42.7131 60.5945 42.4231 60.9457 42.1245C61.3766 41.7577 61.368 41.7577 61.1861 41.2345C60.9892 40.6678 60.8065 40.096 60.5884 39.4387Z" fill="#003C5E"/>
<path d="M25.2785 1.90234C25.5767 2.32554 25.8861 2.74186 26.1701 3.17454C26.5166 3.70246 26.5054 3.69555 27.1221 3.59299C27.6751 3.50119 28.228 3.38742 28.8636 3.43138C28.499 3.92482 28.1698 4.40147 27.8061 4.84966C27.6169 5.08238 27.6152 5.27458 27.741 5.53143C27.9151 5.88697 28.0633 6.25457 28.2603 6.60106C28.3805 6.81223 28.537 7.0221 28.4921 7.35825C27.8789 7.13631 27.2781 6.93074 26.6873 6.69932C26.4485 6.6058 26.318 6.57952 26.121 6.83163C25.7263 7.33757 25.2509 7.78059 24.7364 8.32661C24.6859 7.85945 24.7178 7.45306 24.7079 7.05055C24.6984 6.67346 24.7941 6.24984 24.651 5.93309C24.5174 5.63745 24.0404 5.63486 23.7456 5.44007C23.4038 5.21425 22.9608 5.18064 22.613 4.8962C23.2358 4.5773 23.8826 4.48851 24.4782 4.23942C24.8398 4.08815 24.9626 3.87828 24.9566 3.54515C24.9471 2.99913 25.0996 2.47982 25.1518 1.94501C25.194 1.93036 25.2363 1.91613 25.2785 1.90234Z" fill="#003C5E"/>
<path d="M36.952 65.6208C36.6142 65.7712 36.309 65.7957 35.9966 65.785C35.7656 65.7772 35.5333 65.775 35.3023 65.7858C34.6266 65.8164 34.5775 65.8371 34.3792 66.4671C34.2965 66.73 34.1844 66.9744 34.0745 67.2226C33.975 67.4476 33.8616 67.6665 33.7513 67.8941C33.4134 67.4269 33.2699 66.874 33.1045 66.3396C32.9769 65.9267 32.7506 65.7518 32.3395 65.7836C31.7685 65.8276 31.2182 65.6397 30.654 65.6505C30.5666 65.4445 30.7454 65.3781 30.8411 65.2924C31.0902 65.0696 31.3311 64.8149 31.6228 64.667C32.2249 64.3619 32.2861 63.9452 32.1042 63.3436C31.956 62.8523 31.9685 62.3162 31.7797 61.7383C32.4136 62.1554 32.9773 62.5028 33.5121 62.8898C33.7255 63.0441 33.8716 63.0303 34.0715 62.9006C34.6279 62.5398 35.1937 62.1929 35.8178 61.8016C35.6372 62.5308 35.4932 63.2014 35.2967 63.8564C35.2226 64.1038 35.2385 64.2426 35.4566 64.3779C35.8298 64.6093 36.097 64.9735 36.4827 65.1967C36.656 65.2975 36.7878 65.4691 36.952 65.6208Z" fill="#003C5E"/>
<path d="M31.7415 7.1188C31.8945 6.44522 31.9729 5.88369 32.1561 5.35835C32.3306 4.85715 32.2082 4.55548 31.7807 4.27536C31.3653 4.00299 30.9933 3.66555 30.5964 3.35182C30.7274 3.18762 30.8856 3.18634 31.0494 3.17427C31.5282 3.1385 32.0048 3.0773 32.4836 3.05058C32.781 3.0342 32.9361 2.88165 33.0344 2.62265C33.2046 2.17359 33.3895 1.72971 33.5571 1.27979C33.6032 1.1561 33.6773 1.06173 33.7678 0.953125C33.9557 1.50001 34.2716 1.97793 34.3897 2.53861C34.4569 2.85665 34.653 3.02473 35.0047 3.04024C35.5257 3.06308 36.0442 3.13247 36.5643 3.17599C36.6764 3.18547 36.7647 3.22598 36.8656 3.32036C36.4574 3.79312 35.9045 4.10082 35.4529 4.52358C35.2753 4.68993 35.2658 4.79768 35.3184 4.98946C35.4994 5.65313 35.6037 6.33145 35.7145 7.0951C35.159 6.71931 34.6612 6.38446 34.1652 6.04659C33.7144 5.73932 33.7213 5.74578 33.2981 6.04874C32.8241 6.38704 32.3388 6.70896 31.7415 7.1188Z" fill="#003C5E"/>
<path d="M58.3547 46.3594C58.8874 46.8882 59.3472 47.3359 59.7976 47.7932C60.141 48.1418 60.1449 48.1655 60.5996 47.9418C61.1068 47.6928 61.6464 47.5329 62.2264 47.2881C62.1088 47.813 61.8506 48.2332 61.655 48.6766C61.596 48.8102 61.5322 48.9417 61.4658 49.0718C61.315 49.3683 61.3744 49.6191 61.5865 49.8721C61.9459 50.3009 62.2816 50.7491 62.6617 51.2335C62.2312 51.3313 61.8791 51.1731 61.527 51.1193C60.3651 50.9422 60.3483 50.9266 59.7304 51.9071C59.5308 52.2238 59.286 52.4914 59.0063 52.8927C58.8908 52.2126 58.7685 51.6692 58.7154 51.1189C58.6792 50.7418 58.528 50.5608 58.1617 50.4793C57.735 50.3845 57.3166 50.2453 56.9037 50.0988C56.7572 50.0466 56.5637 50.0367 56.49 49.8506C57.0007 49.4377 57.6441 49.2847 58.2022 48.9649C58.3728 48.8671 58.5008 48.7938 58.4879 48.5456C58.453 47.8591 58.459 47.1691 58.3547 46.3594Z" fill="#003C5E"/>
<path d="M64.662 29.5905C64.107 29.1802 63.6144 28.838 63.1498 28.4618C62.9374 28.2898 62.7852 28.273 62.5387 28.4023C61.9656 28.7031 61.3691 28.9595 60.7516 29.3427C60.78 28.8393 60.9364 28.4484 61.0709 28.0459C61.1864 27.6999 61.5592 27.3219 61.348 27.0142C61.173 26.7587 60.8765 26.5096 60.5805 26.3079C60.2637 26.092 60.0082 25.786 59.6345 25.433C60.3236 25.4141 60.8989 25.3727 61.4725 25.3904C61.9337 25.4046 62.2185 25.2568 62.3495 24.7944C62.4344 24.494 62.5935 24.2156 62.7055 23.9217C62.7861 23.7101 62.8495 23.4937 63.0783 23.3145C63.2886 23.9639 63.514 24.5638 63.7359 25.1637C63.8346 25.4313 63.9501 25.5059 64.2057 25.5421C64.8198 25.6296 65.4313 25.7334 66.1721 25.7804C65.6115 26.204 65.1538 26.5871 64.6573 26.9099C64.3996 27.0776 64.3587 27.2456 64.3746 27.5283C64.4121 28.1937 64.5638 28.8419 64.662 29.5905Z" fill="#003C5E"/>
<path d="M9.6521 54.0842C10.2697 54.1622 10.8502 54.2208 11.4251 54.3138C11.7228 54.3621 11.8728 54.2596 12.0271 54.0066C12.3525 53.4726 12.7261 52.968 13.1454 52.3564C13.2786 52.9912 13.4303 53.5196 13.4906 54.0583C13.5462 54.5574 13.7682 54.7745 14.259 54.8469C14.7943 54.9258 15.317 55.0913 15.8842 55.2283C15.3554 55.7157 14.7008 55.9588 14.1207 56.31C13.8863 56.4518 13.8289 56.5652 13.8535 56.782C13.9263 57.4219 14.0069 58.061 14.0914 58.7549C13.6621 58.5588 13.3381 58.267 13.0967 57.9645C12.5193 57.2418 11.9047 57.29 11.1902 57.6813C10.8971 57.8417 10.5765 57.9515 10.249 58.0925C10.1606 57.833 10.2878 57.6361 10.3873 57.4379C10.5748 57.0642 10.7588 56.6906 10.9165 56.3019C11.0083 56.0752 10.9945 55.9118 10.8411 55.7308C10.5179 55.3499 10.2076 54.9586 9.88827 54.5746C9.77966 54.4444 9.66115 54.3242 9.6521 54.0842Z" fill="#003C5E"/>
<path d="M6.55558 32.3564C6.1578 32.9506 5.80399 33.5122 5.41182 34.0461C5.27435 34.2336 5.2597 34.3405 5.38856 34.5335C5.72427 35.0369 6.02939 35.561 6.34872 36.0751C6.39268 36.1458 6.44397 36.21 6.38794 36.3431C5.83977 36.1807 5.28469 36.0169 4.73048 35.8518C4.17369 35.6859 4.12672 35.7131 3.78928 36.1539C3.44925 36.5983 3.08337 37.0223 2.71964 37.4666C2.53519 37.3154 2.62095 37.137 2.60759 36.9848C2.57182 36.569 2.55933 36.1445 2.55889 35.7342C2.55803 35.1908 2.27015 35.027 1.87109 34.8486C1.39703 34.6366 0.878595 34.5159 0.397217 34.1595C0.999693 33.9569 1.53839 33.7126 2.09002 33.5126C2.4796 33.3713 2.61449 33.1355 2.60156 32.7714C2.58087 32.2016 2.68775 31.6466 2.76317 31.0894C2.93598 31.0161 2.97606 31.1605 3.04803 31.2557C3.33892 31.6401 3.65439 32.0082 3.91511 32.412C4.1112 32.7158 4.34693 32.7684 4.66369 32.6904C5.15153 32.5706 5.64109 32.4589 6.13066 32.3456C6.25348 32.318 6.37716 32.29 6.55558 32.3564Z" fill="#003C5E"/>
<path d="M10.9595 49.9779C10.3398 50.1124 9.78302 50.3671 9.17494 50.4352C8.84785 50.4718 8.74701 50.711 8.70348 51.0036C8.616 51.5923 8.51429 52.1788 8.40052 52.877C8.00662 52.2986 7.65238 51.8151 7.33994 51.3057C7.16626 51.0226 7.01327 50.8971 6.64179 50.9682C6.08112 51.0756 5.49976 51.0747 4.86108 51.1247C5.13345 50.5998 5.50622 50.2365 5.83676 49.8456C6.21815 49.3948 6.25737 49.3172 5.96303 48.7945C5.68592 48.3019 5.55535 47.7542 5.23342 47.1474C5.8721 47.4094 6.43019 47.5486 6.9357 47.8279C7.2085 47.9787 7.43216 47.9313 7.65712 47.7262C8.13289 47.293 8.61987 46.8724 9.07841 46.4678C9.07841 47.1336 9.10427 47.7917 9.06635 48.4463C9.04997 48.7273 9.12194 48.8747 9.36241 48.988C9.77699 49.1832 10.1843 49.394 10.5937 49.5995C10.7398 49.6732 10.9091 49.7232 10.9595 49.9779Z" fill="#003C5E"/>
<path d="M52.018 59.9193C51.5831 60.3373 51.0556 60.636 50.5592 60.9635C50.2997 61.1346 50.2454 61.2768 50.2532 61.5595C50.2704 62.1784 50.4019 62.7843 50.4622 63.4708C49.9489 63.1726 49.5542 62.8287 49.1823 62.4787C48.8319 62.149 48.5199 62.1314 48.1191 62.33C47.6179 62.5783 47.1012 62.7959 46.4901 63.0722C46.7232 62.4563 46.8779 61.9284 47.1158 61.4263C47.3434 60.9467 47.3214 60.9221 46.9814 60.5515C46.5659 60.0986 46.1626 59.6344 45.7126 59.1293C46.3966 59.0875 46.9874 59.2155 47.5834 59.2586C47.9299 59.2836 48.1656 59.2151 48.3199 58.8505C48.5621 58.2778 48.8703 57.733 49.1801 57.1172C49.3805 57.8136 49.6524 58.42 49.7309 59.0849C49.7606 59.3375 49.8735 59.4905 50.17 59.5206C50.626 59.5668 51.0755 59.6754 51.5288 59.7495C51.6952 59.7758 51.8693 59.7633 52.018 59.9193Z" fill="#003C5E"/>
<path d="M24.7677 60.2695C25.2956 60.8806 25.7473 61.3641 26.1476 61.8865C26.3118 62.1006 26.4372 62.1291 26.6626 62.0356C27.1651 61.8266 27.6775 61.6425 28.2102 61.5214C28.3119 61.4982 28.4136 61.4633 28.5601 61.5676C28.2468 62.1192 27.9559 62.6958 27.6 63.2285C27.4345 63.4763 27.4698 63.6107 27.6284 63.8167C28.0206 64.3248 28.3908 64.8497 28.8054 65.4169C28.099 65.3035 27.4599 65.2208 26.8307 65.0911C26.5394 65.0312 26.3584 65.0923 26.1873 65.3294C25.8339 65.8185 25.4581 66.2917 25.0185 66.8675C24.9655 66.2878 24.8776 65.8069 24.8888 65.3285C24.9018 64.7674 24.6867 64.4705 24.1515 64.2843C23.6464 64.1089 23.1124 63.9779 22.616 63.656C22.8258 63.3991 23.1344 63.4013 23.3775 63.2845C23.7735 63.0936 24.3182 63.0242 24.5423 62.7161C24.7643 62.4105 24.6733 61.8735 24.7082 61.437C24.7345 61.1047 24.7427 60.7716 24.7677 60.2695Z" fill="#003C5E"/>
<path d="M58.4467 22.4612C58.4235 21.754 58.4325 21.1045 58.4963 20.462C58.5252 20.1689 58.4523 20.053 58.2162 19.9448C57.721 19.7177 57.234 19.4738 56.744 19.2351C56.6346 19.1816 56.4962 19.1614 56.4587 18.9963C57.0246 18.7308 57.6529 18.6752 58.2425 18.4869C58.5653 18.3839 58.723 18.246 58.7583 17.8909C58.8139 17.3363 58.9389 16.7889 59.0423 16.1934C59.325 16.2817 59.4091 16.5127 59.5375 16.6791C59.7806 16.9932 60.0314 17.3108 60.2107 17.6621C60.3598 17.9538 60.5619 17.9866 60.826 17.9456C61.26 17.8784 61.6931 17.8073 62.1262 17.7327C62.2883 17.7052 62.4477 17.6724 62.6774 17.7388C62.3965 18.1016 62.1749 18.4873 61.8608 18.7705C61.3014 19.2751 61.354 19.8013 61.6867 20.3706C61.9108 20.7537 62.0414 21.1718 62.1999 21.5894C61.9707 21.6695 61.7871 21.5639 61.5988 21.4786C61.3126 21.3489 61.0269 21.2175 60.7386 21.0929C60.3304 20.9166 60.0016 20.9946 59.6832 21.3316C59.3013 21.7363 58.8618 22.0871 58.4467 22.4612Z" fill="#003C5E"/>
<path d="M57.9387 54.2344C57.9512 54.349 57.9491 54.4688 57.8646 54.53C57.6026 54.72 57.4461 54.9976 57.2449 55.2372C56.5179 56.1038 56.5204 56.1047 56.9527 57.1239C57.0828 57.4307 57.2612 57.7191 57.328 58.0625C57.1358 58.175 56.9798 58.0996 56.8074 58.0095C56.42 57.8074 56.0244 57.6225 55.6189 57.4536C55.3469 57.3402 55.1905 57.3971 55.0035 57.5527C54.6165 57.8742 54.2256 58.1914 53.8412 58.5159C53.7296 58.6099 53.6365 58.7284 53.4107 58.7029C53.4809 58.1853 53.5352 57.6742 53.6231 57.1692C53.6938 56.7641 53.6494 56.4865 53.2288 56.2491C52.7276 55.9655 52.2169 55.6668 51.7644 55.2406C52.3557 54.9984 52.9581 54.9446 53.5412 54.823C53.8808 54.7524 54.0299 54.6231 54.0886 54.2706C54.1877 53.6745 54.4023 53.0992 54.426 52.4502C54.7199 52.5493 54.7841 52.8208 54.9056 53.0096C55.1194 53.3405 55.3517 53.6784 55.4965 54.0344C55.665 54.4481 55.8947 54.4912 56.2675 54.4335C56.8217 54.3468 57.3811 54.2986 57.9387 54.2344Z" fill="#003C5E"/>
<path d="M183.525 38.5159C183.556 40.3888 182.023 41.6369 180.512 41.6532C178.779 41.6718 177.39 40.0514 177.402 38.5068C177.414 37.0881 178.712 35.4117 180.574 35.457C182.199 35.4957 183.591 36.7688 183.525 38.5159Z" fill="#003C5E"/>
<path d="M43.0075 34.0495C42.5313 34.1323 42.1469 33.9754 41.7474 33.9858C40.5718 34.0168 39.3961 33.9422 38.2183 33.9832C37.3792 34.0121 36.5428 34.0327 35.7162 34.1806C35.4662 34.2254 35.3576 34.1491 35.3275 33.9177C35.2249 33.1303 35.0443 32.3572 34.9659 31.5629C34.8715 30.6071 34.6453 29.665 34.5285 28.7104C34.3203 27.0077 33.951 25.3292 33.8023 23.6187C33.7743 23.2946 33.5179 22.9119 33.776 22.6641C33.9764 22.4719 34.3535 22.434 34.6608 22.3874C35.7227 22.2276 36.7108 21.8095 37.7382 21.5311C37.9964 21.4613 38.1205 21.4678 38.2196 21.7238C38.4989 22.4452 38.835 23.1477 39.0664 23.8837C39.2677 24.5246 39.5469 25.1318 39.7827 25.7558C40.3434 27.2409 40.9243 28.7191 41.5026 30.1977C41.7763 30.898 42.0439 31.603 42.3365 32.2968C42.5718 32.8545 42.7705 33.426 43.0075 34.0495Z" fill="#F8F2EC"/>
<path d="M30.1154 23.3242C30.2558 24.3042 30.3778 25.2562 30.5308 26.203C30.8338 28.0824 31.0729 29.9713 31.3854 31.8503C31.5289 32.7143 31.6 33.5935 31.7685 34.4562C31.8206 34.7239 31.7288 34.8139 31.4573 34.8618C29.9693 35.1242 28.5225 35.5479 27.1129 36.0883C26.2811 36.4072 25.4666 36.7718 24.5789 37.1433C24.6569 35.9844 24.7318 34.8829 24.8038 33.7809C24.8202 33.5297 24.8133 33.2772 24.8374 33.0268C24.9486 31.8774 24.9404 30.7229 25.0034 29.5714C25.0732 28.2957 25.1589 27.0214 25.2365 25.7462C25.2736 25.1398 25.3033 24.533 25.3434 23.9271C25.3714 23.5022 25.3955 23.4664 25.8317 23.4751C27.24 23.5022 28.6436 23.4104 30.1154 23.3242Z" fill="#F8F2EC"/>
<path d="M35.8382 37.607C35.746 36.9606 35.7542 36.9192 36.2485 36.908C37.4659 36.8796 38.6653 36.6408 39.8815 36.6167C40.8041 36.5982 41.732 36.5512 42.643 36.7563C42.9779 36.8317 43.4373 36.821 43.4778 37.2713C43.5123 37.6583 43.2472 37.9483 42.893 38.1556C41.9651 38.6982 40.9856 39.0934 39.9349 39.3261C39.3212 39.4619 38.7213 39.6584 38.1094 39.8023C37.6008 39.9217 37.0841 40.0053 36.5709 40.1027C36.2287 40.1678 36.127 40.1186 36.1261 39.7859C36.1248 39.0227 35.883 38.2966 35.8382 37.607Z" fill="#F8F2EC"/>
<path d="M32.187 37.5498C32.3547 38.4212 32.527 39.2374 32.5826 40.0735C32.6292 40.7785 32.6288 40.7889 31.9332 40.8871C30.1788 41.1349 28.414 41.0854 26.6505 41.05C26.2928 41.0427 25.939 40.9548 25.6201 40.7893C25.1469 40.5437 25.1064 40.2329 25.465 39.8425C25.6973 39.5895 25.9847 39.4249 26.289 39.2749C28.0171 38.4259 29.8926 38.0747 31.7462 37.6476C31.8681 37.6196 31.9905 37.5933 32.187 37.5498Z" fill="#F8F2EC"/>
<path d="M20.7273 19.2914C21.9025 19.9266 23.0726 20.168 24.2327 20.4369C24.621 20.527 25.0231 20.502 25.4191 20.5524C27.0684 20.7614 28.7133 20.667 30.3691 20.5192C31.6546 20.4041 32.8932 20.1098 34.1231 19.7926C35.4582 19.4483 36.7468 18.9333 37.9901 18.317C38.961 17.8361 39.885 17.2745 40.8344 16.7432C40.4849 17.2862 39.9678 17.6607 39.4734 18.0373C38.1504 19.0462 36.6796 19.7991 35.1122 20.3494C33.7081 20.8424 32.2554 21.1342 30.7806 21.3354C29.2744 21.541 27.7635 21.5531 26.2573 21.438C24.7524 21.3229 23.2592 21.0712 21.8784 20.4201C21.4276 20.2072 20.9376 19.9637 20.7273 19.2914Z" fill="#FFFEFE"/>
<path d="M136.79 43.7645C136.79 44.8789 136.784 45.9934 136.794 47.1074C136.797 47.3772 136.773 47.5254 136.431 47.5211C134.918 47.5022 133.404 47.5035 131.89 47.5198C131.544 47.5237 131.477 47.3927 131.479 47.079C131.49 44.8712 131.483 42.6638 131.486 40.456C131.486 40.0294 131.494 40.0216 131.949 40.0203C133.421 40.0164 134.893 40.0169 136.364 40.0203C136.782 40.0212 136.787 40.0289 136.788 40.484C136.792 41.5778 136.79 42.6711 136.79 43.7645Z" fill="#F8F2EC"/>
<path d="M125.127 13.6941C125.127 14.7029 125.129 15.7114 125.126 16.7202C125.124 17.1818 125.118 17.1926 124.701 17.1939C123.188 17.1986 121.675 17.1891 120.162 17.2012C119.846 17.2038 119.727 17.1279 119.73 16.7819C119.746 14.7016 119.744 12.621 119.731 10.5408C119.729 10.2063 119.84 10.1133 120.164 10.1163C121.677 10.1301 123.19 10.1305 124.703 10.1163C125.029 10.1133 125.14 10.2094 125.134 10.5425C125.115 11.5923 125.127 12.6434 125.127 13.6941Z" fill="#F8F2EC"/>
<path d="M87.1485 24.1571C87.1485 25.2289 87.1395 26.3011 87.1541 27.3729C87.1584 27.684 87.096 27.8026 86.7421 27.7978C85.2101 27.7771 83.6772 27.7883 82.1451 27.8025C81.8236 27.8056 81.7086 27.7056 81.7107 27.3699C81.7237 25.2052 81.7219 23.04 81.712 20.8754C81.7107 20.5771 81.7978 20.4728 82.1046 20.4754C83.6599 20.4879 85.2153 20.4905 86.7706 20.4737C87.0938 20.4703 87.1563 20.594 87.1533 20.8784C87.1421 21.9709 87.1485 23.0642 87.1485 24.1571Z" fill="#F8F2EC"/>
<path d="M87.1488 13.1481C87.1488 14.0522 87.1358 14.9568 87.1557 15.861C87.163 16.1997 87.0419 16.2811 86.72 16.2781C85.206 16.2626 83.6916 16.2738 82.1777 16.2695C81.7304 16.2682 81.7205 16.2596 81.7196 15.823C81.7153 14.0565 81.7235 12.2901 81.7127 10.5236C81.7105 10.2094 81.789 10.0728 82.1324 10.0762C83.6886 10.0905 85.2448 10.0887 86.801 10.0767C87.0802 10.0745 87.1591 10.1642 87.1548 10.4357C87.1402 11.3394 87.1488 12.2439 87.1488 13.1481Z" fill="#F8F2EC"/>
<path d="M172.746 18.6778C172.746 15.8602 172.745 13.0422 172.747 10.2246C172.747 9.72086 172.752 9.7174 173.253 9.71697C174.618 9.71654 175.983 9.71655 177.348 9.72129C177.836 9.72301 177.84 9.72991 177.84 10.2397C177.841 12.6578 177.841 15.0763 177.841 17.4944C177.841 20.5857 177.841 23.6769 177.841 26.7677C177.841 26.8729 177.842 26.9781 177.841 27.0832C177.836 27.6331 177.836 27.6366 177.305 27.6374C176.169 27.6396 175.034 27.646 173.898 27.6335C173.527 27.6292 173.056 27.8012 172.813 27.5392C172.6 27.3095 172.75 26.8548 172.749 26.5001C172.743 23.8928 172.746 21.2856 172.746 18.6778Z" fill="#F8F2EC"/>
<path d="M104.393 21.0475C102.978 21.0475 101.636 21.0475 100.21 21.0475C100.908 18.6906 101.593 16.3768 102.278 14.0635C102.312 14.0622 102.346 14.0609 102.379 14.0596C103.045 16.3695 103.71 18.679 104.393 21.0475Z" fill="#F8F2EC"/>
<path d="M194.348 18.705C194.348 21.4593 194.348 24.2135 194.348 26.9678C194.348 27.1147 194.347 27.2621 194.346 27.4091C194.345 27.5646 194.262 27.6357 194.111 27.6375C194.048 27.6383 193.985 27.6388 193.922 27.6388C192.492 27.6388 191.062 27.6301 189.633 27.6452C189.303 27.6487 189.202 27.5444 189.205 27.216C189.218 25.4499 189.211 23.6839 189.211 21.9178C189.211 18.1125 189.211 14.3071 189.211 10.5014C189.211 10.3751 189.228 10.2462 189.208 10.1234C189.149 9.7653 189.337 9.70884 189.639 9.711C191.004 9.72134 192.369 9.71487 193.734 9.71789C194.428 9.71961 194.346 9.65884 194.347 10.3156C194.349 13.1125 194.348 15.9086 194.348 18.705Z" fill="#F8F2EC"/>
<path d="M98.2645 43.6365C98.2645 42.6694 98.2762 41.7023 98.2581 40.7357C98.252 40.4086 98.3529 40.3017 98.6851 40.3047C100.199 40.3198 101.712 40.319 103.226 40.3056C103.546 40.3026 103.664 40.3897 103.661 40.7275C103.647 42.7035 103.657 44.6794 103.652 46.6553C103.651 47.0802 103.641 47.0876 103.181 47.0889C101.71 47.0928 100.238 47.0932 98.767 47.0884C98.2779 47.0867 98.2693 47.0781 98.2667 46.6002C98.2602 45.6124 98.2645 44.6246 98.2645 43.6365Z" fill="#FEFEFE"/>
<path d="M114.054 48.8774C114.054 46.1636 114.054 43.4503 114.054 40.7366C114.054 40.6315 114.051 40.5263 114.054 40.4212C114.067 39.9458 114.067 39.9368 114.559 39.935C115.947 39.9303 117.335 39.9307 118.724 39.935C119.182 39.9363 119.189 39.9445 119.189 40.4384C119.192 43.047 119.191 45.6551 119.191 48.2637C119.191 51.2507 119.191 54.2376 119.191 57.225C119.191 57.3724 119.183 57.5198 119.191 57.6667C119.204 57.8899 119.091 57.9675 118.885 57.9546C118.823 57.9507 118.759 57.9546 118.696 57.9546C117.308 57.9546 115.92 57.9572 114.531 57.9533C114.063 57.952 114.055 57.9447 114.055 57.4607C114.052 54.5992 114.054 51.738 114.054 48.8774Z" fill="#F8F2EC"/>
<path d="M178.053 38.4528C177.917 37.2388 179.174 35.9373 180.567 35.9533C181.827 35.9679 183.057 37.1319 183.043 38.5541C183.028 40.112 181.666 41.0334 180.765 41.0532C179.237 41.0859 178.05 39.9314 178.053 38.4528Z" fill="#F8F2EC"/>
<path d="M180.641 37.277C180.97 37.2878 181.31 37.2167 181.585 37.499C181.826 37.7468 181.929 38.0204 181.712 38.2678C181.365 38.6638 181.475 39.0267 181.662 39.4189C181.716 39.5309 181.794 39.6753 181.65 39.7477C181.515 39.8158 181.358 39.774 181.282 39.6102C181.186 39.4017 181.075 39.1961 181.01 38.9771C180.933 38.716 180.743 38.7561 180.559 38.7625C180.335 38.7703 180.374 38.9435 180.371 39.0849C180.367 39.2318 180.372 39.3788 180.368 39.5253C180.364 39.6594 180.334 39.771 180.158 39.7688C179.997 39.7671 179.863 39.7447 179.861 39.5417C179.86 39.3107 179.859 39.0801 179.859 38.8492C179.858 38.4923 179.855 38.1355 179.86 37.7791C179.865 37.2835 179.867 37.2835 180.389 37.2775C180.473 37.2766 180.557 37.2775 180.641 37.277Z" fill="#0A0A0A"/>
<path d="M180.767 37.6564C181.111 37.6577 181.363 37.8292 181.359 38.058C181.355 38.2571 181.071 38.3989 180.723 38.4239C180.399 38.4476 180.342 38.2933 180.36 38.0184C180.384 37.6667 180.385 37.6546 180.767 37.6564Z" fill="#EEEEEE"/>
</svg>
