<svg width="256" height="55" viewBox="0 0 256 55" fill="none" xmlns="http://www.w3.org/2000/svg">
<path d="M132.258 27.6679C132.258 26.9027 132.215 26.1374 132.173 25.4147C132.13 24.692 132.003 23.9267 131.918 23.204H121.587H111.256L108.11 28.1356L104.964 33.0672H120.907C119.971 36.2982 118.143 39.0616 115.678 41.0173C113.212 42.9729 110.108 44.1633 106.495 44.1633C101.988 44.1633 97.9918 42.2927 95.0583 39.2742C92.1249 36.2557 90.3393 32.1319 90.3393 27.5829C90.3393 23.119 92.1249 19.0376 95.1008 16.0617C98.0343 13.0857 102.116 11.2151 106.622 11.2151C108.578 11.2151 110.406 11.5127 112.106 12.1079C113.807 12.6606 115.337 13.5108 116.698 14.5312L119.461 10.1097L122.225 5.6883C120.099 4.20032 117.718 3.00993 115.082 2.24468C112.489 1.43692 109.641 1.0543 106.665 1.0543C102.668 1.0543 99.0546 1.77703 95.8661 3.09496C92.6775 4.41289 89.8291 6.32601 87.4483 8.70679C81.794 14.3611 80.1785 20.1005 79.0731 25.3297C77.9252 30.6014 77.2875 35.4055 73.4188 39.2317C71.8033 40.8472 70.0602 42.0801 68.1046 42.8879C66.1489 43.6956 64.0658 44.1208 61.8125 44.1208C57.1785 44.1208 53.0122 42.2077 49.9512 39.1892C46.9327 36.1707 45.0621 32.0469 45.0621 27.5829C45.0621 23.204 46.9327 19.1227 49.9512 16.1042C52.9696 13.0857 57.136 11.1726 61.8125 11.1301C63.7682 11.1726 65.5537 11.4702 67.2118 11.9803C68.8698 12.4905 70.4003 13.2983 71.7607 14.3186L74.5667 9.89717L77.3726 5.47573C75.2469 3.98775 72.8661 2.83988 70.2728 2.07463C67.6794 1.30938 64.831 0.926758 61.855 0.926758C57.2635 0.926758 52.9696 2.03211 49.2284 3.98775C45.4872 5.94338 42.2987 8.70678 39.8754 12.0229C38.9401 9.08941 36.9844 6.58109 34.3061 4.83802C31.6277 3.05244 28.2266 2.03212 24.4004 2.03212H12.4115H0.465088V27.6679V53.2187H26.8236C30.1397 53.2187 33.1157 52.411 35.5815 51.0505C38.0473 49.6901 40.0029 47.7345 41.3634 45.4387C43.8292 48.1596 46.8051 50.3703 50.2062 51.9008C53.6073 53.4313 57.3911 54.2816 61.4724 54.2816C66.2339 54.2816 70.6129 53.1762 74.3966 51.1781C78.1803 49.1799 81.3689 46.3315 83.8347 42.8029C86.1729 46.289 89.3615 49.1374 93.1877 51.1356C96.9714 53.1337 101.435 54.2816 106.197 54.2816C113.552 54.2816 120.056 51.3056 124.733 46.4591C129.409 41.6975 132.258 35.0228 132.258 27.6679ZM11.5612 22.7789V11.5977H24.1878C25.8033 11.5977 27.2063 12.1929 28.2266 13.1707C29.2469 14.1486 29.8846 15.5515 29.8846 17.167C29.8846 18.7826 29.2469 20.1855 28.2266 21.1633C27.2063 22.1837 25.7608 22.7789 24.1878 22.7789H17.8958H11.5612ZM11.5612 43.7382V32.1319H26.6961C28.3967 32.1319 29.8846 32.7696 30.99 33.7899C32.0954 34.8103 32.7756 36.2557 32.7756 37.9138C32.7756 39.5718 32.0954 41.0173 30.99 42.0801C29.8846 43.143 28.3967 43.7807 26.6961 43.7807H19.1286H11.5612V43.7382Z" fill="#003C5E"/>
<path d="M157.468 47.0115C157.511 47.0965 157.511 47.2241 157.511 47.3516C157.511 47.4792 157.553 47.6492 157.553 47.7768C157.553 49.3923 157.001 50.7952 156.023 51.8156C155.045 52.8359 153.642 53.4311 152.027 53.4311C150.411 53.4311 148.923 52.7934 147.86 51.688C146.797 50.6252 146.16 49.1372 146.16 47.4792C146.16 45.8211 146.84 44.3331 147.903 43.2703C148.966 42.2075 150.454 41.5272 152.112 41.5272C152.792 41.5272 153.43 41.6123 154.025 41.7823C154.62 41.9524 155.173 42.2075 155.683 42.5901L155.215 43.3128L154.747 44.0355C154.365 43.7379 153.94 43.5254 153.515 43.3978C153.089 43.2703 152.622 43.1853 152.112 43.1853C150.964 43.1853 149.943 43.6529 149.221 44.3757C148.498 45.0984 148.03 46.1612 148.03 47.3941C148.03 48.5845 148.455 49.6474 149.178 50.4126C149.901 51.1779 150.879 51.6455 152.027 51.6455C153.089 51.6455 153.94 51.3054 154.577 50.7527C155.215 50.2 155.598 49.3923 155.768 48.4995H151.899L152.409 47.6917L152.919 46.884L157.468 47.0115ZM176.685 53.5161C178.343 53.5161 179.831 52.8359 180.936 51.7731C181.999 50.7102 182.679 49.2222 182.679 47.6067C182.679 45.9912 181.999 44.5032 180.936 43.4404C179.873 42.3775 178.343 41.6973 176.685 41.6973C175.027 41.6973 173.539 42.3775 172.476 43.4404C171.413 44.5032 170.733 45.9912 170.733 47.6067C170.733 49.2222 171.413 50.7102 172.476 51.7731C173.539 52.8359 175.027 53.5161 176.685 53.5161ZM186.973 41.9098V48.8821C186.973 49.6899 187.271 50.4551 187.781 50.9653C188.291 51.4755 189.014 51.8156 189.864 51.8156C190.714 51.8156 191.437 51.4755 191.947 50.9653C192.457 50.4551 192.755 49.6899 192.755 48.8821V41.9098H194.54V48.8821C194.54 50.2001 194.03 51.3479 193.222 52.1982C192.372 53.006 191.224 53.5161 189.864 53.5161C188.503 53.5161 187.356 53.006 186.505 52.1982C185.655 51.3904 185.145 50.2426 185.145 48.8821V41.9098H186.973ZM164.696 41.9098C165.886 41.9098 166.864 42.2925 167.544 42.9727C168.224 43.6104 168.607 44.5457 168.607 45.566C168.607 46.4163 168.352 47.1391 167.927 47.7343C167.502 48.3294 166.864 48.7546 166.056 48.9246L167.417 51.0928L168.777 53.261H166.651L165.376 51.2204L164.101 49.1797H161.932V53.261H160.104V41.9098H164.696ZM202.278 41.9098C203.468 41.9098 204.446 42.335 205.169 42.9727C205.849 43.6529 206.232 44.5457 206.232 45.6086C206.232 46.6289 205.849 47.5642 205.169 48.2444C204.489 48.9246 203.468 49.3073 202.278 49.3073H199.685V53.261H197.856V41.9098H202.278ZM176.685 51.8156C175.537 51.8156 174.516 51.3479 173.794 50.5827C173.071 49.8174 172.603 48.7546 172.603 47.6067C172.603 46.4588 173.071 45.396 173.794 44.6307C174.516 43.8655 175.579 43.3978 176.685 43.3978C177.832 43.3978 178.853 43.8655 179.618 44.6307C180.341 45.396 180.808 46.4588 180.808 47.6067C180.808 48.7971 180.341 49.8599 179.618 50.5827C178.895 51.3479 177.875 51.8156 176.685 51.8156ZM202.278 47.6917C202.873 47.6917 203.383 47.4792 203.766 47.139C204.149 46.7989 204.361 46.2888 204.361 45.6511C204.361 45.0134 204.149 44.5457 203.766 44.1631C203.383 43.823 202.873 43.6104 202.278 43.6104H199.685V47.6917H202.278ZM164.696 47.5217C165.291 47.5217 165.759 47.3516 166.141 47.0115C166.481 46.6714 166.694 46.2038 166.694 45.566C166.694 44.9708 166.481 44.4607 166.141 44.1206C165.801 43.7805 165.291 43.5679 164.696 43.5679H161.932V47.5217H164.696ZM255.463 27.115C255.505 27.2001 255.505 27.3276 255.505 27.4552C255.505 27.5827 255.548 27.7528 255.548 27.8803C255.548 29.4958 254.995 30.8988 254.017 31.9191C253.039 32.9394 251.636 33.5772 250.021 33.5772C248.363 33.5772 246.917 32.9394 245.855 31.8341C244.792 30.7712 244.154 29.2833 244.154 27.6252C244.154 25.9672 244.792 24.4792 245.897 23.4164C246.96 22.3535 248.448 21.6733 250.106 21.6733C250.786 21.6733 251.424 21.7583 252.019 21.9284C252.614 22.0984 253.167 22.3535 253.677 22.7361L253.209 23.4589L252.742 24.1816C252.359 23.884 251.934 23.6714 251.509 23.5439C251.084 23.4163 250.616 23.3313 250.106 23.3313C248.958 23.3313 247.938 23.799 247.215 24.5217C246.492 25.287 246.025 26.3498 246.025 27.5402C246.025 28.7306 246.45 29.7934 247.172 30.5587C247.895 31.3239 248.873 31.7916 250.021 31.7916C251.084 31.7916 251.934 31.4515 252.572 30.8988C253.209 30.3461 253.592 29.5383 253.762 28.6455H249.893L250.404 27.8378L250.914 27.03L255.463 27.115ZM196.751 22.0134V28.9857C196.751 29.7934 197.049 30.5587 197.559 31.0688C198.069 31.579 198.792 31.9191 199.642 31.9191C200.492 31.9191 201.215 31.579 201.725 31.0688C202.235 30.5587 202.533 29.7934 202.533 28.9857V22.0134H204.319V28.9857C204.319 30.3036 203.808 31.4515 203.001 32.3017C202.15 33.1095 201.003 33.6197 199.642 33.6197C198.282 33.6197 197.134 33.1095 196.283 32.3017C195.433 31.494 194.923 30.3461 194.923 28.9857V22.0134H196.751ZM188.291 33.6197C189.566 33.6197 190.544 33.237 191.224 32.6418C191.905 32.0041 192.287 31.1539 192.287 30.176C192.287 29.1132 191.862 28.3905 191.224 27.9228C190.587 27.4126 189.736 27.1576 188.844 26.86C188.121 26.6474 187.483 26.4773 187.058 26.1797C186.633 25.9247 186.378 25.5846 186.378 25.0319C186.378 24.5642 186.548 24.1816 186.845 23.884C187.186 23.5864 187.653 23.4164 188.333 23.4164C188.759 23.4164 189.184 23.5014 189.609 23.6289C190.034 23.7565 190.459 23.969 190.884 24.2666L191.352 23.5439L191.82 22.8212C191.352 22.481 190.842 22.226 190.289 22.0559C189.694 21.8858 189.099 21.7583 188.418 21.7583C187.228 21.7583 186.25 22.0984 185.613 22.6936C184.975 23.2888 184.592 24.1391 184.592 25.1169C184.592 26.2223 185.017 26.9025 185.655 27.3701C186.293 27.8378 187.143 28.1354 188.036 28.3905C188.759 28.603 189.396 28.8156 189.821 29.0707C190.247 29.3258 190.502 29.6659 190.502 30.2186C190.502 30.6862 190.332 31.1113 189.949 31.4089C189.609 31.7065 189.056 31.8766 188.333 31.8766C187.738 31.8766 187.228 31.7491 186.718 31.579C186.208 31.3664 185.698 31.1114 185.23 30.8138L184.762 31.5365L184.295 32.2592C184.762 32.5993 185.315 32.9394 185.995 33.1945C186.633 33.4496 187.398 33.6197 188.291 33.6197ZM163.505 33.6197C165.163 33.6197 166.651 32.9394 167.757 31.8766C168.82 30.8138 169.5 29.3258 169.5 27.7102C169.5 26.0947 168.82 24.6067 167.757 23.5014C166.651 22.4385 165.163 21.7583 163.505 21.7583C161.847 21.7583 160.359 22.4385 159.296 23.5014C158.234 24.5642 157.553 26.0522 157.553 27.7102C157.553 29.3258 158.234 30.8138 159.296 31.8766C160.359 32.9394 161.847 33.6197 163.505 33.6197ZM146.117 27.7102C146.117 29.3683 146.797 30.8563 147.86 31.9191C148.966 32.982 150.454 33.6622 152.154 33.6622C152.962 33.6622 153.642 33.5346 154.28 33.3221C154.918 33.1095 155.428 32.8119 155.98 32.3868L155.513 31.664L155.045 30.9413C154.62 31.2814 154.152 31.5365 153.685 31.7065C153.217 31.8766 152.664 31.9616 152.112 31.9616C151.006 31.9616 149.986 31.494 149.263 30.7287C148.54 29.9635 148.073 28.9006 148.073 27.7102C148.073 26.5199 148.498 25.457 149.263 24.6918C149.986 23.9265 151.006 23.4589 152.112 23.4589C152.707 23.4589 153.217 23.5439 153.685 23.7139C154.152 23.884 154.62 24.1391 155.045 24.4792L155.513 23.7565L155.98 23.0337C155.47 22.6511 154.918 22.311 154.28 22.0984C153.642 21.8859 152.962 21.7583 152.154 21.7583C150.454 21.7583 148.966 22.396 147.86 23.5014C146.797 24.5642 146.117 26.0522 146.117 27.7102ZM228.211 33.3646H226.383V22.0134H228.211V33.3646ZM233.993 33.3646H232.25V22.0134H234.503L237.139 26.3073L239.775 30.6012V22.0134H241.518V33.3646H239.392L236.672 28.9857L233.951 24.6067V33.3646H233.993ZM223.62 23.7139H220.049V33.3646H218.178V23.7139H214.649V22.0134H223.62V23.7139ZM209.378 31.664H214.99V33.3646H207.55V22.0134H209.378V31.664ZM173.836 33.3646H172.093V22.0134H174.346L176.982 26.3073L179.618 30.6012V22.0134H181.361V33.3646H179.235L176.515 28.9857L173.794 24.6067V33.3646H173.836ZM163.505 31.9191C162.357 31.9191 161.337 31.4515 160.614 30.6862C159.892 29.921 159.424 28.8581 159.424 27.7102C159.424 26.5199 159.892 25.457 160.614 24.7343C161.337 23.969 162.4 23.5014 163.505 23.5014C164.653 23.5014 165.674 23.969 166.439 24.7343C167.162 25.4995 167.629 26.5624 167.629 27.7102C167.629 28.9006 167.162 29.9635 166.439 30.6862C165.674 31.4515 164.653 31.9191 163.505 31.9191ZM196.794 13.6807C198.452 13.6807 199.94 13.0005 201.045 11.9376C202.108 10.8748 202.788 9.38679 202.788 7.77127C202.788 6.15574 202.108 4.66776 201.045 3.5624C199.982 2.49956 198.494 1.81934 196.794 1.81934C195.136 1.81934 193.648 2.49956 192.585 3.5624C191.522 4.62525 190.842 6.11323 190.842 7.77127C190.842 9.38679 191.522 10.8748 192.585 11.9376C193.648 13.043 195.136 13.6807 196.794 13.6807ZM174.942 13.6807C176.217 13.6807 177.195 13.3406 177.875 12.7029C178.555 12.0652 178.938 11.2149 178.938 10.2371C178.938 9.17423 178.513 8.45149 177.875 7.98384C177.237 7.51619 176.387 7.21859 175.494 6.92099C174.771 6.70842 174.134 6.53837 173.709 6.24077C173.284 5.98569 173.028 5.64558 173.028 5.0929C173.028 4.62525 173.198 4.24262 173.496 3.94503C173.836 3.64743 174.304 3.47738 174.984 3.47738C175.409 3.47738 175.834 3.5624 176.259 3.68995C176.685 3.81749 177.11 4.03006 177.535 4.32765L178.003 3.60492L178.47 2.88218C178.003 2.54207 177.492 2.28699 176.94 2.11694C176.345 1.94688 175.749 1.81934 175.069 1.81934C173.879 1.81934 172.901 2.15945 172.263 2.75464C171.625 3.34984 171.243 4.20011 171.243 5.17793C171.243 6.28329 171.668 6.96351 172.306 7.43116C172.943 7.89882 173.794 8.1964 174.686 8.45149C175.409 8.66406 176.047 8.87663 176.472 9.13172C176.897 9.3868 177.152 9.72691 177.152 10.2796C177.152 10.7472 176.982 11.1724 176.6 11.47C176.259 11.7676 175.707 11.9376 174.984 11.9376C174.389 11.9376 173.879 11.8101 173.369 11.64C172.858 11.4275 172.348 11.1724 171.881 10.8748L171.413 11.5975L170.945 12.3203C171.413 12.6604 171.966 13.0005 172.646 13.2556C173.284 13.5531 174.049 13.6807 174.942 13.6807ZM163.165 13.6807C164.823 13.6807 166.311 13.0005 167.417 11.9376C168.479 10.8748 169.16 9.38679 169.16 7.77127C169.16 6.15574 168.479 4.66776 167.417 3.5624C166.354 2.49956 164.866 1.81934 163.165 1.81934C161.507 1.81934 160.019 2.49956 158.956 3.5624C157.894 4.62525 157.213 6.11323 157.213 7.77127C157.213 9.38679 157.894 10.8748 158.956 11.9376C160.019 13.043 161.507 13.6807 163.165 13.6807ZM207.635 2.11694L210.271 6.41083L212.906 10.7047V2.11694H214.649V13.4681H212.524L209.803 9.08919L207.082 4.71028V13.5106H205.381V2.15945L207.635 2.11694ZM189.694 2.11694V3.81749H186.123V13.4681H184.252V3.81749H180.723V2.11694H189.694ZM151.176 2.11694C152.197 2.11694 153.047 2.45705 153.685 2.96721C154.322 3.51989 154.705 4.28514 154.705 5.13542C154.705 5.64558 154.577 6.07072 154.365 6.45334C154.11 6.83597 153.812 7.17607 153.387 7.38864C153.94 7.64373 154.407 8.02636 154.705 8.49401C155.003 8.96166 155.173 9.51433 155.173 10.1095C155.173 11.0448 154.79 11.8526 154.152 12.4478C153.515 13.043 152.622 13.3831 151.559 13.3831H146.712V2.0319L151.176 2.11694ZM196.794 11.9801C195.646 11.9801 194.625 11.5125 193.903 10.7472C193.18 9.98199 192.712 8.91914 192.712 7.77127C192.712 6.6234 193.18 5.51804 193.903 4.7953C194.625 4.03005 195.688 3.5624 196.794 3.5624C197.942 3.5624 198.962 4.03005 199.727 4.7953C200.45 5.56055 200.917 6.6234 200.917 7.77127C200.917 8.96166 200.45 10.0245 199.727 10.7472C198.962 11.555 197.942 11.9801 196.794 11.9801ZM163.165 11.9801C162.017 11.9801 160.997 11.5125 160.274 10.7472C159.552 9.98199 159.084 8.91914 159.084 7.77127C159.084 6.6234 159.552 5.51804 160.274 4.7953C160.997 4.03005 162.06 3.5624 163.165 3.5624C164.313 3.5624 165.333 4.03005 166.099 4.7953C166.821 5.56055 167.289 6.6234 167.289 7.77127C167.289 8.96166 166.821 10.0245 166.099 10.7472C165.333 11.555 164.313 11.9801 163.165 11.9801ZM151.474 11.8101C151.984 11.8101 152.409 11.64 152.749 11.2999C153.047 11.0023 153.259 10.5772 153.259 10.1095C153.259 9.64188 153.089 9.21674 152.749 8.91915C152.409 8.62155 151.984 8.45149 151.474 8.45149H148.54V11.7676L151.474 11.8101ZM151.176 6.92099C151.644 6.92099 152.069 6.75094 152.367 6.45334C152.664 6.15575 152.834 5.77312 152.834 5.30547C152.834 4.83782 152.664 4.45519 152.367 4.1576C152.069 3.86 151.644 3.68995 151.176 3.68995H148.54V6.87848L151.176 6.92099Z" fill="#003C5E"/>
</svg>
