<?xml version="1.0" encoding="utf-8"?>
<!-- Generator: Adobe Illustrator 19.2.1, SVG Export Plug-In . SVG Version: 6.00 Build 0)  -->
<svg version="1.1" id="layer" xmlns="http://www.w3.org/2000/svg" xmlns:xlink="http://www.w3.org/1999/xlink" x="0px" y="0px"
	 viewBox="0 0 652 652" style="enable-background:new 0 0 652 652;" xml:space="preserve">
<style type="text/css">
	.st0{fill:#000B50;}
	.st1{fill:#FFC729;}
</style>
<path class="st0" d="M572.7,311c-3.1,0-6.2,0.7-8.9,2.2c-2.8,1.5-5.1,3.6-6.9,6.3v-7h-12.2V360h12.2v-23.3c0-8.9,4.1-14.3,11-14.3
	c6.1,0,10.4,4.2,10.4,11.1V360h12.2v-29.1C590.4,318.5,583.2,311,572.7,311z M451.6,359.9h-12.9v-26.4c0-6.5-4.1-11.1-9.9-11.1
	c-7.3,0-11.7,5.3-11.7,14.3v23.3h-13v-47.5h13v7c1.9-2.6,4.4-4.8,7.3-6.3c2.9-1.5,6.2-2.2,9.5-2.2c7.5,0,13.1,3.7,15.9,10
	c2-3.1,4.7-5.6,8-7.4c3.3-1.8,7-2.7,10.7-2.6c10.8,0,17.8,7.8,17.8,19.9V360h-12.9v-26.4c0-6.5-4.1-11.1-10-11.1
	c-7.3,0-11.7,5.3-11.7,14.3L451.6,359.9z M186.4,327.9l-2.8-1.1l2.7-1.4c0.3-0.2,7.4-4,7.4-13.1c0-7.7-6.9-15.5-20-15.5H142V360
	h31.8c20.8,0,21.9-14.3,21.9-17.2C195.7,331.8,186.5,328,186.4,327.9z M155.1,307.2h15.7c4.3,0,8.9,2.5,8.9,8c0,5.4-4.5,8.2-8.9,8.2
	h-15.7V307.2z M172.8,349.6h-17.7v-16.2h17.7c5.8,0,8.8,4.1,8.8,8.2C181.7,346.2,178,349.6,172.8,349.6L172.8,349.6z M249.3,336.3
	c-0.3-14.9-10.5-25.3-24.9-25.3c-14.6,0-25.6,10.9-25.6,25.3c-0.1,6.6,2.4,13,7,17.8c4.7,4.8,11.4,7.5,18.6,7.5
	c7.3,0,14-2.7,18.6-7.5c2.5-2.6,4.4-5.7,5.6-9.2h-11.8c-2.4,4.2-7,6.8-12.4,6.8c-6.3,0-11.3-4.4-12.7-11.2l-0.3-1.6h37.9V336.3z
	 M212.1,330.2c0.8-2.7,2.4-5,4.6-6.6c2.2-1.7,5-2.5,7.7-2.5c5.9,0,10.3,3.4,11.8,9.2H212.1z M366.2,336.3
	c-0.3-14.9-10.2-25.3-24.1-25.3c-14.1,0-24.8,10.9-24.8,25.3c-0.1,6.6,2.3,13,6.8,17.8c4.5,4.8,11,7.5,18.1,7.5
	c7.1,0,13.5-2.7,18.1-7.5c2.4-2.6,4.3-5.7,5.4-9.2h-11.4c-2.3,4.2-6.8,6.8-12,6.8c-6.1,0-11-4.4-12.3-11.2l-0.3-1.6h36.7
	L366.2,336.3z M330.1,330.2c0.7-2.7,2.3-5,4.5-6.6c2.2-1.7,4.8-2.5,7.5-2.5c5.7,0,10,3.4,11.5,9.2H330.1z M538.3,336.3
	c-0.3-14.9-10.2-25.3-24.1-25.3c-14.2,0-24.8,10.9-24.8,25.3c-0.1,6.6,2.3,13,6.8,17.8c4.5,4.8,11,7.5,18.1,7.5
	c7.1,0,13.5-2.7,18.1-7.5c2.4-2.6,4.3-5.7,5.4-9.2h-11.4c-2.3,4.2-6.7,6.8-12,6.8c-6.1,0-11-4.4-12.3-11.2l-0.3-1.6h36.8V336.3z
	 M502.2,330.2c0.7-2.7,2.3-5,4.5-6.6c2.2-1.7,4.8-2.5,7.5-2.5c5.7,0,10,3.4,11.5,9.2H502.2z M400.9,311.1c-8-0.5-14.9,3-18.3,9.6
	v-8.2h-13.3V360h13.3v-20.6c0-12.6,9.1-19,18.3-15.4V311.1z M315.7,349.6c-1.9,0.8-3.9,1.2-5.9,1.2c-5.6,0-8.7-3.4-8.7-9.6v-19h15.2
	v-9.7h-15.2v-20.4l-12.7,4.6v15.8h-21.6v-20.4l-12.7,4.6V343c0,12.2,6.3,18.6,18.3,18.6c4.7,0,8.7-0.8,12.2-2.3l-3.1-9.6
	c-1.9,0.8-3.9,1.2-5.9,1.2c-5.6,0-8.7-3.4-8.7-9.6v-19h21.6V343c0,12.2,6.3,18.6,18.3,18.6c4.7,0,8.7-0.8,12.2-2.3L315.7,349.6z
	 M623.7,349.6c-1.8,0.8-3.8,1.2-5.8,1.2c-5.6,0-8.6-3.4-8.6-9.6v-19h15v-9.7h-15v-20.4l-12.5,4.6V343c0,12.2,6.2,18.6,18,18.6
	c4.6,0,8.5-0.8,12-2.3L623.7,349.6z"/>
<path class="st1" d="M77.2,351.9l40.1,14.4c6.6-8.4,10.4-19,10.4-30.9c0-28.3-21.7-49.6-50.5-49.6c-28.8,0-50.5,21.3-50.5,49.6
	c0,11.9,3.8,22.5,10.4,30.9L77.2,351.9z"/>
</svg>
