<svg version="1.2" xmlns="http://www.w3.org/2000/svg" viewBox="0 0 1565 224" width="1565" height="224">
	<title>cencora-logo-svg</title>
	<style>
		.s0 { fill: #461e96 } 
	</style>
	<g id="#461e96ff">
		<path id="Layer" class="s0" d="m101.9 0h17.3c35.1 2.2 69.3 21.6 87 52.4-11 7.8-22 15.5-33.1 23.2-7.5-14-19.8-25.5-34.8-31-21.3-8-46.7-6.7-66 5.9-14.7 9.4-24.9 25-28.7 41.9-4.7 20.1-2.1 42.4 9 60.1 9.6 15.4 25.8 26.4 43.7 29.6 18.7 3.3 39 0.4 55-10.4 9.2-6 16.4-14.6 21.8-24.2 11.1 7.6 22.1 15.4 33.1 23.1-11.2 19.1-28.6 34.5-49 43.2-29.8 12.8-65 12.8-94.4-0.9-36.2-16.3-60.7-53.9-62.8-93.2v-16.7c2-29.1 15.4-57.5 37.5-76.6 17.9-15.6 40.9-24.6 64.4-26.4z"/>
		<path id="Layer" class="s0" d="m336.2 0h17.3c30.6 1.8 61.1 16.2 79.3 41.4 18.8 24.7 24.1 57.1 21.4 87.4-49.2 0-98.5 0.1-147.7 0 7.7-12.4 15.6-24.8 23.5-37.1 27-0.1 54 0 81-0.1-2.7-17.4-13.1-33.5-28.4-42.3-27.7-15.9-66.8-12.7-88.8 11.6-27.1 28.9-25 80.5 5.4 106.5 18.1 15.7 44.3 19.4 67 13.1 15.7-4.3 29.4-14.4 38.8-27.6 10.5 8.3 21.1 16.5 31.6 24.9-10.7 15.2-25.5 27.4-42.4 35-24.8 11.2-53.5 13.4-79.8 6.7-25.2-6.5-47.8-22.4-62.2-44.1-14.8-21.9-20.8-49.2-18.3-75.3 2.5-29.1 16.8-57.1 39.5-75.5 17.6-14.7 40-23 62.8-24.6z"/>
		<path id="Layer" class="s0" d="m582.4 0h18.9c23.3 1.5 47.4 9.2 64 26.5 17.2 17.1 24.5 42 24.8 65.8 0.1 42.2 0.1 84.4 0 126.6q-20.3 0-40.6 0c0-36.9 0-73.8 0-110.8 0.1-11 0.2-22.3-2.9-33-2.9-10.4-9.1-19.9-18.1-25.9-11.2-7.7-25.3-9.8-38.6-9.6-14.3 0.4-29.6 3.7-40.1 14.1-11 10.2-15 25.8-15.4 40.3 0 41.7 0.1 83.3 0 124.9-13.5 0-27.1 0.1-40.6 0q0-63.3-0.1-126.6c0.2-22.6 6.9-46 22.3-63.2 16.6-18.8 41.8-27.6 66.4-29.1z"/>
		<path id="Layer" class="s0" d="m831.1 0h17.4c35.1 2.2 69.2 21.6 86.9 52.4-10.9 7.8-22 15.4-33 23.2-3.9-6.7-8.4-13.1-14.2-18.3-26.9-24.5-73.5-23.9-98.5 3.1-28.6 30.5-25 86.3 9.8 110.7 18.3 13.1 42.9 15.2 64.1 8.8 16.7-5.1 30.6-17.2 38.8-32.5 10.9 7.8 22.1 15.3 33 23.2-9.7 16.7-24.3 30.5-41.3 39.5-26.5 14-58.5 16.8-87.2 8.4-25.3-7.4-47.5-24.4-61.2-46.9-25.4-40.8-21.6-97.7 10.1-134.1 18.7-22.1 46.6-35.4 75.3-37.5z"/>
		<path id="Layer" fill-rule="evenodd" class="s0" d="m1065.9 0h17.3c21.3 1.6 42.3 8.7 59.4 21.6 19.1 14 33.1 34.5 39.6 57.3 7.8 27.1 5.6 57.2-6.7 82.7-9.3 19.3-24.3 35.7-42.7 46.4-27.2 15.9-61 19.2-91.2 10.7-24.7-7-46.7-23-60.7-44.6-26.5-39.8-24.2-96.6 6.2-133.7 18.9-24 48.5-38.4 78.8-40.4zm-2.4 40.4c-13.7 1.8-27 7.8-37.1 17.2-29.4 27.1-29.6 78.9-1.2 106.8 26.7 25.8 74.3 25.4 100.2-1.4 26.8-27.7 26.4-77-1.1-104.1-15.7-15.5-39.2-21.8-60.8-18.5z"/>
		<path id="Layer" fill-rule="evenodd" class="s0" d="m1442.3 0h16.5c25.4 1.6 50.1 13.3 66.7 32.8q0-14.2 0-28.5c13.2 0 26.3 0 39.5 0v214.6q-19.8 0-39.5 0 0-14.4 0-28.8c-10.7 12.6-24.7 22.2-40.4 27.5-18.8 6.5-39.4 7.2-58.9 3-23.4-5-45-18.5-59.6-37.5-33.7-43-31.5-110.3 6-150.1 17.8-19.6 43.5-31.2 69.7-33zm1.5 40.4c-18.2 2.3-35.3 12.2-46 27.3-19.9 28.3-17.6 71 7 95.9 27.2 27.4 77.6 26.4 103.1-3 25-28.6 23.3-77.3-4.9-103.2-15.7-14.5-38.3-20.1-59.2-17z"/>
		<path id="Layer" class="s0" d="m1252.3 20.7c14.4-12.4 33.3-17.9 51.9-20.2 8.9 12.5 16.5 26 24.9 39-16.2 0.3-33.7 2.2-46.8 12.6-10.8 8.3-15.6 22.2-15.8 35.5-0.1 43.8 0 87.6-0.1 131.5-13.5-0.4-27.1-0.1-40.6-0.2 0-45.8 0-91.6 0-137.5 0.2-22.6 8.8-46 26.5-60.7z"/>
	</g>
</svg>