<svg width="126" height="64" viewBox="0 0 126 64" fill="none" xmlns="http://www.w3.org/2000/svg">
<path d="M21.7858 9.61123C21.7858 9.61123 21.8523 9.76793 21.9537 10.0378C21.926 9.88501 21.8952 9.73349 21.859 9.58154C21.8349 9.59058 21.8112 9.6009 21.7858 9.61123Z" fill="#003C5E"/>
<path d="M21.7858 9.61123C21.7858 9.61123 21.8523 9.76793 21.9537 10.0378C21.926 9.88501 21.8952 9.73349 21.859 9.58154C21.8349 9.59058 21.8112 9.6009 21.7858 9.61123Z" fill="#003C5E"/>
<path d="M21.7858 9.61123C21.7858 9.61123 21.8523 9.76793 21.9537 10.0378C21.926 9.88501 21.8952 9.73349 21.859 9.58154C21.8349 9.59058 21.8112 9.6009 21.7858 9.61123Z" fill="#003C5E"/>
<path d="M105.606 24.5649H87.4198C87.8039 24.6991 88.1528 24.9137 88.4417 25.1934C88.728 25.472 88.9686 25.7916 89.1551 26.1409C89.3445 26.495 89.4883 26.8705 89.583 27.2588C89.6535 27.5433 89.6983 27.8333 89.7171 28.1253V38.0879C89.643 38.7924 89.4099 39.4726 89.0343 40.08C88.8382 40.3978 88.6023 40.6909 88.332 40.9526C88.0642 41.2136 87.7565 41.433 87.4197 41.603H98.2045C97.7809 41.5053 97.3885 41.3081 97.0619 41.0288C96.7591 40.7646 96.5065 40.4509 96.3157 40.1019C96.1211 39.7442 95.9843 39.3596 95.9099 38.9617C95.8292 38.5546 95.7883 38.1411 95.7878 37.7267V33.8939C96.4031 33.8939 96.9816 33.9114 97.5232 33.9464C98.026 33.9738 98.5202 34.0857 98.9837 34.277C99.4236 34.4673 99.8083 34.7599 100.104 35.1289C100.463 35.6102 100.707 36.1631 100.818 36.7474V28.953C100.59 29.4974 100.287 30.0093 99.9173 30.4747C99.6365 30.817 99.2799 31.0937 98.874 31.2844C98.4552 31.4692 98.005 31.5777 97.5458 31.6047C97.0472 31.6391 96.4613 31.6566 95.7878 31.6572V26.9725L99.0831 26.9927C99.595 26.9927 100.126 27.0138 100.675 27.056C101.216 27.0977 101.753 27.1837 102.279 27.313C102.797 27.4402 103.299 27.6257 103.773 27.8657C104.246 28.1056 104.667 28.431 105.014 28.8243C105.142 28.9683 105.26 29.1212 105.365 29.2819C105.474 29.4425 105.555 29.6187 105.606 29.8041V24.5649Z" fill="#003C5E"/>
<path d="M107.341 24.5649V31.0184C107.435 30.3441 107.716 29.7072 108.153 29.1752C108.573 28.675 109.092 28.2624 109.68 27.9621C110.285 27.6526 110.938 27.4403 111.613 27.3336C112.291 27.2211 112.981 27.1926 113.666 27.2489V38.3048C113.638 38.586 113.579 38.8635 113.49 39.1326C113.362 39.5225 113.169 39.8895 112.919 40.2186C112.67 40.5457 112.37 40.8332 112.03 41.0709C111.682 41.3141 111.291 41.4943 110.876 41.603H122.408C121.948 41.5272 121.511 41.3485 121.134 41.0813C120.77 40.822 120.458 40.501 120.212 40.1338C119.962 39.7631 119.772 39.3569 119.651 38.9298C119.527 38.5035 119.465 38.0628 119.464 37.6199V27.2489H120.035C120.514 27.2594 120.991 27.3053 121.463 27.3862C122.069 27.4853 122.659 27.657 123.221 27.8975C123.827 28.1619 124.372 28.5423 124.823 29.0159C125.33 29.5589 125.666 30.2317 125.79 30.9542V24.5649H107.341Z" fill="#003C5E"/>
<path d="M76.5709 40.7304C76.2926 40.9764 75.9781 41.181 75.6377 41.3374C75.3301 41.4721 75.1321 41.5608 75.0438 41.6034H87.4547C87.2505 41.5613 87.054 41.4898 86.8718 41.3912C86.6939 41.2939 86.5217 41.1871 86.3559 41.0713C85.9159 40.7703 85.5173 40.416 85.1698 40.0172C84.8432 39.6337 84.5564 39.2201 84.3134 38.7822C84.0553 38.3152 83.8316 37.8312 83.644 37.3337L82.7424 34.7371L81.5242 31.2319L79.174 24.5649H68.8723C69.1979 24.6436 69.5119 24.762 69.8068 24.9175C70.0699 25.0685 70.3098 25.2546 70.5197 25.4702C70.7659 25.7249 70.94 26.0371 71.0249 26.3763C71.0977 26.6846 71.0977 27.0048 71.0249 27.313C70.9565 27.6253 70.8611 27.9314 70.7399 28.2282C70.4469 28.9673 70.2233 29.553 70.0691 29.9853C70.0229 30.1166 69.9736 30.2384 69.9208 30.3594L68.0594 35.0225C67.9578 35.2924 67.804 35.6901 67.5982 36.2154C67.3931 36.7409 67.1626 37.2876 66.9065 37.8554C66.6504 38.4236 66.3794 38.9561 66.0937 39.4528C65.8871 39.8471 65.6164 40.2065 65.292 40.5174C65.0455 40.7145 64.7889 40.8994 64.5231 41.0714C64.2607 41.241 64.0512 41.3692 63.8976 41.454C63.8106 41.499 63.7264 41.5488 63.6454 41.6034H72.9138C72.2564 41.47 71.6689 41.1153 71.2553 40.6022C70.8578 40.0767 70.6392 39.4441 70.6298 38.7925C70.6393 38.5906 70.6727 38.3904 70.7292 38.1959C70.794 37.9402 70.8753 37.6819 70.9707 37.4185C71.0648 37.1559 71.1637 36.9039 71.2673 36.6626C71.368 36.4211 71.4426 36.2356 71.4861 36.1086H76.6917C76.7352 36.2231 76.7938 36.3824 76.8679 36.5881C76.9407 36.7939 77.0175 37.0034 77.0983 37.2166C77.1782 37.4297 77.2523 37.6354 77.3185 37.8347C77.3833 38.0328 77.4313 38.1817 77.4605 38.2807C77.6005 38.7611 77.5615 39.2739 77.3505 39.7292C77.1597 40.1086 76.895 40.4486 76.5709 40.7304ZM72.0575 34.0854L73.9025 28.5484L75.8353 34.0854H72.0575Z" fill="#003C5E"/>
<path d="M58.0781 33.1071C58.5255 32.9081 58.9385 32.6431 59.3024 32.3215L59.4165 32.2109C59.5861 32.0487 59.7437 31.8753 59.8884 31.6918C59.907 31.6672 59.9284 31.644 59.947 31.6186C60.679 30.7606 61.0311 29.6566 60.9263 28.5477H60.9252C60.8959 28.0632 60.7674 27.5893 60.5474 27.1534C60.4137 26.8883 60.2557 26.6354 60.0755 26.3975C59.7823 25.9995 59.3992 25.6716 58.9555 25.4389C58.498 25.1962 58.0109 25.01 57.5056 24.8849C56.9908 24.7571 56.4656 24.6718 55.9359 24.6301C55.4005 24.5866 54.9061 24.5652 54.4527 24.5659H42.3727C42.7815 24.6658 43.1657 24.8431 43.5034 25.0877C43.8324 25.3606 44.0981 25.698 44.283 26.0777C44.5432 26.6319 44.671 27.236 44.6568 27.8448C44.6714 28.215 44.6789 28.5916 44.6794 28.9747V37.7057C44.6769 38.0899 44.6287 38.4725 44.536 38.846C44.4419 39.233 44.3019 39.6082 44.1187 39.9639C43.9374 40.3168 43.7003 40.6399 43.416 40.9217C43.1294 41.2072 42.7905 41.4386 42.4167 41.604H52.8499C52.6213 41.5232 52.3974 41.4306 52.1792 41.3263C51.9218 41.2022 51.6879 41.0367 51.4875 40.8369C51.2434 40.5881 51.0464 40.2996 50.9055 39.9846C50.715 39.5442 50.6003 39.0766 50.5659 38.6002C50.4914 37.8214 50.4618 37.0392 50.4771 36.2572C50.4918 35.463 50.4993 34.6824 50.4998 33.9155H51.2025C51.5257 33.9155 51.8389 33.9142 52.1423 33.9117C54.8938 40.1426 55.8509 41.604 58.5895 41.604H64.6154C62.5529 41.604 59.9164 36.9206 58.0781 33.1071ZM50.126 31.594V27.079C50.668 27.079 51.2051 27.0687 51.7405 27.0467C52.2251 27.0204 52.7109 27.0707 53.1788 27.1956C53.5902 27.308 53.9527 27.5472 54.2114 27.877C54.5104 28.3377 54.6487 28.8793 54.6061 29.4219C54.6472 29.9321 54.4951 30.4393 54.1781 30.8485C53.8915 31.1618 53.5119 31.3813 53.0914 31.477C52.6171 31.5866 52.1297 31.6333 51.6424 31.616C51.1146 31.6005 50.6098 31.594 50.126 31.594Z" fill="#003C5E"/>
<path d="M45.7977 4.77227C45.0244 5.11463 44.3626 5.65567 43.8838 6.33677C43.4051 7.01787 43.1277 7.81303 43.0817 8.63609L43.0778 8.63739C42.4467 8.20464 41.7143 7.93132 40.9468 7.84218C40.1794 7.75304 39.4011 7.85089 38.6825 8.12688C38.7411 8.3154 38.8123 8.50002 38.8955 8.6796C39.1681 9.26124 39.5652 9.77994 40.0605 10.2012C40.5558 10.6225 41.138 10.9367 41.7682 11.1229C41.0686 12.175 40.1465 13.0711 39.0629 13.7517C38.5915 14.0455 38.051 14.2187 37.4918 14.2553C36.7877 14.3363 36.0747 14.2104 35.4452 13.8939C34.8156 13.5775 34.2985 13.0851 33.9609 12.4805C33.5358 13.218 32.845 13.7774 32.0209 14.0516C31.1968 14.3257 30.2973 14.2952 29.4949 13.966C29.2814 13.8455 29.071 13.7181 28.8694 13.5808C27.1481 12.4199 25.8939 10.7172 25.3198 8.76179C25.346 8.76048 25.3713 8.75793 25.3979 8.75533C26.1116 8.67833 26.7972 8.44186 27.4007 8.06451C28.0042 7.68717 28.5092 7.17924 28.8761 6.58065C28.9561 6.45171 29.0292 6.3188 29.095 6.18247C28.5156 5.76596 27.8442 5.48603 27.1339 5.36484C26.4236 5.24365 25.694 5.28454 25.0028 5.48427C24.8608 5.52559 24.7191 5.57423 24.5797 5.62847C24.6277 4.0461 23.4029 1.66566 21.9011 0.799581C21.7096 0.693501 21.5122 0.597796 21.3098 0.512905L21.1775 0.459961L21.086 0.573172C20.968 0.721657 20.8594 0.877052 20.7611 1.03848C19.8754 2.49988 20.1196 5.12308 20.948 6.4881C20.7997 6.50489 20.651 6.52941 20.5054 6.55998C19.8776 6.69167 19.2848 6.94828 18.7646 7.31357C18.2444 7.67887 17.808 8.14489 17.4831 8.68215C17.4043 8.81216 17.3326 8.94607 17.2682 9.08333C17.3937 9.17198 17.5238 9.25431 17.658 9.32999C18.2765 9.68328 18.9711 9.89248 19.6872 9.94111C20.4032 9.98974 21.1211 9.87647 21.7843 9.61022C21.8096 9.5999 21.8336 9.59084 21.8571 9.58052C22.2883 11.4004 22.1106 13.3062 21.3497 15.0215C21.3471 15.0138 21.3457 15.0047 21.343 14.997C21.3311 15.0405 21.3151 15.0844 21.3018 15.1296C21.2503 15.2398 21.197 15.3504 21.1415 15.4597C21.0074 15.7242 20.8593 15.9816 20.6976 16.2311C20.1531 16.8949 19.3744 17.3395 18.5117 17.4793C17.649 17.619 16.7635 17.444 16.0261 16.9879C16.0236 17.6755 15.8083 18.3466 15.4079 18.9143C15.0076 19.4819 14.4407 19.9199 13.7807 20.1716C13.4663 20.2917 13.1355 20.3671 12.7987 20.3954C11.3371 20.3713 9.90283 20.0073 8.61652 19.3339C9.07662 18.8765 9.43083 18.3292 9.65551 17.7285C9.88019 17.1279 9.97017 16.4877 9.91944 15.8506C9.90346 15.6513 9.87328 15.285 9.83331 15.096C8.22808 15.2914 6.9025 16.6792 6.23438 17.4248H6.23041C5.34388 16.6792 3.71467 15.3491 1.9305 15.4804C1.51932 15.544 1.11867 15.6603 0.739014 15.8261C2.73078 17.2758 4.62764 18.8443 6.41862 20.5224C7.67674 21.6911 8.88421 22.9377 10.0376 24.214C11.6401 25.9914 14.3774 29.5814 14.38 29.5801C15.0934 30.2237 16.0399 30.5684 17.0139 30.5392C17.0737 30.5306 17.1285 30.5022 17.1692 30.4588C17.2098 30.4154 17.2337 30.3597 17.2367 30.3011C17.2483 30.2073 17.0814 30.1509 16.9952 30.1135C16.67 30.0002 16.3788 29.8106 16.1475 29.5617C15.9162 29.3128 15.752 29.0123 15.6696 28.6869C15.1542 27.1213 19.9841 24.2949 27.0439 22.5572C34.105 20.8207 39.7758 21.0316 40.1034 22.6471C40.1926 22.971 40.1979 23.3112 40.1188 23.6375C40.0396 23.9639 39.8785 24.2661 39.6497 24.5175C39.5929 24.5906 39.4735 24.7194 39.5334 24.7964C39.565 24.8466 39.6135 24.8846 39.6707 24.9041C39.7279 24.9236 39.7903 24.9232 39.8473 24.9032C40.7146 24.4749 41.3732 23.7328 41.6807 22.8374C41.6807 22.8374 42.4389 18.3877 42.9597 16.0818C43.3348 14.4236 43.7837 12.7879 44.3065 11.1745C45.0492 8.8792 45.9391 6.63112 46.971 4.44343C46.5666 4.50218 46.1721 4.61275 45.7977 4.77227Z" fill="#003C5E"/>
<path d="M20.856 26.0245C24.6687 24.4446 28.6844 23.3724 32.7937 22.8369C32.7937 22.8369 40.8093 23.6018 40.8093 32.725C40.8093 41.8482 34.1166 47.0563 25.0063 47.0563C15.8973 47.0563 11.0936 43.1628 11.0936 39.0153C11.0936 34.8674 14.1687 34.2066 15.599 34.2066C17.028 34.2066 19.6139 35.4589 19.6139 38.7093C19.6139 38.7093 17.04 38.0963 17.04 40.2555C17.04 42.4147 20.0831 43.7594 24.2561 43.7594C28.4276 43.7594 34.3195 41.9868 34.3195 34.0887C34.3195 25.662 30.2979 25.2854 27.502 25.2854V39.7402C27.5251 40.0957 27.6913 40.4283 27.9648 40.6661C28.2384 40.9039 28.5974 41.0279 28.9643 41.0114C28.9643 41.0114 27.494 42.2145 23.8556 42.2145C20.2172 42.2145 19.1806 41.0819 19.1806 41.0819C19.1806 41.0819 20.9026 41.0884 20.9026 39.6154C20.9026 38.1436 20.856 26.0245 20.856 26.0245Z" fill="#003C5E"/>
<path d="M121.749 56.232C121.636 55.9082 121.491 55.5957 121.317 55.2988C121.018 54.7891 120.605 54.3511 120.109 54.0173L120.106 54.0146C120.045 53.9724 119.986 53.9298 119.926 53.8902L119.914 53.8824C119.644 53.6991 119.363 53.5321 119.072 53.3822C117.004 52.3142 114.879 52.3091 113.175 51.9208C112.905 51.8601 112.639 51.7842 112.378 51.6935C112.283 51.6573 112.189 51.6199 112.095 51.579C111.734 51.4229 111.397 51.2183 111.095 50.9712C110.828 50.7477 110.637 50.451 110.546 50.1202C110.5 49.9871 110.483 49.8458 110.498 49.706C110.514 49.5663 110.56 49.4313 110.634 49.3105C110.858 48.9792 111.155 48.6994 111.502 48.4905C111.872 48.2657 112.276 48.097 112.699 47.9903C113.154 47.8753 113.623 47.8213 114.093 47.8297C114.58 47.8365 115.064 47.9048 115.533 48.0329C116.069 48.1624 116.594 48.3334 117.102 48.5443C117.467 48.7009 117.811 48.9009 118.125 49.1396C118.278 49.2601 118.424 49.3884 118.563 49.524C118.71 49.6652 118.863 49.8141 119.024 49.9712C119.185 50.1266 119.365 50.3001 119.563 50.493C119.76 50.6845 120.005 50.9149 120.298 51.1843V44.9443C120.298 44.9443 119.805 46.1371 117.85 46.1371C117.302 46.123 116.756 46.0804 116.213 46.0097C115.656 45.9236 115.093 45.8362 114.522 45.7424C113.89 45.6466 113.251 45.6078 112.611 45.6266C111.732 45.6247 110.856 45.7392 110.008 45.9671C109.2 46.1781 108.438 46.5277 107.758 46.9993C107.06 47.477 106.496 48.1155 106.116 48.8574C105.736 49.5992 105.553 50.4211 105.582 51.2488C105.546 51.9982 105.724 52.7426 106.099 53.399C106.371 53.8366 106.708 54.2332 107.099 54.5763L107.104 54.5801C107.115 54.5917 107.13 54.602 107.142 54.6137C107.186 54.6494 107.229 54.6855 107.273 54.7204C107.342 54.7768 107.412 54.8306 107.483 54.8848C108.906 55.9438 110.916 56.4569 113.239 56.9721C113.285 56.9825 113.325 56.9902 113.369 56.9993L113.387 57.0031C113.625 57.0543 113.864 57.1134 114.104 57.1804C114.545 57.2988 114.972 57.4629 115.378 57.6699C115.706 57.8318 115.998 58.0561 116.235 58.3293C116.334 58.4408 116.401 58.5745 116.432 58.7181C116.463 58.8618 116.455 59.0106 116.41 59.1506C116.357 59.3919 116.252 59.6193 116.1 59.8175C115.949 60.0157 115.755 60.1801 115.533 60.2995C115.074 60.5321 114.567 60.6629 114.05 60.6826C113.486 60.7105 112.921 60.6678 112.369 60.5556C111.87 60.4602 111.378 60.3318 110.897 60.1712C109.948 59.8322 109.042 59.3893 108.196 58.851C107.634 58.4784 107.102 58.0656 106.604 57.616C106.073 57.1329 105.605 56.5896 105.208 55.9979V63.4384C106.038 62.9731 106.969 62.7017 107.926 62.6455C107.928 62.6484 107.931 62.651 107.934 62.6533C108.242 62.6025 108.553 62.5741 108.865 62.5685C109.344 62.561 109.822 62.5965 110.293 62.6748C110.771 62.7524 111.244 62.8554 111.71 62.9835C112.212 63.1091 112.722 63.2014 113.237 63.2598C113.751 63.3172 114.268 63.3459 114.785 63.3459C115.661 63.3444 116.534 63.2478 117.387 63.0579C118.224 62.8806 119.021 62.5557 119.737 62.0993C120.435 61.6512 121.018 61.0541 121.44 60.3538C121.902 59.5443 122.123 58.6262 122.078 57.7022C122.019 57.2025 121.909 56.7101 121.749 56.232Z" fill="#003C5E"/>
<path d="M81.1606 49.5451C81.1606 49.2752 81.1752 48.9833 81.2045 48.6712C81.2336 48.3615 81.2926 48.0551 81.3808 47.7561C81.4648 47.4656 81.5863 47.1866 81.7426 46.9257C81.8983 46.6699 82.1035 46.4456 82.3467 46.265C82.6029 46.0735 82.9056 45.9491 83.2257 45.9038H75.1653C75.6096 45.9259 76.0356 46.0823 76.3835 46.3511C76.7014 46.6095 76.9562 46.9331 77.1297 47.2985C77.3171 47.6862 77.4431 48.099 77.5035 48.5232C77.5673 48.9321 77.6005 49.345 77.6029 49.7586V57.3829L70.0473 45.9038H60.9103C61.3523 45.911 61.7784 46.0648 62.1178 46.3394C62.4268 46.605 62.6674 46.937 62.8205 47.3088C62.9856 47.7048 63.0965 48.12 63.1504 48.5438C63.2062 48.9465 63.2354 49.3523 63.2378 49.7586C63.2378 49.9282 63.2406 50.1813 63.2485 50.514V58.5873C63.2446 58.9446 63.2352 59.3032 63.2157 59.6617C63.201 59.9316 63.1792 60.2084 63.1504 60.4921C63.1228 60.7709 63.0637 61.0459 62.9741 61.3121C62.8873 61.5734 62.7618 61.821 62.6017 62.0473C62.4332 62.2802 62.216 62.476 61.9642 62.622C61.9013 62.6594 61.8352 62.6917 61.7667 62.7184C61.6792 62.7529 61.5864 62.7852 61.4923 62.8136C61.3969 62.8415 61.3121 62.87 61.2393 62.8984C61.1975 62.9178 61.1534 62.9319 61.1079 62.9406H68.9921C68.7736 62.8278 68.5872 62.725 68.4327 62.6323C68.2725 62.535 68.1185 62.4285 67.9714 62.3134C67.8329 62.2071 67.7043 62.0893 67.587 61.9613C67.2461 61.5553 67.0192 61.0709 66.9282 60.555C66.8285 60.0427 66.7771 59.5227 66.7746 59.0014V51.4989L74.2095 62.9406H83.2257C82.9058 62.8948 82.6032 62.7705 82.3467 62.5794C82.1034 62.3989 81.8982 62.1746 81.7426 61.9187C81.5864 61.6579 81.4648 61.379 81.3808 61.0887C81.2925 60.7893 81.2335 60.4824 81.2045 60.1723C81.1752 59.8597 81.1606 59.5688 81.1606 59.2993V49.5451Z" fill="#003C5E"/>
<path d="M57.0724 56.1671V49.4115C57.0854 49.1067 57.1195 48.8032 57.1745 48.5028C57.2422 48.1211 57.3677 47.7512 57.5469 47.4051C57.7265 47.0676 57.9728 46.7676 58.2719 46.5223C58.6167 46.2468 59.012 46.0369 59.4372 45.9037H48.9374C49.368 46.0174 49.7661 46.225 50.1014 46.5106C50.4438 46.8439 50.7162 47.2385 50.9035 47.6724C51.1736 48.3355 51.2973 49.0461 51.2667 49.7585V58.7004C51.2667 58.9845 51.2591 59.3264 51.244 59.7262C51.254 60.2904 51.1259 60.8489 50.8703 61.3559C50.6755 61.7265 50.4111 62.0586 50.0907 62.3352C50.0379 62.3791 49.9766 62.42 49.9171 62.4626C47.3428 61.4459 44.6615 58.9384 42.6758 55.9308C41.5065 54.1608 40.1862 51.8152 39.0861 49.7675C40.1201 48.5131 41.1091 47.3462 41.9069 46.4564C43.4704 44.9909 45.4309 43.9858 47.5603 43.5581H38.9894C38.9894 43.5581 39.7756 44.6506 38.6436 45.9786L32.9635 52.6378V47.1714C32.9027 47.1968 32.8414 47.2239 32.7806 47.2485C32.5356 47.3449 32.2821 47.4374 32.025 47.5235C31.2407 47.7871 30.4387 47.9984 29.6247 48.1559C29.3464 48.211 29.056 48.2626 28.7644 48.3074C28.1536 48.4157 27.5371 48.4908 26.9176 48.5325V58.5076L26.8808 59.2738C26.8622 59.4782 26.8369 59.684 26.8053 59.8971C26.7343 60.3671 26.5988 60.8257 26.4022 61.2608C26.2156 61.6762 25.942 62.0496 25.5987 62.3572C25.2229 62.6806 24.754 62.8848 24.2549 62.9422H35.2502C34.7995 62.8549 34.3923 62.623 34.0942 62.284C33.7796 61.922 33.5406 61.5042 33.3906 61.0537C33.2145 60.5398 33.0961 60.009 33.0376 59.4705C32.9715 58.8945 32.934 58.3302 32.9253 57.7775C32.924 57.6737 32.9227 57.5735 32.9227 57.4719C33.3599 56.9127 34.0374 56.0475 34.8458 55.0269C35.2795 55.7354 35.7421 56.4719 36.2193 57.2045C38.4922 60.6926 40.3056 62.9486 43.1876 62.9486C46.0705 62.9486 59.3919 62.9422 59.3919 62.9422C58.9622 62.7757 58.5677 62.5339 58.2284 62.2289C57.8914 61.888 57.6201 61.4913 57.4275 61.0576C57.1994 60.5361 57.0788 59.9763 57.0724 59.4098L57.0724 56.1671Z" fill="#003C5E"/>
<path d="M95.438 54.4881C95.7162 54.7507 95.9143 55.0825 96.0107 55.4472C96.1135 55.8469 96.156 56.259 96.1367 56.6706C96.1221 57.1178 96.1221 57.5685 96.1367 58.0226C96.1367 58.2503 96.1443 58.5164 96.1589 58.8224C96.1758 59.1183 96.1336 59.4146 96.0346 59.6949C95.9262 59.9826 95.7255 60.229 95.4619 60.3979C95.0692 60.6164 94.6182 60.7167 94.1665 60.6858C93.5914 60.712 93.0223 60.5628 92.5391 60.2593C92.1278 59.9773 91.7904 59.6058 91.554 59.1745C91.316 58.7369 91.1451 58.2679 91.0466 57.7824V57.7927C90.516 55.5977 90.4978 53.3155 90.9934 51.1128C91.1011 50.6259 91.2866 50.1584 91.5434 49.7272C91.7921 49.3126 92.1321 48.9563 92.5391 48.6837C92.9962 48.3935 93.5288 48.2348 94.0751 48.2261C94.3513 48.2137 94.628 48.2318 94.8999 48.2799C95.1902 48.329 95.4646 48.3828 95.7243 48.4392C97.0292 48.7112 98.2741 49.2051 99.4014 49.898C100.67 50.7043 101.697 51.5205 102.14 52.6991V44.9741C102.019 45.3303 101.823 45.6578 101.563 45.9354C101.303 46.2129 100.985 46.4342 100.631 46.5849C100.414 46.6565 100.19 46.7107 99.9634 46.7468C99.9114 46.7532 99.8573 46.7584 99.8018 46.7622C99.7684 46.765 99.7325 46.765 99.6983 46.766C99.2649 46.7634 98.8323 46.7285 98.4043 46.6619C97.9371 46.5955 97.4771 46.4883 97.0299 46.3416C96.5713 46.1927 96.1361 46.0684 95.7243 45.9688C95.3102 45.8691 94.8893 45.7979 94.4649 45.7558C94.0306 45.7132 93.5944 45.6922 93.1579 45.6929C92.2711 45.6893 91.3868 45.7854 90.5228 45.9792C89.6989 46.1652 88.9051 46.4593 88.1633 46.8534C87.4327 47.242 86.7684 47.7376 86.1936 48.3226C85.7312 48.7959 85.3342 49.3255 85.0128 49.8981L85.0021 49.9161C84.0018 52.198 83.7209 54.716 84.1946 57.1526C84.3157 57.6426 84.4775 58.1222 84.6785 58.5869C84.7806 58.8223 84.8924 59.0499 85.0141 59.2696C85.4705 60.1135 86.0933 60.8625 86.847 61.474C87.6115 62.0831 88.4908 62.5423 89.436 62.826C90.5077 63.1426 91.6265 63.2829 92.746 63.241C93.2526 63.2243 93.7559 63.1532 94.2464 63.0292C94.7578 62.9005 95.2734 62.7582 95.7931 62.6022C96.3129 62.4455 96.835 62.2979 97.3628 62.1549C97.8671 62.0164 98.386 61.9341 98.9095 61.9096C99.4119 61.8885 99.9145 61.9462 100.398 62.0805C100.919 62.2325 101.397 62.4985 101.795 62.8579V57.7041C101.797 57.3261 101.828 56.9489 101.888 56.5754C101.945 56.191 102.052 55.8152 102.207 55.4571C102.359 55.1115 102.577 54.7971 102.85 54.5307C103.138 54.2527 103.492 54.0477 103.881 53.9341H94.0751C94.5769 53.9803 95.0522 54.1736 95.438 54.4881Z" fill="#003C5E"/>
</svg>
