<svg width="83" height="51" viewBox="0 0 83 51" fill="none" xmlns="http://www.w3.org/2000/svg">
<path d="M0.696516 0.42731C9.97151 0.423821 19.243 0.420333 28.518 0.430856C31.6846 3.74164 34.8691 7.03481 38.0536 10.3279C41.2095 7.01016 44.4154 3.7346 47.5785 0.427365C56.9036 0.423821 66.2321 0.423821 75.5535 0.427365C75.5571 7.22477 75.5499 14.0187 75.557 20.8196C75.5357 21.1292 75.6249 21.4741 75.4714 21.7626C73.158 25.4885 71.1516 29.4079 69.645 33.5174C69.4523 33.9607 69.2737 34.4708 68.8382 34.7418C68.4669 34.8966 67.9207 34.8297 67.7208 34.4427C67.4566 33.9537 67.4709 33.3837 67.3959 32.8489C67.1532 30.7766 66.9318 28.6937 66.5855 26.632C66.3785 25.58 66.1428 24.4436 65.3467 23.6519C64.6006 22.9342 63.4581 22.8638 62.4871 23.096C61.5945 23.2895 60.7556 23.8138 60.3058 24.6124C59.7203 25.6011 59.7274 26.8009 59.938 27.895C60.3058 29.8126 60.9626 31.6597 61.6339 33.4928C62.9619 36.9478 64.3078 40.4028 65.6394 43.8543C65.9715 44.7374 66.4963 45.6486 67.4138 46.0462C68.2027 46.3734 69.0953 46.3699 69.9306 46.2503C70.6554 46.1412 71.2801 45.6662 71.6407 45.0505C72.3119 43.9246 72.5725 42.6264 72.9688 41.3914C73.7613 38.8723 74.5217 36.3321 75.5428 33.8903C75.5642 39.2663 75.5428 44.6459 75.55 50.0219C69.7307 50.0255 63.9079 50.0219 58.0852 50.0255C57.8496 48.027 57.6782 46.011 57.7853 44.002C57.8103 42.0388 57.8924 40.0861 57.871 38.1229C57.9317 35.2766 57.5568 32.4548 57.3926 29.6155C57.207 27.413 57.4497 25.1965 57.2498 22.994C58.9027 21.9737 60.6271 21.0765 62.2907 20.0738C63.4082 19.3912 64.6077 18.8037 65.5645 17.8959C66.0929 17.3893 66.5034 16.6152 66.1857 15.8905C65.5145 14.5464 63.7473 13.8181 62.3229 14.4093C61.1555 14.937 60.4629 16.0875 59.399 16.756C58.0709 17.5652 56.7321 18.3603 55.3684 19.1168C54.3366 18.5855 53.0979 18.4096 51.984 18.7544C51.3771 18.9479 50.8166 19.356 50.5738 19.9507C50.2882 20.605 50.5274 21.3228 50.3988 21.9948C50.3167 22.41 49.9883 22.7055 49.6313 22.9025C48.1247 23.7821 46.6039 24.6406 45.1009 25.5272C43.555 26.4173 42.0556 27.4412 40.317 27.9373C39.2603 28.2434 38.0215 28.5952 37.511 29.6578C37.0219 30.6921 37.6002 31.8813 38.4178 32.571C39.121 33.2324 40.1956 33.3731 41.0953 33.06C42.2698 32.68 43.2373 31.8778 44.2119 31.1601C45.4258 30.2453 46.6681 29.3728 47.9105 28.4967C48.5817 28.0428 49.2564 27.5468 50.0454 27.304C50.5809 27.107 51.2557 27.3356 51.4806 27.8704C52.0126 29.0456 51.8447 30.3755 51.8697 31.628C51.9018 35.8078 51.5127 39.9735 51.3663 44.1498C51.3557 46.1095 51.3378 48.0657 51.4306 50.0255C49.8883 50.0184 48.3496 50.0395 46.8074 50.0114C46.8217 45.3882 46.8181 40.7617 46.8109 36.1386C43.8835 38.5627 40.9596 40.9974 38.0358 43.4215C35.1047 41.0009 32.1844 38.5662 29.2606 36.1456C29.2534 40.7687 29.257 45.3988 29.2606 50.022C19.7356 50.029 10.2071 50.0255 0.685791 50.022C0.696516 33.4892 0.696516 16.96 0.696516 0.42731Z" fill="#003C5E"/>
<path d="M31.174 0.455498C34.0031 1.66191 36.8143 2.8929 39.6399 4.1028C40.0691 4.27864 40.3445 4.6585 40.6664 4.96805C39.8258 5.87548 38.9389 6.74067 38.0983 7.6516C35.795 5.24941 33.4594 2.87884 31.174 0.455498ZM77.5595 0.423828C79.1081 1.3383 80.6605 2.24573 82.1984 3.17072C82.1876 6.53665 82.1948 9.90613 82.1948 13.2756C80.5459 15.0588 79.0044 16.9405 77.5667 18.896C77.5488 12.741 77.5631 6.58239 77.5595 0.423828ZM77.91 29.1767C79.1761 26.8519 80.5925 24.5974 82.1876 22.4765C82.1948 31.6599 82.1876 40.8432 82.1912 50.023C80.6461 50.0265 79.101 50.0265 77.5558 50.023C77.5523 43.4354 77.5595 36.8442 77.5523 30.253C77.5165 29.8626 77.7311 29.5144 77.9099 29.1767L77.91 29.1767ZM31.1882 40.1503C32.4687 41.1949 33.7277 42.2747 35.0224 43.3017C35.0474 45.5422 35.0296 47.7826 35.0332 50.0265H31.1882C31.1882 46.7345 31.1846 43.4389 31.1882 40.1503ZM40.8774 43.5655C42.2401 42.433 43.6063 41.304 44.9727 40.1749C44.9619 41.0859 44.987 41.9968 44.9548 42.9007C44.6687 43.1223 44.3897 43.3439 44.1143 43.5725C43.0305 43.576 41.9575 43.5866 40.8774 43.5655Z" fill="#003C5E"/>
</svg>
