<svg width="87" height="115" viewBox="0 0 87 115" fill="none" xmlns="http://www.w3.org/2000/svg">
<path d="M45.0911 7.90137C47.1835 12.737 52.6966 17.2776 59.759 19.2217C66.7576 21.1481 75.1174 20.4715 82.8 15.0889L85.2141 13.3975V86.752C85.214 92.7822 82.6585 96.4542 79.2932 98.5332C76.0441 100.54 72.207 100.965 69.6604 100.965C61.4292 100.965 55.8808 102.669 52.0793 104.679C48.2763 106.689 46.13 109.049 44.7014 110.58L43.5803 111.781L42.4583 110.58C41.0178 109.036 38.9256 106.682 35.176 104.675C31.4299 102.669 25.9365 100.965 17.7053 100.965C15.1589 100.965 11.3217 100.54 8.07251 98.5332C4.70727 96.4542 2.15267 92.7825 2.15259 86.752V13.3984L4.56567 15.0898C12.2483 20.4722 20.608 21.1481 27.6067 19.2217C34.6693 17.2776 40.1829 12.7374 42.2756 7.90137L43.6838 4.64844L45.0911 7.90137Z" fill="#F8F2EC" stroke="#003C5E" stroke-width="3.06735"/>
<path fill-rule="evenodd" clip-rule="evenodd" d="M6.13153 26.3777H8.93492L9.79658 23.7329L10.6588 26.3777H13.4547L11.1911 28.0199L12.0568 30.679L9.79313 29.0333L7.54041 30.6716L8.40264 28.0234L6.13153 26.3777ZM15.7184 26.3777H18.5218L19.384 23.7329L20.2456 26.3777H23.0416L20.7779 28.0199L21.6436 30.679L19.38 29.0333L17.1278 30.6716L17.9895 28.0234L15.7184 26.3777Z" fill="#003C5E"/>
<path fill-rule="evenodd" clip-rule="evenodd" d="M15.7184 26.3777H18.5218L19.384 23.7329L20.2456 26.3777H23.0416L20.7779 28.0199L21.6436 30.679L19.38 29.0333L17.1278 30.6716L17.9895 28.0234L15.7184 26.3777ZM25.3052 26.3777H28.1086L28.9708 23.7329L29.8325 26.3777H32.629L30.3653 28.0199L31.2304 30.679L28.9674 29.0333L26.7147 30.6716L27.5763 28.0234L25.3052 26.3777ZM6.13153 35.346H8.93492L9.79658 32.7012L10.6588 35.346H13.4547L11.1911 36.9882L12.0568 39.6474L9.79313 38.0016L7.54041 39.6405L8.40264 36.9917L6.13153 35.346ZM15.7184 35.346H18.5218L19.384 32.7012L20.2456 35.346H23.0416L20.7779 36.9882L21.6436 39.6474L19.38 38.0016L17.1278 39.6405L17.9895 36.9917L15.7184 35.346Z" fill="#003C5E"/>
<path fill-rule="evenodd" clip-rule="evenodd" d="M15.7184 35.3469H18.5218L19.384 32.7021L20.2456 35.3469H23.0416L20.7779 36.9891L21.6436 39.6483L19.38 38.0026L17.1278 39.6414L17.9895 36.9926L15.7184 35.3469ZM6.13153 44.2123H8.93492L9.79658 41.5676L10.6588 44.2123H13.4547L11.1911 45.8546L12.0568 48.5137L9.79313 46.868L7.54041 48.5068L8.40264 45.858L6.13153 44.2123ZM15.7184 44.2123H18.5218L19.384 41.5676L20.2456 44.2123H23.0416L20.7779 45.8546L21.6436 48.5137L19.38 46.868L17.1278 48.5068L17.9895 45.858L15.7184 44.2123Z" fill="#003C5E"/>
<path fill-rule="evenodd" clip-rule="evenodd" d="M15.7194 44.2114H18.5228L19.385 41.5667L20.2467 44.2114H23.0426L20.779 45.8537L21.6446 48.5128L19.381 46.8671L17.1289 48.5059L17.9905 45.8571L15.7194 44.2114ZM79.7623 50.9822V85.8254C79.7623 93.3498 75.742 95.5152 68.4217 95.5152C54.1961 95.6186 47.0838 100.566 43.6821 103.762C40.2803 100.566 33.1675 95.6186 18.9413 95.5152C11.6221 95.5152 7.60181 93.3492 7.60181 85.8254V50.9822H79.7623ZM81.2321 26.3777H78.4287L77.5665 23.7329L76.7054 26.3777H73.9089L76.172 28.0199L75.3063 30.679L77.5711 29.0333L79.8232 30.6716L78.961 28.0234L81.2321 26.3777ZM71.6453 26.3777H68.8419L67.9797 23.7329L67.1186 26.3777H64.3221L66.5851 28.0199L65.72 30.679L67.9831 29.0333L70.2364 30.6716L69.3742 28.0234L71.6453 26.3777Z" fill="#003C5E"/>
<path fill-rule="evenodd" clip-rule="evenodd" d="M71.6452 26.3777H68.8418L67.9795 23.7329L67.1185 26.3777H64.322L66.585 28.0199L65.7199 30.679L67.983 29.0333L70.2363 30.6716L69.374 28.0234L71.6452 26.3777ZM81.232 35.346H78.4286L77.5664 32.7012L76.7053 35.346H73.9088L76.1719 36.9882L75.3062 39.6474L77.571 38.0016L79.8231 39.6405L78.9609 36.9917L81.232 35.346ZM71.6452 35.346H68.8418L67.9795 32.7012L67.1185 35.346H64.322L66.585 36.9882L65.7199 39.6474L67.983 38.0016L70.2363 39.6405L69.374 36.9917L71.6452 35.346Z" fill="#003C5E"/>
<path fill-rule="evenodd" clip-rule="evenodd" d="M71.6452 35.3469H68.8418L67.9795 32.7021L67.1185 35.3469H64.322L66.585 36.9891L65.7199 39.6483L67.983 38.0026L70.2363 39.6414L69.374 36.9926L71.6452 35.3469ZM81.232 44.2123H78.4286L77.5664 41.5676L76.7053 44.2123H73.9088L76.1719 45.8546L75.3062 48.5137L77.571 46.868L79.8231 48.5068L78.9609 45.858L81.232 44.2123ZM71.6452 44.2123H68.8418L67.9795 41.5676L67.1185 44.2123H64.322L66.585 45.8546L65.7199 48.5137L67.983 46.868L70.2363 48.5068L69.374 45.858L71.6452 44.2123Z" fill="#003C5E"/>
<path fill-rule="evenodd" clip-rule="evenodd" d="M71.6459 44.2116H68.8425L67.9802 41.5669L67.1192 44.2116H64.3227L66.5857 45.8539L65.7206 48.513L67.9837 46.8673L70.237 48.5061L69.3748 45.8573L71.6459 44.2116ZM62.059 44.2116H59.2556L58.3934 41.5669L57.5312 44.2116H54.7358L56.9995 45.8539L56.1338 48.513L58.3969 46.8673L60.6502 48.5061L59.7879 45.8573L62.059 44.2116ZM40.2544 17.5124H43.0578L43.9195 14.8677L44.7811 17.5124H47.5776L45.3146 19.1547L46.1785 21.8138L43.916 20.1681L41.6633 21.8063L42.525 19.1581L40.2544 17.5124Z" fill="#003C5E"/>
<path fill-rule="evenodd" clip-rule="evenodd" d="M37.5997 89.2273C37.5997 89.8963 37.5997 91.4949 36.5691 92.0105C35.5384 92.5261 35.3321 93.1958 35.435 93.608C35.5379 94.0201 36.0017 94.4846 36.8266 94.7421C37.6515 95.0002 39.1977 95.5158 43.7848 98.8658C44.6091 99.3809 45.4345 99.071 45.6915 98.7624C45.9496 98.4537 46.053 97.5771 45.3828 96.8034C44.6522 95.9613 43.8883 94.6386 43.8883 92.6808V73.4548H48.5782C49.7123 73.4548 50.8459 73.7646 51.2074 75.7225C51.5161 77.0112 53.3205 77.2181 53.3205 75.8259V65.466C53.3205 64.3318 51.3097 64.4353 51.0528 65.5694C50.7947 66.7036 50.743 68.7143 49.1967 68.7143H43.8883V58.3014H49.6606C50.5372 58.3014 51.4132 58.6107 51.9282 59.3321C52.4444 60.054 54.0424 61.9613 55.1248 61.4968C55.6399 61.2916 55.8974 60.7749 55.6399 59.796L53.217 53.2505H36.5691C35.5384 53.2505 35.0228 53.6115 34.9194 54.0754C34.8165 54.5392 35.1257 55.4158 35.8471 55.7762C36.5685 56.1372 37.5997 56.8586 37.5997 58.5084V89.2273Z" fill="#F8F2EC"/>
<path fill-rule="evenodd" clip-rule="evenodd" d="M58.3204 84.846C58.3204 85.568 58.3204 87.3206 57.2898 88.1455C56.2591 88.9697 53.7328 91.3409 54.8152 92.7831C55.2285 93.3499 56.362 93.1964 57.8048 92.6808C59.2487 92.1657 63.4742 92.0105 65.0205 92.0623C66.5673 92.114 73.8865 93.4533 76.7727 84.7937C78.6799 78.8156 75.999 71.7533 70.6394 71.6504C67.598 71.5987 66.1035 73.1461 65.8454 75.3621C65.5873 77.578 67.3911 80.8769 71.2579 80.2584C72.3403 80.0532 72.5972 80.4136 72.5972 81.2902C72.5972 82.1656 72.2885 87.4752 67.2376 87.4752C66.4121 87.4752 65.1751 87.5269 64.6084 87.5269V59.2292C64.6084 57.8893 66.2058 56.0338 67.2893 55.3124C68.1136 54.7973 68.0619 53.2505 67.083 53.2505H56.0527C55.3308 53.2505 54.61 54.0754 55.6406 55.1577C56.6713 56.2401 58.3204 57.0644 58.3204 59.4355V84.846ZM78.3402 102.388H81.4644V102.848H80.1624V106.237H79.6422V102.848H78.3402V102.388ZM85.1145 106.237V103.963C85.1145 103.851 85.126 103.364 85.126 103.005H85.1145L84.0321 106.237H83.517L82.4347 103.01H82.4232C82.4232 103.364 82.4347 103.851 82.4347 103.963V106.237H81.9305V102.388H82.6761L83.7751 105.642H83.7855L84.8788 102.388H85.6186V106.237H85.1145ZM10.953 53.2505C10.1799 53.2505 9.40675 53.6115 9.25212 54.2811C9.12221 54.8433 9.25212 55.7245 10.077 56.0855C10.9019 56.4465 12.1389 57.1679 12.1389 59.0751V82.0627C12.1389 82.9393 12.0354 84.1758 10.8501 84.0217C9.66484 83.8665 9.35502 84.4338 9.30386 84.7943C9.25212 85.1558 9.45848 87.5787 12.8603 89.7946C13.9944 90.5154 17.1898 92.6296 18.4785 91.5978C19.097 91.1339 18.4268 88.918 17.8083 88.1972C17.1898 87.4752 16.7777 86.5986 16.7777 85.361V67.3215L25.6431 90.4648C26.2616 92.0105 28.22 93.5051 29.6634 93.0412C31.1067 92.5773 31.3131 91.4438 31.3131 90.5149V58.5084C31.3131 57.5806 31.3643 56.7557 33.1686 55.7762C34.0964 55.3641 34.4574 53.2505 32.8082 53.2505H23.5824C22.5 53.2505 21.778 54.5904 22.8092 55.4153C23.8399 56.2401 25.9535 57.2708 25.9535 58.9722V73.8681L19.0447 55.8797C18.478 54.4881 17.4985 53.2511 16.4161 53.2511L10.953 53.2505Z" fill="#F8F2EC"/>
<path fill-rule="evenodd" clip-rule="evenodd" d="M36.6734 38.9206L37.1885 40.1576L29.921 43.0955C32.8072 46.9611 41.4151 47.7343 47.4967 44.5389C53.338 41.4699 57.2382 37.5807 58.0119 31.8078L50.795 34.6686L50.3311 33.4834L57.4445 30.5713C56.4644 29.0251 48.9401 25.4169 40.2804 28.9733C32.3427 31.8083 29.1991 38.9211 29.3537 41.859L36.6734 38.9206Z" fill="#003C5E"/>
<path fill-rule="evenodd" clip-rule="evenodd" d="M38.8758 40.2304C38.9852 40.186 39.0726 40.1 39.1187 39.9913C39.1648 39.8826 39.1659 39.76 39.1218 39.6504L38.4642 38.0248C38.4423 37.9706 38.4099 37.9212 38.3689 37.8795C38.3279 37.8378 38.279 37.8045 38.2252 37.7817C38.1713 37.7589 38.1135 37.7468 38.055 37.7463C37.9965 37.7458 37.9385 37.7569 37.8842 37.7788L37.7848 37.8035C37.6753 37.8479 37.588 37.9339 37.5419 38.0427C37.4957 38.1514 37.4946 38.274 37.5387 38.3835L38.1963 40.0097C38.2406 40.1191 38.3265 40.2064 38.4352 40.2526C38.5438 40.2987 38.6663 40.2998 38.7758 40.2557L38.8758 40.2304ZM40.4479 39.6119C40.5021 39.59 40.5515 39.5577 40.5932 39.5167C40.6349 39.4758 40.6681 39.427 40.691 39.3732C40.7138 39.3194 40.7259 39.2616 40.7264 39.2031C40.7269 39.1447 40.7158 39.0867 40.6939 39.0325L40.0363 37.4063C39.992 37.2969 39.9062 37.2096 39.7975 37.1635C39.6889 37.1173 39.5664 37.1162 39.4569 37.1603L39.3569 37.185C39.3027 37.207 39.2533 37.2393 39.2116 37.2804C39.1698 37.3214 39.1366 37.3702 39.1138 37.4241C39.0909 37.4779 39.0789 37.5358 39.0784 37.5943C39.0779 37.6528 39.0889 37.7108 39.1109 37.765L39.7685 39.3912C39.7904 39.4454 39.8228 39.4948 39.8638 39.5365C39.9048 39.5782 39.9537 39.6115 40.0075 39.6343C40.0614 39.6572 40.1192 39.6692 40.1777 39.6697C40.2362 39.6702 40.2942 39.6591 40.3485 39.6372L40.4479 39.6119ZM42.02 38.9934C42.1294 38.9491 42.2168 38.8632 42.2629 38.7546C42.309 38.646 42.3102 38.5235 42.2661 38.414L41.6085 36.7878C41.5641 36.6784 41.4781 36.591 41.3693 36.5449C41.2606 36.4988 41.138 36.4977 41.0285 36.5418L40.929 36.5665C40.8748 36.5884 40.8254 36.6207 40.7837 36.6617C40.742 36.7026 40.7088 36.7514 40.6859 36.8052C40.6631 36.8591 40.6511 36.9168 40.6506 36.9753C40.6501 37.0338 40.6611 37.0917 40.683 37.1459L41.3406 38.7721C41.3849 38.8815 41.4708 38.9688 41.5794 39.015C41.688 39.0611 41.8105 39.0622 41.92 39.0181L42.02 38.9934ZM43.5916 38.3749C43.701 38.3306 43.7883 38.2447 43.8345 38.1361C43.8806 38.0274 43.8817 37.9049 43.8376 37.7955L43.1806 36.1693C43.1363 36.0599 43.0504 35.9726 42.9418 35.9264C42.8331 35.8803 42.7107 35.8792 42.6012 35.9233L42.5017 35.948C42.4475 35.9699 42.3981 36.0023 42.3564 36.0434C42.3147 36.0844 42.2814 36.1332 42.2586 36.1871C42.2358 36.2409 42.2237 36.2987 42.2232 36.3572C42.2228 36.4157 42.2338 36.4738 42.2557 36.528L42.9133 38.1542C42.9577 38.2636 43.0437 38.351 43.1524 38.3971C43.2612 38.4432 43.3837 38.4443 43.4933 38.4002L43.5916 38.3749ZM45.1632 37.7564C45.2175 37.7346 45.267 37.7023 45.3088 37.6613C45.3507 37.6203 45.384 37.5715 45.407 37.5176C45.4299 37.4638 45.442 37.4059 45.4426 37.3474C45.4432 37.2888 45.4322 37.2307 45.4103 37.1764L44.7522 35.5502C44.7079 35.4408 44.622 35.3535 44.5133 35.3074C44.4047 35.2612 44.2822 35.2601 44.1727 35.3042L44.0733 35.3295C44.0191 35.3514 43.9697 35.3837 43.928 35.4247C43.8863 35.4656 43.8531 35.5144 43.8302 35.5682C43.8074 35.622 43.7953 35.6798 43.7948 35.7383C43.7943 35.7967 43.8053 35.8547 43.8273 35.9089L44.4854 37.5351C44.5296 37.6446 44.6155 37.7321 44.7241 37.7783C44.8328 37.8245 44.9553 37.8258 45.0649 37.7817L45.1632 37.7564ZM46.7359 37.1379C46.8453 37.0935 46.9326 37.0075 46.9788 36.8988C47.0249 36.79 47.026 36.6674 46.9819 36.5579L46.3237 34.9317C46.2794 34.8223 46.1935 34.735 46.0849 34.6889C45.9763 34.6427 45.8538 34.6416 45.7443 34.6857L45.6443 34.7104C45.5349 34.7547 45.4475 34.8406 45.4014 34.9492C45.3553 35.0579 45.3541 35.1804 45.3983 35.2898L46.0564 36.916C46.0782 36.9703 46.1105 37.0197 46.1515 37.0615C46.1924 37.1033 46.2412 37.1365 46.295 37.1594C46.3488 37.1824 46.4066 37.1944 46.4651 37.195C46.5236 37.1955 46.5816 37.1845 46.6358 37.1626L46.7359 37.1379ZM48.308 36.5194C48.4174 36.475 48.5048 36.389 48.5509 36.2802C48.597 36.1715 48.5981 36.0489 48.554 35.9394L47.897 34.3132C47.8525 34.2037 47.7664 34.1164 47.6575 34.0703C47.5487 34.0242 47.4261 34.0231 47.3164 34.0672L47.2176 34.0919C47.1632 34.1137 47.1137 34.1461 47.0719 34.187C47.03 34.228 46.9967 34.2768 46.9737 34.3307C46.9508 34.3845 46.9387 34.4424 46.9381 34.501C46.9375 34.5595 46.9485 34.6176 46.9704 34.6719L47.6285 36.2981C47.6504 36.3523 47.6828 36.4017 47.7237 36.4434C47.7647 36.4851 47.8135 36.5183 47.8673 36.5412C47.9211 36.564 47.9789 36.576 48.0373 36.5765C48.0958 36.577 48.1538 36.566 48.208 36.5441L48.308 36.5194ZM49.8795 35.9009C49.9339 35.8791 49.9835 35.8468 50.0253 35.8059C50.0671 35.7649 50.1005 35.716 50.1233 35.6621C50.1462 35.6082 50.1582 35.5503 50.1586 35.4917C50.1589 35.4332 50.1477 35.3751 50.1256 35.3209L49.4685 33.6953C49.4243 33.5859 49.3384 33.4986 49.2297 33.4524C49.1211 33.4063 48.9986 33.4052 48.8891 33.4493L48.7891 33.474C48.6797 33.5183 48.5924 33.6042 48.5462 33.7128C48.5001 33.8214 48.499 33.9439 48.5431 34.0534L49.2001 35.6796C49.222 35.7339 49.2544 35.7833 49.2955 35.8251C49.3366 35.8669 49.3854 35.9001 49.4394 35.923C49.4933 35.9458 49.5512 35.9578 49.6098 35.9583C49.6683 35.9587 49.7264 35.9476 49.7807 35.9256L49.8795 35.9009Z" fill="#F8F2EC"/>
<path fill-rule="evenodd" clip-rule="evenodd" d="M57.9216 29.3495L58.3952 29.0327L60.6485 30.6716L59.7863 28.0234L62.0574 26.3777H59.254L58.3918 23.7329L57.5295 26.3777H54.7342L56.9978 28.0199L56.8518 28.5999C57.203 28.8149 57.5767 29.0988 57.9216 29.3495ZM47.9082 26.3391L48.8055 23.7335L49.7442 26.4041C49.1335 26.3546 48.5209 26.3329 47.9082 26.3391ZM36.7228 29.4035L37.1631 28.0239L34.892 26.3782H37.6954L38.5576 23.7335L39.4193 26.3782H42.2152L40.0033 27.9176C38.3915 28.5005 37.1614 29.1425 36.7228 29.4035ZM30.409 35.3718L29.8324 35.346L28.9708 32.7012L28.1086 35.346H25.3052L27.5763 36.9917L26.7146 39.6399L29.0444 38.0269C29.3824 37.1992 29.8238 36.2726 30.409 35.3718ZM30.8217 45.5323L30.3653 45.8537L31.2304 48.5128L28.9668 46.8671L26.7141 48.5059L27.5757 45.8577L25.3046 44.212H28.108L28.4241 43.0968C28.9403 44.3333 29.8681 44.9 30.8217 45.5323ZM40.5614 47.5379L40.8178 48.5128L39.5141 47.6051C39.7929 47.5873 40.2855 47.5661 40.5614 47.5379ZM37.6247 47.6149L36.3015 48.5059L36.6211 47.5212C36.9637 47.5523 37.2804 47.6034 37.6247 47.6149ZM47.4006 45.7853L47.411 45.8537L46.5453 48.5128L48.8089 46.8671L51.0611 48.5059L50.2 45.8577L52.47 44.212L50.1787 44.1965C50.1351 44.2252 49.9362 44.3827 49.8925 44.4115C49.1001 44.9355 48.2668 45.3949 47.4006 45.7853ZM58.6976 33.6503L59.2546 35.346H62.0579L59.7868 36.9917L60.6491 39.6399L58.3958 38.0011L56.1321 39.6468L56.4127 38.688C57.6485 36.7825 58.4481 35.0816 58.6976 33.6503Z" fill="#003C5E"/>
</svg>
