<svg width="145" height="100" viewBox="0 0 145 100" fill="none" xmlns="http://www.w3.org/2000/svg">
<path d="M43.5968 70.3966C43.5968 63.716 36.505 60.4967 28.0807 60.4967C19.0683 60.4967 10.8002 64.487 7.76435 70.6747C6.92702 72.323 6.4914 74.1458 6.49302 75.9943C6.45497 77.5932 6.89784 79.1668 7.76435 80.5114C9.06509 82.4308 11.3861 83.6358 14.7928 83.6358C18.9733 83.6358 22.2874 81.3456 22.2874 77.3553C22.2874 77.3553 22.3484 76.243 21.0477 76.243C19.9958 76.243 19.7153 76.9846 19.747 77.3553C19.903 80.4797 18.0436 82.9869 14.7295 82.9869C11.0151 82.9869 9.46549 79.8309 9.46549 76.4601C9.46549 69.5602 14.6684 64.9821 20.0885 63.0039C22.621 62.0477 25.3105 61.5753 28.0174 61.6112C34.1501 61.6112 39.1675 63.9625 39.1675 70.2746C39.1675 75.5331 34.7382 80.0185 29.4425 80.4209L29.6597 79.7088C30.7433 75.8406 32.0757 71.6039 34.2428 68.4795C34.3672 68.2919 34.5844 67.9844 34.831 67.6747L34.5211 67.3039C34.0575 67.584 33.6124 67.8936 33.1887 68.2308C23.0316 76.1503 22.7239 98.4235 9.18724 98.4235C8.72124 98.4235 8.25524 98.3919 7.79376 98.3308C4.97512 97.8674 3.48889 95.9796 3.48889 93.3503C3.48889 92.8236 3.67438 92.1114 3.67438 91.7113C3.68443 91.3525 3.55171 91.0045 3.30532 90.7434C3.05893 90.4823 2.719 90.3296 2.36007 90.3186H2.18815C0.980161 90.3186 0.484751 91.2772 0.453081 92.6382C0.360332 96.5674 3.27172 98.8554 7.76209 99.2894C8.2575 99.3211 8.75291 99.3505 9.27999 99.3505C19.8397 99.3505 26.3117 91.3699 29.0693 81.687C30.465 81.5242 31.8449 81.2348 33.1887 80.8211C38.0839 79.4579 43.5945 76.1797 43.5945 70.3944L43.5968 70.3966ZM144.188 72.7162H140.471L139.636 74.665L138.18 77.9431H136.447L135.917 79.0577H137.716L135.546 83.8528C134.001 87.2236 131.583 90.5357 130.19 90.5357C129.88 90.5357 129.694 90.4113 129.694 90.1039C129.694 89.7964 129.787 89.5161 130.129 88.6502C130.563 87.6283 131.275 86.1452 131.803 85.0623C132.576 83.4843 133.816 81.0404 133.816 79.8354C133.816 78.6304 133.042 77.6696 131.524 77.6696C129.821 77.6696 128.274 78.6914 126.846 80.1745L127.776 77.9476H124.279L121.428 84.4451C120.284 86.7353 117.96 90.5402 116.504 90.5402C116.194 90.5402 116.069 90.3548 116.069 90.0451C116.099 89.767 116.173 89.4957 116.286 89.2402C116.411 88.9622 118.114 84.9719 118.114 84.9719L121.211 77.8866H117.433L114.429 84.7843C113.502 86.9184 111.147 90.5379 109.629 90.5379C109.364 90.5628 109.129 90.3706 109.102 90.1061V89.9818C109.102 89.611 109.38 88.9305 109.597 88.4354L111.176 84.9719L114.427 77.8866H110.681L109.934 79.4963C109.378 80.5792 108.448 81.8475 106.962 81.8475C106.249 81.8475 105.91 81.5694 105.754 81.2913C105.537 78.9085 104.019 77.6402 101.788 77.6402C98.6915 77.6402 96.4927 79.4646 95.0358 81.6938C94.0814 83.2285 93.3323 84.8817 92.8076 86.611C91.4752 88.8084 90.0817 90.5108 88.9665 90.5108C88.6882 90.5108 88.5005 90.3548 88.5005 89.984C88.5005 89.6133 88.8715 88.7768 88.9959 88.4671L91.4435 83.2695C92.1245 81.6621 92.5905 80.6086 92.5905 79.5573C92.5905 78.4428 91.8168 77.6379 90.5455 77.6379C88.781 77.6379 86.8604 78.6598 85.3425 80.3282C85.3946 80.0637 85.4149 79.7924 85.4036 79.5234C85.4036 78.2868 84.7838 77.6357 83.5147 77.6357C81.9041 77.6357 80.2323 78.5965 78.7144 80.3282L79.7052 77.9137H76.2984L73.4187 84.4112C72.0569 87.4746 69.8581 90.5063 68.6185 90.5063C68.3402 90.5063 68.1547 90.3503 68.1547 89.9795C68.1547 89.3917 68.8062 87.938 69.0528 87.3502L72.8622 78.7186C73.1405 78.0697 71.3127 77.6673 68.9917 77.6673C66.6707 77.6673 64.1598 78.8429 62.3636 80.3576C61.0945 81.4089 60.1648 81.9357 59.6988 81.9357C59.6575 81.9444 59.6147 81.9437 59.5737 81.9338C59.5326 81.9238 59.4943 81.9048 59.4616 81.8781C59.4288 81.8515 59.4024 81.8178 59.3844 81.7797C59.3663 81.7415 59.357 81.6998 59.3572 81.6576C59.3572 81.1308 60.6263 79.6455 60.6263 78.5015C60.6263 77.9748 60.348 77.6357 59.6354 77.6357C58.2736 77.6357 56.663 78.9356 55.4867 80.2966L56.4775 77.9137H53.134L50.2543 84.4112C48.8902 87.4746 46.6303 90.66 45.3907 90.66C45.1124 90.66 44.9269 90.5063 44.9269 90.1333C44.9269 89.5455 45.5468 88.1234 45.8861 87.3796L49.6956 78.7186C49.9738 78.0697 48.146 77.6673 45.8228 77.6673C42.3843 77.6673 39.0408 79.9869 37.2741 82.3697C35.3241 84.9357 33.9917 87.66 33.96 89.8868C33.9306 91.6819 34.8581 92.7942 36.7153 92.7942C38.7897 92.7942 40.4637 91.1551 41.4229 89.9162C41.3663 90.1604 41.3233 90.4091 41.2985 90.66C41.2985 91.8967 41.7939 92.7942 43.3118 92.7942C44.6442 92.7942 46.4087 91.6796 47.8338 89.9162L46.6869 92.5455H50.3109L53.8738 84.47C55.0523 81.8407 56.3847 80.4797 56.7557 80.4797C56.8417 80.4639 56.9231 80.5182 56.939 80.6041C56.939 80.6131 56.9412 80.6244 56.9412 80.6335C56.9412 80.9115 56.3847 81.6553 56.3847 82.3358C56.3847 83.0163 56.7557 83.5431 57.7488 83.5431C58.5225 83.5431 59.3889 83.1723 60.1648 82.6772C58.337 85.1528 57.0973 87.7504 57.0973 89.8868C57.0656 91.6819 57.9954 92.7942 59.8549 92.7942C61.8049 92.7942 63.6327 90.9381 64.6235 89.7015C64.5873 89.9886 64.5647 90.2779 64.5624 90.5673C64.5624 91.7746 65.2433 92.7942 66.6368 92.7942C68.1841 92.7942 69.4238 91.8356 70.9734 89.9479L69.8264 92.5455H73.5432L76.95 84.843C78.4362 81.5016 80.4495 79.7065 81.4403 79.7065C81.6869 79.6817 81.9108 79.8603 81.9357 80.109V80.2016C81.8952 80.5777 81.7904 80.944 81.6258 81.2846L76.7373 92.5772H80.5468L84.0146 84.7187C85.5009 81.3479 87.1432 79.7065 88.3806 79.7065C88.7516 79.7065 88.9077 79.8942 88.9077 80.2943C88.8737 80.7261 88.7584 81.1467 88.5661 81.5332L85.2204 88.6479C84.9129 89.333 84.7247 90.0654 84.6639 90.8138C84.6639 91.8967 85.252 92.8575 86.926 92.8575C89.0954 92.8575 90.7355 91.2184 92.5927 88.7745V89.299C92.7488 91.2478 93.8324 92.9502 96.7121 92.9502C100.119 92.9502 102.876 90.599 104.546 86.8574C105.177 85.5416 105.587 84.1286 105.756 82.6795C106.129 82.8694 106.546 82.9553 106.964 82.9281C107.527 82.9343 108.081 82.7957 108.575 82.5257L107.987 83.794C107.303 85.2183 106.559 86.7963 105.973 88.1257C105.602 88.9128 105.381 89.7624 105.322 90.6306C105.322 91.96 106.064 92.9208 107.582 92.9208C109.1 92.9208 111.174 91.4965 112.66 89.4867H112.692C112.592 89.9027 112.54 90.3277 112.536 90.755C112.536 91.8695 112.877 92.9208 114.427 92.9208C116.225 92.9208 117.617 91.6209 118.981 89.9818L117.834 92.5817H121.582L124.586 85.7767C126.29 81.9402 127.993 79.6206 129.57 79.6206C129.841 79.6116 130.072 79.8151 130.099 80.0841V80.1745C130.099 80.8256 129.169 82.589 128.335 84.3502C127.559 85.9599 126.971 87.1965 126.57 88.1551C126.198 88.9633 125.977 89.8331 125.919 90.7211C125.919 91.8967 126.57 92.7942 128.025 92.7942C130.192 92.7942 132.391 90.6917 133.565 89.1136C133.299 89.8702 133.154 90.6634 133.133 91.4649C133.133 93.6307 134.431 94.7136 136.259 94.7136C137.474 94.7046 138.655 94.3157 139.636 93.6013C141.059 92.6111 142.208 91.1257 143.168 89.7648L142.516 89.1453C141.618 90.4136 140.625 91.6208 139.602 92.3624C139.063 92.8176 138.387 93.0787 137.682 93.1039C136.908 93.1039 136.413 92.7015 136.413 91.7113C136.413 90.7211 136.877 89.3917 137.589 87.5967C137.619 87.5673 138.641 85.2771 139.602 83.0819C140.408 81.2235 141.213 79.4307 141.367 79.06H143.812L144.308 77.9454H141.892L144.183 72.7162H144.188ZM38.5499 90.5673C38.0229 90.5673 37.6519 90.3819 37.6519 89.7015C37.6835 87.877 39.1992 84.6283 41.0903 82.0284C42.4205 80.2333 44.1556 78.904 46.015 78.904L43.6601 84.1625C41.8957 88.1234 39.9751 90.5673 38.5499 90.5673ZM61.7144 90.5673C61.1873 90.5673 60.8163 90.3819 60.7869 89.7015C60.8186 87.877 62.3342 84.6283 64.2254 82.0284C65.5555 80.2333 67.2906 78.904 69.1501 78.904L66.7952 84.1625C64.999 88.2161 63.1735 90.5673 61.7166 90.5673H61.7144ZM102.84 80.3282C102.748 82.3381 100.983 87.1942 98.9086 90.1039C98.0739 91.2795 97.3591 91.6186 96.7415 91.6186C95.8728 91.6186 95.624 90.9064 95.7484 89.8552C95.9339 88.0307 97.4518 83.7601 99.5579 80.8211C100.517 79.4918 101.169 78.9333 101.913 78.9333C102.657 78.9333 102.872 79.5528 102.84 80.326V80.3282ZM72.3691 50.0428C71.9891 49.8846 71.367 49.1883 72.403 47.244L74.8077 42.2205C74.8801 42.0691 74.7059 41.8791 74.595 42.008L72.4912 44.1218C71.4959 45.1595 69.8083 48.0782 69.4803 48.6185L66.9264 52.8394C67.1164 52.8326 67.2747 52.9818 67.2815 53.1717C67.2815 53.235 67.2679 53.2961 67.2385 53.3503L64.904 57.2705C64.3339 58.2427 65.3587 58.9232 65.4967 58.6994C69.1682 52.7897 71.3014 53.2622 71.3014 53.2622L72.5275 50.4272C72.593 50.2847 72.5275 50.1174 72.3872 50.0541C72.3827 50.0519 72.3759 50.0496 72.3691 50.0473V50.0428Z" fill="#003756"/>
<path d="M80.7147 0.673828C59.7287 0.673828 42.7151 17.6681 42.7151 38.6301C42.7042 46.7452 45.3091 54.648 50.144 61.1678C51.7388 60.4805 52.6233 59.4519 53.2567 58.6651L60.3327 49.6265C60.482 49.4366 60.6765 49.2851 60.8982 49.1902L61.9637 48.7313L73.5979 33.991L75.2855 32.6707L78.7511 27.8507C78.8416 27.7263 78.9502 27.6156 79.0746 27.5251L80.588 26.4264C80.77 26.2941 80.9888 26.2218 81.2139 26.2198C81.439 26.2178 81.6591 26.2861 81.8435 26.4151L83.6781 27.7015C84.6508 28.3842 85.4403 29.2976 85.9764 30.3579L93.3284 43.2556C93.4485 43.5017 93.6521 43.6972 93.903 43.8073C95.344 44.5239 96.2262 44.6505 98.1129 46.6988C98.9928 47.6529 102.852 51.9642 108.259 58.6606C109.044 59.7351 110.096 60.5867 111.31 61.1316C116.131 54.6173 118.727 46.7257 118.714 38.6233C118.712 17.6681 101.701 0.673828 80.7147 0.673828ZM52.9626 40.7236L50.4991 39.9232L48.9767 42.0167V39.4304L46.5132 38.6301L48.9767 37.8298V35.2434L50.4991 37.3369L52.9626 36.5366L51.4402 38.6301L52.9626 40.7213V40.7236ZM52.379 49.1879L51.5782 51.6477L50.7774 49.1879H48.1872L50.282 47.6664L49.4812 45.2067L51.5759 46.7282L53.6707 45.2067L52.8699 47.6664L54.9646 49.1879H52.3744H52.379ZM52.8744 29.596L53.6752 32.0557L51.5804 30.5342L49.4857 32.0557L50.2865 29.596L48.1917 28.0745H50.7819L51.5827 25.6148L52.3835 28.0745H54.9737L52.8789 29.596H52.8744ZM57.0345 21.4436V24.03L55.5143 21.9387L53.0508 22.7391L54.5733 20.6456L53.0508 18.5521L55.5143 19.3524L57.0367 17.2589V19.8453L59.5002 20.6433L57.0367 21.4436H57.0345ZM63.5087 14.9778L62.7079 17.4353L61.9071 14.9755H59.317L61.4117 13.454L60.6109 10.9943L62.7057 12.5135L64.8004 10.992L63.9996 13.454L66.0944 14.9755H63.5042L63.5087 14.9778ZM71.6683 10.8225L70.1459 12.916V10.3296L67.6824 9.52931L70.1459 8.72899V6.14266L71.6683 8.23614L74.1318 7.43582L72.6094 9.52931L74.1318 11.6228L71.6683 10.8225ZM82.0086 8.45092L82.8094 10.9106L80.7147 9.38914L78.6199 10.9106L79.4184 8.45092L77.3237 6.92941H79.9139L80.7147 4.46968L81.5155 6.92941H84.1056L82.0109 8.44865L82.0086 8.45092ZM91.2812 10.3296V12.916L89.7587 10.8225L87.2953 11.6228L88.8177 9.52931L87.2953 7.43582L89.7587 8.23614L91.2812 6.14266V8.72899L93.7446 9.52931L91.2812 10.3296ZM108.464 36.5411L110.928 37.3414L112.45 35.248V37.8343L114.914 38.6346L112.45 39.4349V42.0213L110.928 39.9278L108.464 40.7281L109.989 38.6346L108.464 36.5411ZM109.849 25.617L110.65 28.0768H113.24L111.145 29.5983L111.946 32.058L109.849 30.5365L107.754 32.058L108.555 29.5983L106.458 28.0768H109.046L109.847 25.617H109.849ZM98.7214 17.4375L97.9206 14.9778H95.3304L97.4252 13.4563L96.6266 10.9966L98.7214 12.5181L100.816 10.9988L100.018 13.4585L102.112 14.9801H99.5222L98.7214 17.4398V17.4375ZM104.397 24.0322V21.4459L101.934 20.6456L104.397 19.8475V17.2589L105.92 19.3524L108.383 18.5521L106.861 20.6456L108.383 22.7391L105.92 21.9387L104.397 24.0322ZM110.65 49.1879L109.849 51.6477L109.048 49.1879H106.458L108.555 47.6664L107.754 45.2067L109.849 46.7282L111.946 45.2067L111.145 47.6664L113.24 49.1879H110.652H110.65Z" fill="#003756"/>
<path d="M94.4758 60.567C94.659 60.3025 94.9554 59.5745 94.3989 58.2271L92.7181 53.7101C92.4896 53.1336 92.9896 52.7831 93.3244 53.163C93.3244 53.163 96.5027 56.8232 97.3238 58.3514L98.8915 60.9513C100.24 61.0373 103.961 61.139 107.542 61.139C107.181 60.7811 106.847 60.3964 106.544 59.9883C100.432 52.4192 96.557 48.2096 96.5185 48.1666C95.2789 46.8215 94.7065 46.5637 93.7632 46.1342C93.6275 46.0731 93.4782 46.0053 93.3244 45.933V47.0815C93.3334 47.1583 93.2791 47.2307 93.1999 47.2397C93.1694 47.2433 93.1386 47.2369 93.112 47.2214C93.0855 47.2059 93.0647 47.1821 93.0529 47.1538L84.0676 31.3871L84.0428 31.3374C83.6672 30.5936 83.1153 29.956 82.4344 29.4767L81.5589 28.8618L77.2721 38.7414C77.4259 38.7415 77.5772 38.7798 77.7125 38.8528C77.8478 38.9259 77.9628 39.0313 78.0471 39.1598C78.1315 39.2883 78.1825 39.4357 78.1957 39.5888C78.2089 39.7419 78.1838 39.8959 78.1227 40.0369L74.1617 49.1885H77.797C79.2018 49.1885 80.593 49.4621 81.8937 49.9933L82.8529 50.3867C82.8529 50.3867 79.9618 56.3281 79.9618 59.457C79.9664 60.0267 80.0455 60.5919 80.1971 61.1413H86.8614L86.5537 59.2648C89.1688 59.8481 91.8132 60.2844 94.4758 60.5693V60.567Z" fill="#003756"/>
</svg>
