<svg width="161" height="122" viewBox="0 0 161 122" fill="none" xmlns="http://www.w3.org/2000/svg">
<path d="M160.077 52.3818H101.854V37.4814H160.077V52.3818Z" fill="#003756"/>
<path d="M152.514 52.3828H101.854V15.1157H152.514V52.3828Z" fill="#003756"/>
<path d="M131.584 52.3822H101.854V0.222656H131.584V52.3822Z" fill="#005484"/>
<path d="M137.433 52.3824H101.854V6.04297H137.433V52.3824Z" fill="#005484"/>
<path d="M101.844 6.05176V52.3776H131.579V6.05176H101.844Z" fill="#003756"/>
<path d="M72.0411 52.3823H101.854V59.8333H72.0411V52.3823Z" fill="#003756"/>
<path d="M101.844 15.1074V52.3779H137.448V15.1074H101.844Z" fill="#01466D"/>
<path d="M101.844 15.1074V52.3779H131.579V15.1074H101.844Z" fill="#005484"/>
<path d="M120.446 52.3809H101.854V30.0127H120.446V52.3809Z" fill="#01466D"/>
<path d="M101.844 37.4927V52.3776H152.529V37.4927H101.844Z" fill="#01466D"/>
<path d="M101.844 37.4927V52.3776H137.448V37.4927H101.844Z" fill="#005484"/>
<path d="M101.844 37.4927V52.3776H131.579V37.4927H101.844Z" fill="#01466D"/>
<path d="M101.844 37.4927V52.3776H120.462V37.4927H101.844Z" fill="#002E56"/>
<path d="M108.336 80.471C103.263 81.3727 100.558 85.2047 100.558 91.8544C100.558 98.617 104.165 103.125 109.463 103.125C112.056 103.125 114.31 102.224 119.045 99.8567V105.38C113.296 108.084 109.914 108.761 105.405 108.761C100.333 108.761 96.7251 107.521 93.9071 104.478C90.9763 101.547 89.3982 97.7153 89.3982 93.3195C89.3982 83.7394 96.6124 77.0897 107.096 77.0897C113.972 77.0897 118.819 80.3583 118.819 84.9793C118.819 88.0224 116.564 90.164 113.296 90.164C111.605 90.164 110.252 89.6005 108.336 88.586M82.973 93.3196C87.5947 87.5716 89.2856 85.2047 89.2856 82.3869C89.2856 79.5691 87.0311 77.0894 83.8748 77.0894C82.0712 77.0894 80.3806 78.1039 79.5914 79.0056V90.8399L72.0388 100.984V77.9914H64.8245L52.8756 97.7155V77.9914H48.8173L37.8831 80.4711V83.2887L43.8575 83.8521V108.31H51.41L62.9078 89.375V108.31H71.3622M15.0004 104.478H16.6912C22.7781 104.478 26.1598 100.758 26.1598 93.3195C26.1598 87.1207 23.4547 83.7394 18.3818 83.7394C17.7055 83.7394 16.691 83.8521 15.0002 84.1903V104.478L15.0004 104.478ZM15.0004 117.777L19.9601 118.904V121.722H0.458969V118.904L4.96777 117.777V83.7393H0.00805664V80.9217L11.844 77.315H15.0005V81.3727C20.5238 77.9914 22.4402 77.4279 25.3709 77.4279C31.909 77.4279 36.8687 83.5141 36.8687 91.9674C36.8687 101.66 30.2181 108.31 20.0728 108.31C18.9456 108.31 17.0292 108.197 15.0004 108.085" fill="#003C5E"/>
</svg>
