<svg width="177" height="83" viewBox="0 0 177 83" fill="none" xmlns="http://www.w3.org/2000/svg">
<path d="M175.579 74.2535C175.325 74.2535 175.077 74.3287 174.866 74.4696C174.655 74.6105 174.491 74.8108 174.394 75.0451C174.297 75.2794 174.272 75.5373 174.321 75.786C174.37 76.0348 174.493 76.2633 174.672 76.4426C174.851 76.622 175.08 76.7441 175.329 76.7936C175.577 76.843 175.835 76.8176 176.069 76.7206C176.304 76.6235 176.504 76.4592 176.645 76.2483C176.786 76.0374 176.861 75.7895 176.861 75.5358C176.861 75.1958 176.726 74.8698 176.485 74.6294C176.245 74.3889 175.919 74.2537 175.579 74.2535ZM175.579 76.6164C175.365 76.6164 175.156 76.5531 174.978 76.4343C174.801 76.3156 174.662 76.1468 174.58 75.9494C174.499 75.7519 174.477 75.5346 174.519 75.325C174.561 75.1154 174.664 74.9229 174.815 74.7717C174.966 74.6206 175.158 74.5177 175.368 74.476C175.578 74.4343 175.795 74.4557 175.992 74.5375C176.19 74.6193 176.358 74.7578 176.477 74.9355C176.596 75.1132 176.659 75.3221 176.659 75.5358C176.659 75.8222 176.544 76.0966 176.342 76.299C176.139 76.5015 175.865 76.6156 175.579 76.6164ZM175.995 75.3181C175.995 75.0843 175.828 74.946 175.586 74.946H175.174V76.1133H175.375V75.6896H175.594L175.806 76.1133H176.023L175.789 75.6489C175.853 75.6219 175.908 75.5756 175.944 75.5163C175.981 75.457 175.999 75.3877 175.995 75.3181ZM175.576 75.5111H175.378V75.1245H175.576C175.711 75.1245 175.793 75.1927 175.793 75.3181C175.793 75.4435 175.711 75.5111 175.576 75.5111ZM21.0356 61.2745V58.173H16.2807V76.6278H21.0356V65.5623C21.0356 63.5574 22.3257 62.5769 24.3274 62.5769H26.9293V58.1756H24.7057C22.9661 58.173 21.453 59.0807 21.0356 61.2745ZM31.3838 50.8726C29.7577 50.8726 28.5099 52.1585 28.5099 53.7846C28.5099 54.5469 28.8128 55.278 29.3518 55.8171C29.8909 56.3561 30.622 56.659 31.3843 56.659C32.1466 56.659 32.8777 56.3561 33.4168 55.8171C33.9558 55.278 34.2587 54.5469 34.2587 53.7846C34.2602 52.1585 33.0119 50.8726 31.3853 50.8726H31.3838ZM29.01 76.6278H33.754V58.173H29.0136L29.01 76.6278ZM56.3577 67.4004C56.3577 72.6687 52.0869 76.9395 46.8187 76.9395C44.7979 76.9476 42.8309 76.2888 41.2227 75.0652V82.0437H36.4787V58.173H41.2227V59.7335C42.8321 58.5099 44.8005 57.8518 46.8223 57.8613C52.0906 57.8613 56.3613 62.1321 56.3613 67.4004H56.3577ZM51.5828 67.4004C51.5828 66.3755 51.2788 65.3735 50.7094 64.5213C50.1399 63.6691 49.3306 63.0049 48.3836 62.6127C47.4367 62.2205 46.3947 62.1179 45.3895 62.3179C44.3842 62.5179 43.4609 63.0115 42.7362 63.7363C42.0115 64.4611 41.518 65.3845 41.3181 66.3897C41.1182 67.395 41.2209 68.437 41.6132 69.3839C42.0055 70.3308 42.6697 71.1401 43.522 71.7094C44.3743 72.2788 45.3762 72.5826 46.4012 72.5825C47.0819 72.5829 47.756 72.4491 48.385 72.1888C49.014 71.9285 49.5855 71.5468 50.067 71.0656C50.5484 70.5843 50.9303 70.013 51.1908 69.3841C51.4514 68.7552 51.5854 68.0811 51.5853 67.4004H51.5828ZM138.833 65.7816L136.065 65.022C134.244 64.5482 133.537 63.9899 133.537 63.0269C133.537 62.0883 134.534 61.4329 135.962 61.4329C137.321 61.4329 138.387 62.3236 138.387 63.4604V63.5636H142.76V63.4604C142.76 60.1113 140.029 57.8613 135.963 57.8613C131.935 57.8613 129.012 60.1097 129.012 63.2075C129.012 65.618 130.612 67.4334 133.398 68.1884L136.05 68.9109C138.062 69.4682 138.813 70.0874 138.813 71.1954C138.813 72.3653 137.729 73.1512 136.119 73.1512C134.44 73.1512 133.311 72.0892 133.311 70.5091V70.4058H128.667V70.5091C128.667 74.2953 131.715 76.9395 136.079 76.9395C140.285 76.9395 143.337 74.3593 143.337 70.7985C143.338 69.0569 142.555 66.7734 138.837 65.7816H138.833ZM73.1926 58.173H77.9366V76.6278H73.1926V75.0652C71.583 76.2889 69.6144 76.947 67.5925 76.9374C62.3242 76.9374 58.0534 72.6666 58.0534 67.3983C58.0534 62.1301 62.3242 57.8593 67.5925 57.8593C69.6144 57.8496 71.583 58.5078 73.1926 59.7315V58.173ZM73.1926 67.4009C73.1925 66.376 72.8885 65.3742 72.319 64.522C71.7495 63.6699 70.9402 63.0058 69.9932 62.6136C69.0463 62.2215 68.0044 62.1189 66.9992 62.319C65.994 62.519 65.0707 63.0126 64.346 63.7373C63.6213 64.4621 63.1278 65.3854 62.9279 66.3906C62.728 67.3959 62.8307 68.4378 63.2229 69.3847C63.6151 70.3315 64.2793 71.1408 65.1315 71.7102C65.9837 72.2796 66.9856 72.5835 68.0105 72.5835C68.6914 72.5839 69.3656 72.45 69.9948 72.1897C70.6239 71.9293 71.1955 71.5475 71.677 71.0661C72.1585 70.5847 72.5404 70.0131 72.8009 69.3841C73.0614 68.755 73.1954 68.0808 73.1952 67.3999L73.1926 67.4009ZM95.0729 51.6043H99.8168V76.6278H95.0729V75.0652C93.4632 76.2889 91.4947 76.947 89.4727 76.9374C84.2045 76.9374 79.9337 72.6666 79.9337 67.3983C79.9337 62.1301 84.2045 57.8593 89.4727 57.8593C91.4947 57.8496 93.4632 58.5078 95.0729 59.7315V51.6043ZM95.0729 67.4004C95.0729 66.3755 94.7689 65.3736 94.1995 64.5214C93.6301 63.6692 92.8208 63.005 91.8738 62.6128C90.9269 62.2205 89.885 62.1179 88.8798 62.3179C87.8745 62.5178 86.9512 63.0114 86.2264 63.7361C85.5017 64.4608 85.0082 65.3842 84.8082 66.3894C84.6083 67.3947 84.7109 68.4366 85.1031 69.3835C85.4953 70.3304 86.1595 71.1398 87.0117 71.7092C87.8639 72.2786 88.8658 72.5825 89.8907 72.5825C90.5713 72.5827 91.2453 72.4487 91.8741 72.1883C92.5029 71.928 93.0743 71.5463 93.5555 71.065C94.0368 70.5838 94.4186 70.0125 94.679 69.3837C94.9394 68.7549 95.0734 68.081 95.0734 67.4004H95.0729ZM121.85 76.6278H126.594V58.173H121.85V76.6278ZM124.224 50.8726C122.598 50.8726 121.35 52.1585 121.35 53.7846C121.35 54.5469 121.653 55.278 122.192 55.8171C122.731 56.3561 123.462 56.659 124.224 56.659C124.986 56.659 125.718 56.3561 126.257 55.8171C126.796 55.278 127.099 54.5469 127.099 53.7846C127.097 52.1585 125.849 50.8726 124.223 50.8726H124.224ZM163.848 67.4004C163.848 72.6687 159.577 76.9395 154.308 76.9395C149.04 76.9395 144.769 72.6687 144.769 67.4004C144.769 62.1321 149.04 57.8613 154.308 57.8613C159.577 57.8613 163.846 62.1321 163.846 67.4004H163.848ZM159.491 67.4004C159.491 66.3755 159.187 65.3736 158.617 64.5214C158.048 63.6692 157.238 63.005 156.292 62.6128C155.345 62.2205 154.303 62.1179 153.297 62.3179C152.292 62.5178 151.369 63.0114 150.644 63.7361C149.919 64.4608 149.426 65.3842 149.226 66.3894C149.026 67.3947 149.129 68.4366 149.521 69.3835C149.913 70.3304 150.577 71.1398 151.429 71.7092C152.282 72.2786 153.284 72.5825 154.308 72.5825C154.989 72.5825 155.663 72.4485 156.292 72.188C156.92 71.9276 157.491 71.5459 157.973 71.0647C158.454 70.5835 158.835 70.0122 159.096 69.3835C159.356 68.7548 159.49 68.0809 159.49 67.4004H159.491ZM18.6107 51.6043H0.404663V55.8359H7.14213V76.6262H11.8696V55.8374H18.6071L18.6107 51.6043ZM110.665 71.5752L106.441 58.173H101.457L107.788 76.6278H113.498L119.866 58.173H114.882L110.665 71.5752ZM170.804 61.2755V58.1741H166.044V76.6288H170.801V65.5623C170.801 63.5579 172.087 62.5744 174.091 62.5744H176.693V58.173H174.469C172.729 58.173 171.216 59.0807 170.8 61.2745L170.804 61.2755Z" fill="#003C5E"/>
<path d="M88.5481 48.7108C101.951 48.7108 112.817 37.8454 112.817 24.4423C112.817 11.0392 101.951 0.173828 88.5481 0.173828C75.1449 0.173828 64.2796 11.0392 64.2796 24.4423C64.2796 37.8454 75.1449 48.7108 88.5481 48.7108Z" fill="#003C5E"/>
<path d="M103.535 19.7063L106.465 16.5192H99.9709C96.6054 14.2288 92.6286 13.0039 88.5576 13.0039C84.4866 13.0039 80.5098 14.2288 77.1443 16.5192H70.6333L73.5629 19.7063C72.6956 20.5014 71.9936 21.4597 71.4969 22.5263C71.0003 23.593 70.7188 24.7471 70.6685 25.9226C70.6182 27.0981 70.8001 28.272 71.2039 29.3771C71.6076 30.4823 72.2252 31.497 73.0214 32.3633C73.8177 33.2296 74.7768 33.9304 75.8441 34.4257C76.9114 34.921 78.0658 35.201 79.2414 35.2498C80.417 35.2986 81.5906 35.1152 82.6953 34.7101C83.7999 34.3049 84.8138 33.686 85.6791 32.8887L88.5493 36.0112L91.4175 32.8907C93.0704 34.426 95.2437 35.2779 97.4996 35.2748C102.444 35.2748 106.456 31.2667 106.456 26.3225C106.457 25.077 106.198 23.845 105.695 22.7056C105.192 21.5661 104.456 20.5445 103.535 19.7063ZM79.5949 32.3809C78.3967 32.3809 77.2254 32.0256 76.2291 31.3599C75.2328 30.6942 74.4563 29.748 73.9978 28.641C73.5392 27.5339 73.4192 26.3158 73.653 25.1406C73.8868 23.9654 74.4638 22.8859 75.311 22.0386C76.1583 21.1913 77.2378 20.6143 78.413 20.3806C79.5882 20.1468 80.8064 20.2668 81.9134 20.7253C83.0204 21.1839 83.9666 21.9604 84.6323 22.9567C85.298 23.953 85.6533 25.1243 85.6533 26.3225C85.6533 27.9293 85.015 29.4703 83.8788 30.6064C82.7427 31.7426 81.2017 32.3809 79.5949 32.3809ZM88.5493 26.1481C88.5493 22.1611 85.6492 18.7403 81.8248 17.2773C83.9553 16.3897 86.2405 15.9328 88.5486 15.9328C90.8566 15.9328 93.1418 16.3897 95.2724 17.2773C91.4485 18.7408 88.5493 22.1617 88.5493 26.1481ZM97.4996 32.3809C96.3014 32.3809 95.13 32.0256 94.1338 31.3599C93.1375 30.6942 92.3609 29.748 91.9024 28.641C91.4439 27.5339 91.3239 26.3158 91.5577 25.1406C91.7914 23.9654 92.3684 22.8859 93.2157 22.0386C94.063 21.1913 95.1425 20.6143 96.3177 20.3806C97.4929 20.1468 98.711 20.2668 99.818 20.7253C100.925 21.1839 101.871 21.9604 102.537 22.9567C103.203 23.953 103.558 25.1243 103.558 26.3225C103.558 27.9293 102.92 29.4703 101.783 30.6064C100.647 31.7426 99.1064 32.3809 97.4996 32.3809ZM97.4996 23.1468C96.8714 23.1468 96.2573 23.3331 95.7349 23.6821C95.2126 24.0312 94.8055 24.5272 94.5651 25.1077C94.3247 25.6881 94.2618 26.3267 94.3844 26.9429C94.507 27.559 94.8096 28.125 95.2538 28.5692C95.6981 29.0134 96.2641 29.3158 96.8803 29.4383C97.4964 29.5608 98.1351 29.4978 98.7154 29.2574C99.2958 29.0169 99.7918 28.6097 100.141 28.0873C100.49 27.5649 100.676 26.9507 100.676 26.3225C100.676 25.9054 100.594 25.4924 100.434 25.1071C100.274 24.7218 100.04 24.3717 99.7455 24.0768C99.4506 23.7819 99.1004 23.5479 98.715 23.3884C98.3297 23.2288 97.9167 23.1467 97.4996 23.1468ZM82.7712 26.3225C82.7713 26.9507 82.5851 27.5649 82.2361 28.0873C81.8872 28.6097 81.3912 29.0169 80.8108 29.2574C80.2304 29.4978 79.5918 29.5608 78.9756 29.4383C78.3594 29.3158 77.7934 29.0134 77.3492 28.5692C76.9049 28.125 76.6024 27.559 76.4798 26.9429C76.3572 26.3267 76.42 25.6881 76.6604 25.1077C76.9008 24.5272 77.3079 24.0312 77.8303 23.6821C78.3526 23.3331 78.9667 23.1468 79.5949 23.1468C80.4373 23.1468 81.2451 23.4814 81.8407 24.0769C82.4364 24.6725 82.7711 25.4802 82.7712 26.3225Z" fill="#F8F2EC"/>
</svg>
