<svg width="164" height="21" viewBox="0 0 164 21" fill="none" xmlns="http://www.w3.org/2000/svg">
<path d="M0.36853 0.535138H6.36493L10.8243 12.8307L15.2185 0.535138H21.1067L13.2053 20.1259H8.24803L0.36853 0.535138ZM22.0375 0.535138H27.406V19.9526H22.0375V0.535138ZM36.5841 0.405207H41.7794L50.0704 19.996H44.2908L42.8837 16.5106H35.3939L33.987 19.996H28.3802L36.5841 0.405207ZM41.3252 12.2679L39.1602 6.74803L36.9956 12.2679H41.3252ZM48.2306 10.2981V10.2547C48.2306 4.56154 52.5815 0.145508 58.4698 0.145508C62.4311 0.145508 65.0072 1.81228 66.7174 4.15022L62.6478 7.33232C61.5439 5.96861 60.288 5.08094 58.4262 5.08094C55.7203 5.08094 53.7724 7.41888 53.7724 10.2547V10.2981C53.7724 13.1989 55.7203 15.4934 58.4262 15.4934C60.4179 15.4934 61.6085 14.5627 62.7992 13.1556L66.8688 16.0344C65.0288 18.5672 62.5609 20.4073 58.2748 20.4073C52.7114 20.3641 48.2306 16.1212 48.2306 10.2981ZM66.1328 10.2981V10.2547C66.1328 4.66979 70.6572 0.145508 76.6533 0.145508C82.6495 0.145508 87.0874 4.62642 87.0874 10.2115V10.2547C87.0874 15.8396 82.5629 20.3641 76.5666 20.3641C70.5706 20.3641 66.1328 15.8615 66.1328 10.2981ZM81.5889 10.2981V10.2547C81.5889 7.41888 79.5758 4.97285 76.6319 4.97285C73.6877 4.97285 71.6962 7.37568 71.6962 10.2115V10.2547C71.6962 13.0255 73.7094 15.4934 76.6968 15.4934C79.6192 15.45 81.5889 13.0907 81.5889 10.2981ZM106.137 10.0167V9.95164C106.137 7.354 107.089 4.23679 108.713 2.46177V0.57834H102.976L98.3221 8.06837L93.6898 0.57834H87.9966V19.996H93.2784V8.86932L98.2139 16.4673H98.322L103.323 8.86932V20.0176H108.691V17.5931C107.111 15.7964 106.137 12.7226 106.137 10.0167Z" fill="#003C5E"/>
<path d="M146.4 17.0736L149.387 13.5235C151.314 15.0388 153.457 15.8615 155.73 15.8615C157.202 15.8615 157.981 15.3853 157.981 14.4978V14.4544C157.981 13.6318 157.332 13.2205 154.69 12.571C150.556 11.6184 147.331 10.4929 147.331 6.46649V6.42312C147.331 2.82972 150.21 0.231911 154.864 0.231911C158.154 0.231911 160.709 1.16279 162.851 2.82956L160.124 6.61794C158.371 5.3408 156.401 4.69147 154.691 4.69147C153.349 4.69147 152.743 5.21087 152.743 5.92524V5.96861C152.743 6.85612 153.435 7.24575 156.163 7.85188C160.622 8.84764 163.393 10.2764 163.393 13.9132V13.9565C163.393 17.9179 160.276 20.256 155.557 20.256C152.028 20.3207 148.781 19.195 146.4 17.0736ZM128.476 0.535138H138.433C140.901 0.535138 142.568 1.14127 143.737 2.24511C144.56 3.1111 145.014 4.23679 144.971 5.40568V5.44888C144.971 7.70026 143.693 9.04229 141.962 9.75667C144.321 10.5361 145.837 11.8781 145.837 14.5406V14.584C145.837 17.896 143.131 19.9526 138.477 19.9526H128.476V0.535138ZM139.689 6.53137C139.689 5.42736 138.823 4.86444 137.221 4.86444H133.693V8.26303H137.113C138.715 8.26303 139.689 7.67858 139.689 6.59626V6.53137ZM137.828 12.0733H133.714V15.6235H137.936C139.603 15.6235 140.512 14.9738 140.512 13.8481V13.8047C140.469 12.7659 139.646 12.0733 137.828 12.0733ZM108.625 10.2981V10.2547C108.625 4.56154 112.933 0.145508 118.865 0.145508C122.826 0.145508 125.402 1.81228 127.112 4.15022L123.042 7.33232C121.938 5.96861 120.683 5.08094 118.799 5.08094C116.05 5.08094 114.145 7.41888 114.145 10.2547V10.2981C114.145 13.1989 116.072 15.4934 118.799 15.4934C120.791 15.4934 121.982 14.5627 123.172 13.1556L127.242 16.0344C125.402 18.5672 122.934 20.4073 118.648 20.4073C113.106 20.3641 108.625 16.1212 108.625 10.2981Z" fill="#003C5E"/>
</svg>
