<svg width="111" height="140" viewBox="0 0 111 140" fill="none" xmlns="http://www.w3.org/2000/svg">
<path d="M108.961 139.813C109.78 139.813 110.481 139.13 110.481 138.29C110.481 137.471 109.78 136.766 108.961 136.766C108.12 136.766 107.435 137.471 107.435 138.29C107.435 139.13 108.12 139.813 108.961 139.813ZM98.2597 136.109C99.0541 138.653 100.643 139.835 102.802 139.835C105.144 139.835 107.094 137.948 107.094 135.448C107.094 133.698 106.321 132.358 104.686 131.154L102.98 129.882C101.959 129.131 101.459 128.358 101.459 127.496C101.459 126.745 101.959 126.087 102.775 126.087C103.842 126.087 104.41 126.928 104.776 128.247L106.982 126.931C106.234 124.591 104.822 123.614 102.892 123.614C100.711 123.614 98.9123 125.317 98.9123 127.681C98.9123 129.09 99.4582 130.52 101.069 131.727L102.961 133.135C103.913 133.862 104.549 134.656 104.549 135.655C104.549 136.564 103.864 137.359 102.868 137.359C101.574 137.359 100.845 136.403 100.392 134.814L98.2597 136.109ZM92.759 137.405C91.2794 137.405 90.3514 135.541 90.3514 131.724C90.3514 127.908 91.2794 126.022 92.759 126.022C94.2332 126.022 95.1667 127.908 95.1667 131.724C95.1669 135.541 94.2332 137.405 92.759 137.405ZM92.759 139.881C95.8683 139.881 97.7601 137.2 97.7601 131.724C97.7601 126.248 95.8465 123.546 92.759 123.546C89.6662 123.546 87.758 126.248 87.758 131.725C87.7608 137.2 89.6443 139.881 92.759 139.881ZM84.261 128.681C84.261 130.157 83.2592 131.135 81.5366 131.749L81.1489 131.885V126.226C83.2128 126.317 84.261 127.269 84.261 128.681ZM84.5585 139.676H87.3948L84.5994 132.928C85.9616 131.951 86.8051 130.589 86.8051 128.681C86.8051 125.591 84.3975 123.772 80.9933 123.772H78.5802V139.677H81.1489V134.52L81.4437 134.43C81.763 134.34 82.0579 134.225 82.3555 134.113L84.5585 139.676ZM71.7857 132.792C73.4455 132.382 74.7831 133.04 74.7831 134.473C74.7831 136.109 73.2189 137.269 71.0132 137.269V132.975L71.7857 132.792ZM73.7867 128.178C73.7867 129.292 72.946 130.201 71.4253 130.518L71.0132 130.608V126.199C72.7411 126.248 73.7867 126.996 73.7867 128.178ZM77.33 134.452C77.33 132.724 76.3963 131.408 74.8075 130.862C75.7412 130.067 76.2871 129.022 76.2871 127.976C76.2871 125.41 74.0842 123.772 70.65 123.772H68.4689V139.677H70.6964C74.7203 139.676 77.33 137.474 77.33 134.452ZM60.8118 128.681C60.8118 130.157 59.8126 131.135 58.0847 131.749L57.6998 131.885V126.226C59.7663 126.317 60.8118 127.269 60.8118 128.681ZM61.1065 139.676H63.9483L61.153 132.928C62.5152 131.951 63.3587 130.589 63.3587 128.681C63.3587 125.591 60.9482 123.772 57.5414 123.772H55.1309V139.677H57.6997V134.52L57.9946 134.43C58.3111 134.34 58.6088 134.225 58.9036 134.113L61.1065 139.676ZM46.4063 139.676H53.9735V137.222H48.9751V132.724H52.7231V130.201H48.9751V126.224H53.4738L53.9733 123.77H46.4061L46.4063 139.676ZM35.5225 139.676H38.0231V129.792L42.1588 139.676H44.6812V123.772H42.1834V133.657L38.0477 123.772H35.5253V139.676H35.5225ZM31.6162 128.681C31.6162 130.157 30.617 131.135 28.8889 131.749L28.5041 131.885V126.226C30.5705 126.317 31.6162 127.269 31.6162 128.681ZM31.9109 139.676H34.7499L31.9546 132.928C33.3168 131.951 34.1575 130.589 34.1575 128.681C34.1575 125.591 31.7498 123.772 28.3402 123.772H25.9325V139.677H28.4986V134.52L28.7936 134.43C29.1129 134.34 29.4078 134.225 29.7026 134.113L31.9109 139.676ZM18.8241 134.247L20.1208 127.455L21.4147 134.247H18.8241ZM15.2344 139.676H17.7785L18.3463 136.701H21.8924L22.4602 139.676H25.0944L21.8896 123.772H18.4363L15.2344 139.676ZM4.12116 139.676H6.71175L8.64176 129.565L10.5744 139.676H13.165L16.4381 123.772H13.8722L11.8494 134.11L9.89756 123.772H7.4871L5.53246 134.11L3.53414 123.772H0.875244L4.12116 139.676Z" fill="#003C5E"/>
<path d="M99.4273 20.0815C99.3099 19.6119 99.1925 19.4372 98.9577 19.3773L90.5061 17.1469L89.3323 12.3342C89.275 12.0994 89.2149 11.9221 88.9801 11.8646L80.2937 9.51686L79.2372 4.93896C79.1799 4.58675 79.0024 4.41204 78.7676 4.35211L56.2001 0.164515C55.8317 0.0962035 55.4522 0.0962035 55.0809 0.164515L32.5133 4.34932C32.2812 4.40942 32.1011 4.58413 32.0436 4.93616L30.99 9.51406L22.3008 11.8618C22.0634 11.9191 22.0059 12.0966 21.9486 12.3314L20.7775 17.1441L12.3204 19.3745C12.0884 19.4318 11.9656 19.6093 11.8508 20.0787C11.1492 23.7175 10.7971 27.5912 10.7971 31.4648C10.7971 65.274 28.4046 94.6225 54.7011 112.118C55.0533 112.35 55.4054 112.588 55.6402 112.588C55.875 112.588 56.227 112.35 56.5792 112.118C82.8763 94.6225 100.487 65.274 100.487 31.4648C100.487 27.594 100.132 23.7203 99.4273 20.0815Z" fill="#003C5E"/>
<path d="M52.3532 96.5677C52.3532 96.8051 52.1183 96.9199 51.8835 96.6905C45.4275 89.2954 41.0816 80.2541 38.1497 70.3967L33.6918 73.2138C32.5153 74.0355 31.5762 73.6834 30.8746 72.3922C24.888 61.8305 21.0144 44.4578 20.6624 32.2526C20.6624 31.6658 20.7798 31.3136 21.2466 30.7267C22.7725 28.8486 24.648 26.9705 26.4115 25.3272C26.7663 24.975 27.1185 25.2098 27.1185 25.7968C27.1185 40.8218 29.6983 54.7876 33.8066 63.9436C34.1614 64.6479 34.5082 64.6479 34.9776 64.2958L36.2689 63.4742C33.8066 52.5575 32.3981 38.0047 32.7501 21.2217C32.7501 20.6348 32.8675 20.4 33.2197 20.1652C34.5082 19.3436 36.8531 18.0523 38.8541 17.2306C39.4383 16.9958 39.5557 17.1132 39.5557 17.5828C39.2009 41.9958 41.2018 58.8963 45.5423 72.3953C45.6597 72.7475 46.0119 72.6301 46.0119 72.2779C45.7771 67.3478 45.7771 63.0047 45.7771 57.7224L45.5479 15.5845C45.5479 15.1149 45.6653 14.8803 46.1347 14.7629C48.1303 14.2933 49.891 13.9412 52.0039 13.7064C52.2387 13.7064 52.3561 13.8238 52.3561 14.0586L52.3532 96.5677ZM78.1748 30.4891C78.1748 25.7938 72.7752 21.9202 65.6148 21.4506V45.9809C74.6533 40.7016 78.1748 35.4192 78.1748 30.4891ZM77.2357 48.0938C74.7707 48.0938 72.5404 49.0329 65.6148 53.963V80.4889C77.5879 67.1072 80.992 57.9541 80.992 53.2588C80.992 49.972 79.466 48.0938 77.2357 48.0938ZM59.3962 96.6877C59.1614 96.9197 58.9266 96.8051 58.9266 96.5649V14.0583C58.9266 13.8235 59.044 13.7061 59.2788 13.7061C75.0054 14.7625 85.1002 21.3359 85.1002 30.8413C85.1002 34.8324 83.5743 38.706 80.9918 41.5232C86.1567 42.9317 88.1521 46.8055 88.1521 51.9703C88.1524 61.1235 81.4616 76.2632 59.3962 96.6877Z" fill="#F8F2EC"/>
</svg>
