<svg width="242" height="20" viewBox="0 0 242 20" fill="none" xmlns="http://www.w3.org/2000/svg">
<path d="M126.921 1.17969V3.66214L129.79 7.11083C127.919 8.02503 126.467 9.62153 125.732 11.5703C125.548 12.1159 125.457 12.6897 125.465 13.2649C125.462 14.4393 125.83 15.5839 126.52 16.5352C128.649 19.092 132.215 19.975 135.29 18.7055C136.307 18.2581 137.235 17.6278 138.026 16.8474L139.661 18.7947H143.972L131.634 4.15269H140.419V1.17969H126.892H126.921ZM129.181 14.9298C128.824 14.411 128.643 13.7912 128.661 13.1609C128.656 12.8428 128.707 12.5261 128.809 12.2244C129.337 10.9445 130.354 9.92774 131.634 9.40003L136.093 14.6771C135.534 15.3446 134.812 15.8574 133.997 16.1636C132.292 16.9069 130.285 16.4119 129.121 14.9596L129.181 14.9298Z" fill="#003C5E"/>
<path d="M112.725 4.03377H100.134V8.03246H108.622V11.0946H100.134V15.5541H112.933V18.6015H96.3734V1.17969H112.725V4.03377Z" fill="#003C5E"/>
<path d="M241.397 4.03377H228.792V8.03246H237.279V11.0946H228.792V15.5541H241.59V18.6015H225.031V1.17969H241.397V4.03377Z" fill="#003C5E"/>
<path d="M12.445 1.37207L8.47605 13.0708L4.40304 1.4018H0.820572L7.00442 18.5411H9.82878L14.0207 5.87617L18.3613 18.5411H21.037L26.983 1.4018H23.5938L19.714 13.056L15.6856 1.37207H12.445Z" fill="#003C5E"/>
<path d="M48.8361 7.94327V1.17969H52.6415V18.6015H48.8361V11.1987H38.1779V18.6015H34.3725V1.17969H38.1779V7.94327H48.8361Z" fill="#003C5E"/>
<path d="M61.4125 18.6015V1.17969H65.1585V18.6015H61.4125Z" fill="#003C5E"/>
<path d="M82.7579 18.6015H78.9822V4.27161H72.0551V1.17969H89.6701V4.27161H82.7579V18.6015Z" fill="#003C5E"/>
<path d="M155.983 3.60202C154.348 5.29069 153.463 7.57098 153.53 9.91965C153.53 16.1035 158.376 18.8387 163.193 18.8387C165.675 18.7301 168.085 17.9542 170.164 16.594L168.678 14.0075C167.077 15.1447 165.156 15.7482 163.193 15.7319C163.033 15.7452 162.874 15.7512 162.715 15.7512C159.527 15.7512 156.903 13.1275 156.903 9.93898C156.903 9.88844 156.903 9.8364 156.905 9.78586V9.77843C156.905 6.51705 159.589 3.83243 162.851 3.83243C162.944 3.83243 163.039 3.8354 163.133 3.83986C165.06 3.91864 166.943 4.42703 168.648 5.32636L170.045 2.51687C167.923 1.43619 165.574 0.871316 163.193 0.866857C160.527 0.786586 157.936 1.77066 155.998 3.60202" fill="#003C5E"/>
<path d="M185.417 5.68378L187.944 11.8528H182.845L185.417 5.68378ZM179.753 18.6015L181.477 14.8704H189.356L191.169 18.6015H195.896L186.635 1.17969H183.841L175.189 18.6015H179.649" fill="#003C5E"/>
<path d="M201.501 16.9221L202.72 14.1126C204.639 15.2438 206.81 15.8771 209.037 15.9559C210.524 15.9559 214.374 15.6437 214.403 13.6221C214.403 9.57878 200.936 14.4991 201.025 6.39766C201.025 3.63277 203.656 0.927342 209.141 0.986802C211.824 0.986802 214.472 1.61261 216.871 2.81519L215.489 5.47603C213.549 4.46372 211.404 3.9048 209.216 3.84088C207.253 3.84088 204.83 4.34629 204.756 5.80306C204.756 10.0099 218.209 5.25306 218.135 13.2356C218.135 17.7991 212.62 18.8397 209.022 18.8248C203.879 18.7059 201.501 16.9221 201.501 16.9221Z" fill="#003C5E"/>
</svg>
