<svg width="117" height="46" viewBox="0 0 117 46" fill="none" xmlns="http://www.w3.org/2000/svg">
<path d="M65.5668 1.67423C63.4505 2.76969 62.6606 4.61946 62.6606 9.7306C62.6606 9.7306 63.7337 8.70719 65.3224 8.13668C66.2939 7.77675 67.2102 7.28588 68.0453 6.67803C69.8352 5.38407 70.1124 3.71663 70.1124 0.908149C70.1124 0.908149 67.1943 0.830218 65.5668 1.67276M49.7795 7.22208L43.6482 30.778L38.5467 11.501C38.0504 9.45122 37.1547 6.91771 35.7373 5.20321C33.9325 3.01966 30.2633 2.88291 29.8743 2.88291C29.4823 2.88291 25.8131 3.01966 24.0097 5.20321C22.5924 6.91771 21.6967 9.45269 21.1989 11.501L16.0989 30.781L9.9676 7.22208C9.9676 7.22208 9.42511 4.64152 7.57409 3.0226C4.56953 0.397918 0.0656738 0.958143 0.0656738 0.958143L11.8097 44.9836C11.8097 44.9836 15.6846 45.263 17.6221 44.2808C20.1676 42.9942 21.3793 42.0016 22.9218 36.0112C24.2959 30.6707 28.1365 14.9844 28.4942 13.8669C28.6731 13.3155 28.8966 11.9965 29.8743 11.9965C30.8728 11.9965 31.0785 13.3155 31.2514 13.8669C31.6046 14.9858 35.4497 30.6707 36.8253 36.0112C38.3663 42.0016 39.5795 42.9942 42.125 44.2808C44.0625 45.2615 47.9374 44.9836 47.9374 44.9836L59.6799 0.959614C59.6799 0.959614 55.1775 0.397918 52.173 3.0226C50.3205 4.64004 49.7795 7.22208 49.7795 7.22208ZM70.1079 8.26019C70.1079 8.26019 69.4224 9.38211 67.862 10.307C66.8575 10.9025 65.8947 11.3039 64.8619 11.8289C63.1301 12.7082 62.6606 13.6889 62.6606 15.1843V44.9513C62.6606 44.9513 65.4237 45.3204 67.2315 44.3455C69.5565 43.0897 70.0915 41.8781 70.1124 36.4244V9.84823H70.1079V8.26019ZM100.939 22.9746L116.155 1.14341C116.155 1.14341 109.735 0.089132 106.555 2.88144C104.52 4.66798 102.243 7.88082 102.243 7.88082L96.6452 15.6666C96.374 16.071 96.0163 16.5121 95.4499 16.5121C94.8836 16.5121 94.5259 16.071 94.2562 15.6666L88.6554 7.88082C88.6554 7.88082 86.3811 4.66798 84.3453 2.88144C81.1664 0.0876615 74.7429 1.14341 74.7429 1.14341L89.9595 22.9746L74.7817 44.7366C74.7817 44.7366 81.4719 45.5527 84.6523 42.7604C86.6867 40.9724 88.6554 38.0698 88.6554 38.0698L94.2562 30.284C94.5244 29.8796 94.8821 29.4385 95.4499 29.4385C96.0163 29.4385 96.374 29.8796 96.6452 30.284L102.243 38.0683C102.243 38.0683 104.329 40.9724 106.364 42.7604C109.544 45.5541 116.115 44.7381 116.115 44.7381L100.939 22.976V22.9746Z" fill="#003756"/>
</svg>
