<svg width="78" height="79" viewBox="0 0 78 79" fill="none" xmlns="http://www.w3.org/2000/svg">
<g filter="url(#filter0_d_4_2620)">
<rect x="7" width="71" height="71" rx="20" fill="white"/>
<path d="M46.7288 18.9105L47.5232 33.451L36.6084 35.8615L37.5483 18.9081C37.6364 17.3182 38.9514 16.0741 40.5437 16.0741H43.7333C45.3266 16.0741 46.6419 17.3196 46.7288 18.9105Z" fill="#175071"/>
<path fill-rule="evenodd" clip-rule="evenodd" d="M30.0312 43.2698C30.0312 44.5945 30.184 46.0605 30.4577 47.2651C30.7315 48.4697 31.2865 50.0696 32.3788 51.093C33.4712 52.1164 34.9069 52.744 36.4363 52.8666C38.3092 53.0199 40.1877 53.1054 42.0675 53.123C43.0751 53.123 45.2772 53.0633 47.6986 52.8666C49.2273 52.7432 50.6621 52.1152 51.7536 51.0918C52.8451 50.0685 53.3233 48.7507 53.6731 47.2651C54.023 45.7794 54.1019 44.5945 54.1019 43.2698C54.1019 41.9451 54.0042 40.8547 53.6751 37.7889C53.5262 36.3392 52.8467 34.9849 51.7548 33.9615C50.6629 32.9381 49.2277 32.3103 47.6986 32.1873C45.8257 32.034 43.9473 31.9485 42.0675 31.9309C41.0599 31.9309 38.8557 31.9907 36.4322 32.1873C34.9036 32.3108 33.4688 32.9387 32.3773 33.9621C31.2858 34.9854 30.6066 36.3395 30.4577 37.7889C30.1992 40.1672 30.057 40.879 30.0312 43.2698Z" fill="#FF5050"/>
</g>
<defs>
<filter id="filter0_d_4_2620" x="0.0301373" y="0" width="77.9699" height="78.9599" filterUnits="userSpaceOnUse" color-interpolation-filters="sRGB">
<feFlood flood-opacity="0" result="BackgroundImageFix"/>
<feColorMatrix in="SourceAlpha" type="matrix" values="0 0 0 0 0 0 0 0 0 0 0 0 0 0 0 0 0 0 127 0" result="hardAlpha"/>
<feOffset dx="-3.98" dy="4.97"/>
<feGaussianBlur stdDeviation="1.49493"/>
<feComposite in2="hardAlpha" operator="out"/>
<feColorMatrix type="matrix" values="0 0 0 0 0 0 0 0 0 0 0 0 0 0 0 0 0 0 0.04 0"/>
<feBlend mode="normal" in2="BackgroundImageFix" result="effect1_dropShadow_4_2620"/>
<feBlend mode="normal" in="SourceGraphic" in2="effect1_dropShadow_4_2620" result="shape"/>
</filter>
</defs>
</svg>
