<svg width="51" height="9" viewBox="0 0 116.594 20.4191" fill="none" xmlns="http://www.w3.org/2000/svg">
<g id="Right">
<g id="_StatusBar-battery">
<path id="Outline" opacity="0.35" d="M81.5279 1.68892H107.002C109.898 1.6891 112.245 4.03697 112.246 6.93306V14.4252C112.246 17.3215 109.898 19.6702 107.002 19.6704H81.5279C78.6317 19.6701 76.2838 17.3215 76.2838 14.4252V6.93306C76.284 4.037 78.6318 1.68916 81.5279 1.68892Z" stroke="#09364f" stroke-width="1.4984"/>
<path id="Battery End" opacity="0.4" d="M114.494 8.43206V14.7558C115.767 14.2202 116.594 12.9743 116.594 11.5939C116.594 10.2136 115.767 8.96764 114.494 8.43206" fill="#09364f"/>
<path id="Fill" d="M78.5308 6.93376C78.5308 5.27867 79.8725 3.93696 81.5276 3.93696H107C108.656 3.93696 109.997 5.27867 109.997 6.93376V14.4258C109.997 16.0809 108.656 17.4226 107 17.4226H81.5276C79.8726 17.4226 78.5308 16.0809 78.5308 14.4258V6.93376Z" fill="#09364f"/>
</g>
<path id="Wifi" fill-rule="evenodd" clip-rule="evenodd" d="M51.6963 5.3757C55.3922 5.37586 58.9468 6.82544 61.6253 9.42482C61.827 9.6255 62.1494 9.62297 62.3481 9.41914L64.2762 7.43289C64.3768 7.32951 64.4329 7.18948 64.432 7.04378C64.4312 6.89808 64.3735 6.75872 64.2717 6.65655C57.2414 -0.220793 46.1501 -0.220793 39.1198 6.65655C39.0179 6.75864 38.9601 6.89796 38.9592 7.04366C38.9583 7.18936 39.0142 7.32943 39.1148 7.43289L41.0434 9.41914C41.2419 9.62328 41.5646 9.62581 41.7662 9.42482C44.4451 6.82527 48 5.37569 51.6963 5.3757ZM51.7511 11.3719C53.7817 11.3718 55.7399 12.1422 57.2451 13.5335C57.4487 13.731 57.7694 13.7267 57.9679 13.5239L59.8938 11.5376C59.9952 11.4335 60.0515 11.2921 60.05 11.1453C60.0485 10.9984 59.9895 10.8583 59.886 10.7562C55.3023 6.40395 48.2038 6.40395 43.62 10.7562C43.5165 10.8583 43.4574 10.9985 43.4561 11.1454C43.4547 11.2923 43.5112 11.4336 43.6128 11.5376L45.5381 13.5239C45.7366 13.7267 46.0573 13.731 46.2609 13.5335C47.7651 12.1432 49.7218 11.3728 51.7511 11.3719ZM55.6663 15.2488C55.6692 15.3961 55.6125 15.5381 55.5095 15.6413L52.1781 19.0729C52.0805 19.1738 51.9473 19.2306 51.8084 19.2306C51.6695 19.2306 51.5363 19.1738 51.4387 19.0729L48.1068 15.6413C48.0038 15.538 47.9472 15.396 47.9503 15.2487C47.9533 15.1014 48.0158 14.9619 48.1229 14.8632C50.2504 13.0264 53.3664 13.0264 55.4939 14.8632C55.601 14.962 55.6633 15.1015 55.6663 15.2488Z" fill="#09364f"/>
<g id="Icon / Mobile Signal">
<path d="M14.984 5.99361C14.984 5.16607 15.6549 4.49521 16.4824 4.49521H17.9808C18.8084 4.49521 19.4792 5.16606 19.4792 5.99361V17.9808C19.4792 18.8084 18.8084 19.4792 17.9808 19.4792H16.4824C15.6549 19.4792 14.984 18.8084 14.984 17.9808V5.99361Z" fill="#09364f"/>
<path d="M22.476 2.9968C22.476 2.16926 23.1469 1.4984 23.9744 1.4984H25.4728C26.3004 1.4984 26.9712 2.16926 26.9712 2.99681V17.9808C26.9712 18.8084 26.3004 19.4792 25.4728 19.4792H23.9744C23.1469 19.4792 22.476 18.8084 22.476 17.9808V2.9968Z" fill="#09364f"/>
<path d="M7.49201 11.238C7.49201 10.4105 8.16287 9.73962 8.99041 9.73962H10.4888C11.3164 9.73962 11.9872 10.4105 11.9872 11.238V17.9808C11.9872 18.8084 11.3164 19.4792 10.4888 19.4792H8.99041C8.16287 19.4792 7.49201 18.8084 7.49201 17.9808V11.238Z" fill="#09364f"/>
<path d="M0 14.984C0 14.1565 0.670858 13.4856 1.4984 13.4856H2.9968C3.82435 13.4856 4.49521 14.1565 4.49521 14.984V17.9808C4.49521 18.8084 3.82435 19.4792 2.9968 19.4792H1.4984C0.670857 19.4792 0 18.8084 0 17.9808V14.984Z" fill="#09364f"/>
</g>
</g>
</svg>
